<svg width="136" height="25" viewBox="0 0 136 25" fill="none" xmlns="http://www.w3.org/2000/svg">
<path d="M36.592 17.332H41.968V20.5H32.488V3.652H36.592V17.332ZM48.0295 3.652V20.5H43.9255V3.652H48.0295ZM70.0836 3.652V20.5H65.9796V10.396L62.2116 20.5H58.8996L55.1076 10.372V20.5H51.0036V3.652H55.8516L60.5796 15.316L65.2596 3.652H70.0836ZM85.8749 9.076C85.8749 10.052 85.6509 10.948 85.2029 11.764C84.7549 12.564 84.0669 13.212 83.1389 13.708C82.2109 14.204 81.0589 14.452 79.6829 14.452H77.1389V20.5H73.0349V3.652H79.6829C81.0269 3.652 82.1629 3.884 83.0909 4.348C84.0189 4.812 84.7149 5.452 85.1789 6.268C85.6429 7.084 85.8749 8.02 85.8749 9.076ZM79.3709 11.188C80.1549 11.188 80.7389 11.004 81.1229 10.636C81.5069 10.268 81.6989 9.748 81.6989 9.076C81.6989 8.404 81.5069 7.884 81.1229 7.516C80.7389 7.148 80.1549 6.964 79.3709 6.964H77.1389V11.188H79.3709ZM92.1154 6.94V10.348H97.6114V13.516H92.1154V17.212H98.3314V20.5H88.0114V3.652H98.3314V6.94H92.1154ZM111.484 17.524H105.196L104.188 20.5H99.8918L105.988 3.652H110.74L116.836 20.5H112.492L111.484 17.524ZM110.428 14.356L108.34 8.188L106.276 14.356H110.428ZM133.763 20.5H129.659L122.795 10.108V20.5H118.691V3.652H122.795L129.659 14.092V3.652H133.763V20.5Z" fill="#3147F5"/>
<path fill-rule="evenodd" clip-rule="evenodd" d="M17.4413 1.53081C17.2344 1.55763 15.0006 2.04253 12.4774 2.60833C9.13785 3.35721 7.84742 3.66729 7.73453 3.74803C7.30282 4.05676 7.30046 4.77584 7.73012 5.08311C7.81298 5.14238 8.03705 5.23138 8.22797 5.28087C9.85542 5.70262 11.9529 6.91583 13.9754 8.60519C14.6381 9.15864 14.8499 9.37415 15.383 10.0376C15.8653 10.6379 16.2031 10.9338 16.7836 11.2645C18.1372 12.0355 19.6394 12.0779 21.0415 11.3845C23.6335 10.1026 24.7347 6.93585 23.4831 4.36273C22.7907 2.93919 21.3311 1.92638 19.5126 1.60772C18.9268 1.50512 17.9262 1.46793 17.4413 1.53081ZM1.64342 5.1515C1.38452 5.30251 1.24331 5.49169 1.18823 5.76113C1.15728 5.91247 1.04793 6.80141 0.945246 7.73649C0.84256 8.67158 0.58802 10.9547 0.379585 12.81C0.171203 14.6653 0.000381623 16.344 5.48254e-06 16.5406C-0.00139161 17.3081 0.264378 18.4743 0.618703 19.2553C1.15406 20.4353 1.94218 21.2302 3.14137 21.7999C5.00939 22.6873 7.0384 22.6093 8.78551 21.583C9.2918 21.2856 10.0499 20.5534 10.345 20.0768C10.8794 19.2136 11.0935 18.4399 11.0935 17.3707C11.0935 16.5371 11.0253 16.1608 10.7474 15.4621C10.3795 14.5366 9.93339 13.9985 8.52141 12.7769C5.96822 10.5678 3.89703 8.05326 2.88043 5.92839C2.57915 5.29863 2.40951 5.13423 2.03417 5.10832C1.87834 5.09758 1.70252 5.11701 1.64342 5.1515ZM13.9754 12.5251C13.6658 12.642 13.3882 13.0349 13.3855 13.36C13.3849 13.4398 13.6003 14.1949 13.8642 15.0379C14.3706 16.6553 14.4069 16.8344 14.5397 18.3692C14.6443 19.5796 14.7357 19.9943 15.0253 20.572C15.5522 21.6233 16.4051 22.3406 17.4144 22.5813C18.7459 22.8987 20.4522 22.1707 21.2758 20.9338C22.2026 19.5421 22.1097 17.725 21.0421 16.3602C20.5649 15.7503 20.2509 15.5495 17.3121 13.9752C14.8329 12.6472 14.5066 12.4866 14.2942 12.4904C14.1632 12.4927 14.0198 12.5084 13.9754 12.5251Z" fill="#3147F5"/>
</svg>
