<svg width="133" height="24" viewBox="0 0 133 24" fill="none" xmlns="http://www.w3.org/2000/svg">
<path fill-rule="evenodd" clip-rule="evenodd" d="M18.168 1.03204C17.9525 1.05993 15.6257 1.56418 12.9973 2.15257C9.51859 2.93134 8.1744 3.25379 8.0568 3.33776C7.60711 3.65881 7.60464 4.4066 8.05221 4.72614C8.13852 4.78776 8.37193 4.88032 8.5708 4.93179C10.2661 5.37037 12.4509 6.63201 14.5578 8.3888C15.248 8.96434 15.4686 9.18846 16.024 9.87843C16.5264 10.5027 16.8782 10.8104 17.4829 11.1542C18.8929 11.9561 20.4577 12.0001 21.9182 11.279C24.6183 9.94601 25.7653 6.65283 24.4616 3.977C23.7403 2.49663 22.2199 1.4434 20.3256 1.11202C19.7155 1.00532 18.6731 0.966648 18.168 1.03204ZM1.71189 4.79725C1.44221 4.9543 1.29511 5.15102 1.23774 5.43121C1.2055 5.58859 1.0916 6.51302 0.984631 7.48543C0.877666 8.45784 0.612521 10.832 0.395401 12.7614C0.178336 14.6908 0.000397524 16.4366 5.71098e-06 16.6409C-0.00144959 17.4391 0.275394 18.6519 0.644482 19.464C1.20214 20.6911 2.0231 21.5177 3.27226 22.1102C5.21811 23.033 7.33166 22.9519 9.15158 21.8847C9.67896 21.5754 10.4686 20.814 10.7761 20.3183C11.3327 19.4207 11.5557 18.6161 11.5557 17.5042C11.5557 16.6373 11.4847 16.246 11.1952 15.5194C10.812 14.557 10.3473 13.9974 8.87647 12.727C6.2169 10.4298 4.05941 7.81484 3.00045 5.60515C2.68661 4.95025 2.5099 4.77929 2.11893 4.75235C1.95661 4.74118 1.77346 4.76138 1.71189 4.79725ZM14.5578 12.4652C14.2352 12.5867 13.946 12.9953 13.9433 13.3334C13.9426 13.4164 14.167 14.2016 14.4419 15.0783C14.9693 16.7602 15.0072 16.9465 15.1455 18.5426C15.2545 19.8012 15.3497 20.2325 15.6514 20.8333C16.2002 21.9265 17.0887 22.6725 18.14 22.9227C19.5269 23.2529 21.3044 22.4958 22.1623 21.2095C23.1277 19.7622 23.0309 17.8726 21.9189 16.4534C21.4218 15.8191 21.0946 15.6103 18.0334 13.9732C15.451 12.5922 15.111 12.4252 14.8898 12.4291C14.7533 12.4315 14.6039 12.4478 14.5578 12.4652Z" fill="#3147F5"/>
<path d="M33.592 16.832H38.968V20H29.488V3.152H33.592V16.832ZM45.0295 3.152V20H40.9255V3.152H45.0295ZM67.0836 3.152V20H62.9796V9.896L59.2116 20H55.8996L52.1076 9.872V20H48.0036V3.152H52.8516L57.5796 14.816L62.2596 3.152H67.0836ZM82.8749 8.576C82.8749 9.552 82.6509 10.448 82.2029 11.264C81.7549 12.064 81.0669 12.712 80.1389 13.208C79.2109 13.704 78.0589 13.952 76.6829 13.952H74.1389V20H70.0349V3.152H76.6829C78.0269 3.152 79.1629 3.384 80.0909 3.848C81.0189 4.312 81.7149 4.952 82.1789 5.768C82.6429 6.584 82.8749 7.52 82.8749 8.576ZM76.3709 10.688C77.1549 10.688 77.7389 10.504 78.1229 10.136C78.5069 9.768 78.6989 9.248 78.6989 8.576C78.6989 7.904 78.5069 7.384 78.1229 7.016C77.7389 6.648 77.1549 6.464 76.3709 6.464H74.1389V10.688H76.3709ZM89.1154 6.44V9.848H94.6114V13.016H89.1154V16.712H95.3314V20H85.0114V3.152H95.3314V6.44H89.1154ZM108.484 17.024H102.196L101.188 20H96.8918L102.988 3.152H107.74L113.836 20H109.492L108.484 17.024ZM107.428 13.856L105.34 7.688L103.276 13.856H107.428ZM130.763 20H126.659L119.795 9.608V20H115.691V3.152H119.795L126.659 13.592V3.152H130.763V20Z" fill="#3147F5"/>
</svg>
