<svg width="512" height="341" viewBox="0 0 512 341" fill="none" xmlns="http://www.w3.org/2000/svg">
<path d="M245.745 1.61867C236.711 4.57959 230.333 10.1977 226.537 18.625C222.969 26.3689 222.969 28.4188 225.399 74.275C226.613 97.5827 227.372 116.943 227.069 117.246C226.765 117.55 180.377 117.93 124.044 118.005L21.5509 118.233L17.1475 120.359C11.3016 123.244 5.91119 128.786 2.79843 135.088L0.293043 140.25L0.0652803 228.091C-0.0865615 313.578 -0.0865615 316.083 1.35594 320.183C5.53159 331.951 16.3883 339.922 29.5226 340.833C36.2036 341.289 33.4705 341.668 111.517 329.597C119.641 328.382 167.167 321.018 217.047 313.35C266.927 305.606 322.122 297.103 339.66 294.446C357.197 291.712 379.442 288.296 389.008 286.778C398.65 285.335 421.047 281.919 438.964 279.186C456.805 276.452 475.178 273.719 479.81 273.112C490.97 271.593 493.323 270.91 498.182 267.57C503.421 264.001 508.128 258.383 510.33 252.993L512 248.817V194.913C512 145.033 511.924 140.706 510.633 137.138C507.824 129.014 501.371 122.257 493.703 119.372C489.603 117.854 488.313 117.854 385.971 117.854C287.806 117.854 282.339 117.778 282.339 116.487C282.339 115.804 283.174 98.7974 284.237 78.7543C286.591 32.8981 286.667 27.7355 284.541 21.5859C281.656 13.0068 274.519 5.49064 266.396 2.37788C260.398 0.100254 251.288 -0.279351 245.745 1.61867ZM260.778 21.51C263.89 23.408 266.927 28.2669 267.535 32.4426C267.838 34.1128 267.459 44.3621 266.851 55.2188C262.372 130.381 262.372 130.456 263.663 133.19C266.092 138.352 257.133 137.897 377.24 138.352C484.668 138.732 486.187 138.732 488.237 140.25C491.729 142.832 491.957 144.274 491.729 164.393L491.501 183.146L488.844 179.577C484.896 174.263 482.011 172.896 475.178 172.896C467.89 172.896 463.562 174.794 458.172 180.412L454.148 184.512L454.452 181.323C454.983 177.148 454.224 176.92 445.19 178.363C437.446 179.577 435.927 180.261 434.94 182.842C433.877 185.499 433.953 237.505 434.94 239.403C435.472 240.238 436.535 240.845 437.825 240.845C441.621 240.845 452.706 238.568 453.693 237.657C454.376 236.898 454.68 231.583 454.907 217.69C455.059 203.416 455.439 198.33 456.198 197.115C457.792 194.534 461.513 192.788 465.157 192.788C467.966 192.788 468.953 193.167 470.395 194.837C472.141 196.887 472.141 197.115 472.141 214.956C472.141 236.974 471.762 236.138 481.024 234.772C487.326 233.861 490.363 232.418 490.363 230.52C490.363 229.913 490.742 229.609 491.122 229.837C491.577 230.065 491.881 233.557 491.881 237.657C491.881 243.73 491.577 245.477 490.363 247.527C488.616 250.412 484.896 252.234 480.721 252.234C479.126 252.234 472.369 253.069 465.688 254.132C459.007 255.195 441.242 257.928 426.209 260.281C411.177 262.559 384.377 266.659 366.611 269.392C348.846 272.125 330.245 275.01 325.235 275.769C316.124 277.136 276.797 283.285 255.387 286.702C249.162 287.689 243.923 288.448 243.847 288.372C243.468 287.992 242.709 262.103 243.088 262.103C243.316 262.103 244.455 262.938 245.518 263.925C251.06 269.088 263.89 267.797 272.621 261.192C278.164 257.017 284.237 248.438 285.756 242.592C290.615 224.067 280.365 206.301 263.815 204.631C256.45 203.872 246.429 208.503 243.24 214.121C242.101 216.095 242.101 216.095 242.557 212.603C242.936 209.642 242.784 208.883 241.722 208.503C240.355 207.972 231.396 209.262 227.145 210.553C222.21 212.071 222.362 210.629 222.362 253.069V291.561L220.312 292.016C219.097 292.244 205.735 294.37 190.475 296.647C175.215 298.925 155.399 302.038 146.441 303.48C122.298 307.352 50.249 318.285 38.6331 319.879C31.3447 320.866 27.3968 320.183 23.8285 317.374C19.501 313.957 19.6529 316.463 19.6529 243.579C19.6529 183.525 19.8047 176.313 20.8676 175.25C21.9305 174.187 38.1017 174.035 187.21 174.035H352.338L355.299 171.074C358.108 168.265 358.26 167.885 358.26 163.406C358.26 158.927 358.108 158.471 355.527 156.118L352.87 153.536H186.679H20.5639L20.0325 150.5C19.2733 145.944 20.1843 143.135 23.2971 140.782L25.9543 138.732L133.99 138.352L241.949 137.973L243.923 136.151C244.986 135.164 246.201 133.266 246.656 131.975C247.416 129.697 246.277 106.39 242.784 48.6896C241.646 29.178 242.784 24.319 249.086 21.2063C252.654 19.4601 257.665 19.6119 260.778 21.51ZM261.081 224.295C265.181 226.421 267.155 229.913 267.155 235.151C267.079 249.197 250.68 256.106 244.758 244.566C242.86 240.997 242.481 233.937 243.923 231.128C245.973 227.18 252.35 222.852 256.526 222.7C257.209 222.624 259.259 223.384 261.081 224.295Z" fill="#3147F5"/>
<path d="M249.921 32.367C245.669 36.0112 247.795 44.1348 253.337 45.1977C260.626 46.5642 265.56 36.6186 259.79 32.0634C257.057 29.9376 252.654 30.0894 249.921 32.367Z" fill="#3147F5"/>
<path d="M392.046 183.526C377.621 186.183 365.094 194.079 365.094 200.456C365.094 202.961 367.144 206.53 368.89 207.061C371.091 207.744 375.495 206.909 385.516 203.873C395.234 200.988 398.575 200.608 402.067 202.05C404.497 203.037 408.141 208.807 407.002 209.794C406.698 210.022 400.169 211.313 392.425 212.603C375.343 215.488 373.749 215.944 369.193 219.057C360.994 224.599 359.855 234.924 366.688 242.668C370.94 247.527 376.026 249.501 384.074 249.501C392.273 249.425 397.36 247.527 403.206 242.364C407.23 238.796 407.458 238.72 407.458 240.542C407.458 241.605 407.989 243.048 408.596 243.731C409.735 244.794 410.494 244.794 417.175 243.655C421.427 242.972 425.071 241.909 425.754 241.226C426.741 240.239 427.045 237.505 427.197 225.586C427.577 202.582 425.83 194.079 419.681 188.916C412.696 182.994 403.965 181.324 392.046 183.526ZM407.078 223.384C406.85 224.219 405.104 226.649 403.282 228.699C397.74 234.848 389.844 236.367 385.289 232.115C383.163 230.141 382.48 225.662 384.302 225.662C384.757 225.586 389.844 224.751 395.462 223.764C408.217 221.562 407.533 221.562 407.078 223.384Z" fill="#3147F5"/>
<path d="M108.707 185.879C105.671 187.398 103.393 190.89 102.786 194.914C102.406 197.267 102.71 198.786 104.076 201.291C108.328 209.415 118.729 209.491 124.195 201.443C127.08 197.116 126.093 190.89 121.842 187.018C119.26 184.589 112.352 183.981 108.707 185.879Z" fill="#3147F5"/>
<path d="M42.8082 189.599C39.0881 190.13 35.8994 190.662 35.8235 190.662C35.7476 190.737 35.1402 191.269 34.5328 191.952C33.47 193.015 33.3181 198.785 33.3181 244.641C33.3181 290.498 33.47 296.267 34.5328 297.33C35.9753 298.849 35.1402 298.849 46.7561 297.027C52.1465 296.192 64.8253 294.294 75.0746 292.851C85.3239 291.333 94.5863 289.738 95.7251 289.283C97.2435 288.751 98.0787 287.688 98.6101 285.639C99.5971 281.843 98.7619 272.276 97.2435 271.062C95.7251 269.771 91.9291 270.075 76.2134 272.656C68.6973 273.871 60.7256 275.086 58.5998 275.389L54.576 275.921V233.709C54.576 192.484 54.576 191.497 53.0576 189.978C52.2224 189.143 51.0836 188.536 50.6281 188.536C50.0966 188.612 46.6043 189.067 42.8082 189.599Z" fill="#3147F5"/>
<path d="M324.097 194.229C314.759 195.823 308.229 199.24 302.08 205.617C289.477 218.676 288.034 237.352 298.663 249.803C300.409 251.777 303.446 253.979 307.091 255.725C312.253 258.306 313.468 258.61 320.529 258.914C326.906 259.217 329.411 258.99 334.346 257.623C349.378 253.447 357.198 244.565 350.593 239.022C347.556 236.441 344.899 236.517 338.37 239.402C330.93 242.667 325.008 243.653 320.453 242.439C316.96 241.528 312.709 238.339 312.709 236.669C312.709 236.213 317.492 235.15 323.945 234.163C330.095 233.176 339.357 231.734 344.595 230.899C350.365 229.988 354.541 229.001 355.224 228.242C356.06 227.406 356.363 225.66 356.287 221.636C355.984 209.261 348.619 198.784 337.914 195.671C333.815 194.457 326.906 193.773 324.097 194.229ZM333.131 212.374C335.561 213.589 337.687 217.689 336.472 218.903C335.713 219.662 312.025 223.686 311.418 223.155C310.811 222.547 313.392 217.613 315.214 215.942C320.073 211.539 328.348 209.869 333.131 212.374Z" fill="#3147F5"/>
<path d="M192.374 214.045C188.122 215.639 182.808 219.511 181.365 222.244L180.378 223.99L178.48 221.713C172.71 214.88 162.005 216.019 153.958 224.218L149.63 228.546L150.389 225.888C151.452 221.865 150.617 221.485 143.632 222.548C140.368 223.079 136.572 223.839 135.281 224.294C130.498 225.737 130.498 225.509 130.498 255.118C130.498 272.124 130.802 282.449 131.257 283.436C132.244 285.183 135.281 285.259 142.949 283.816C151.224 282.222 150.997 282.905 150.997 260.432V241.452L153.35 239.25C156.311 236.441 160.183 236.214 161.929 238.719C162.916 240.162 163.144 243.426 163.144 258.762C163.144 281.842 162.689 280.779 172.938 279.185C183.567 277.591 182.883 279.033 182.883 256.864C182.883 236.365 182.959 235.91 187.515 233.632C190.096 232.266 193.209 232.797 194.272 234.771C194.727 235.606 195.031 244.109 195.031 254.662C195.031 269.087 195.259 273.491 196.094 274.63C197.005 275.92 197.536 275.996 204.065 275.009C208.621 274.402 211.733 273.491 212.948 272.58L214.77 271.137V250.031C214.77 228.242 214.163 222.852 211.278 218.448C208.013 213.513 199.51 211.539 192.374 214.045Z" fill="#3147F5"/>
<path d="M113.264 227.484C104.913 229.154 105.444 227.028 105.444 258.687C105.444 280.553 105.672 286.399 106.507 287.537C107.342 288.676 108.177 288.828 111.973 288.448C119.793 287.537 123.893 286.247 124.956 284.121C126.17 281.692 126.398 230.141 125.183 227.864C124.196 226.193 120.628 226.041 113.264 227.484Z" fill="#3147F5"/>
</svg>
