<svg width="134" height="24" viewBox="0 0 134 24" fill="none" xmlns="http://www.w3.org/2000/svg">
<path d="M34.592 16.832H39.968V20H30.488V3.152H34.592V16.832ZM46.0295 3.152V20H41.9255V3.152H46.0295ZM68.0836 3.152V20H63.9796V9.896L60.2116 20H56.8996L53.1076 9.872V20H49.0036V3.152H53.8516L58.5796 14.816L63.2596 3.152H68.0836ZM83.8749 8.576C83.8749 9.552 83.6509 10.448 83.2029 11.264C82.7549 12.064 82.0669 12.712 81.1389 13.208C80.2109 13.704 79.0589 13.952 77.6829 13.952H75.1389V20H71.0349V3.152H77.6829C79.0269 3.152 80.1629 3.384 81.0909 3.848C82.0189 4.312 82.7149 4.952 83.1789 5.768C83.6429 6.584 83.8749 7.52 83.8749 8.576ZM77.3709 10.688C78.1549 10.688 78.7389 10.504 79.1229 10.136C79.5069 9.768 79.6989 9.248 79.6989 8.576C79.6989 7.904 79.5069 7.384 79.1229 7.016C78.7389 6.648 78.1549 6.464 77.3709 6.464H75.1389V10.688H77.3709ZM90.1154 6.44V9.848H95.6114V13.016H90.1154V16.712H96.3314V20H86.0114V3.152H96.3314V6.44H90.1154ZM109.484 17.024H103.196L102.188 20H97.8918L103.988 3.152H108.74L114.836 20H110.492L109.484 17.024ZM108.428 13.856L106.34 7.688L104.276 13.856H108.428ZM131.763 20H127.659L120.795 9.608V20H116.691V3.152H120.795L127.659 13.592V3.152H131.763V20Z" fill="white"/>
<path fill-rule="evenodd" clip-rule="evenodd" d="M17.4413 1.03081C17.2344 1.05763 15.0006 1.54253 12.4774 2.10833C9.13785 2.85721 7.84742 3.16729 7.73453 3.24803C7.30282 3.55676 7.30046 4.27584 7.73012 4.58311C7.81298 4.64238 8.03705 4.73138 8.22797 4.78087C9.85542 5.20262 11.9529 6.41583 13.9754 8.10519C14.6381 8.65864 14.8499 8.87415 15.383 9.53764C15.8653 10.1379 16.2031 10.4338 16.7836 10.7645C18.1372 11.5355 19.6394 11.5779 21.0415 10.8845C23.6335 9.60263 24.7347 6.43585 23.4831 3.86273C22.7907 2.43919 21.3311 1.42638 19.5126 1.10772C18.9268 1.00512 17.9262 0.967928 17.4413 1.03081ZM1.64342 4.6515C1.38452 4.80251 1.24331 4.99169 1.18823 5.26113C1.15728 5.41247 1.04793 6.30141 0.945246 7.23649C0.84256 8.17158 0.58802 10.4547 0.379585 12.31C0.171203 14.1653 0.000381623 15.844 5.48254e-06 16.0406C-0.00139161 16.8081 0.264378 17.9743 0.618703 18.7553C1.15406 19.9353 1.94218 20.7302 3.14137 21.2999C5.00939 22.1873 7.0384 22.1093 8.78551 21.083C9.2918 20.7856 10.0499 20.0534 10.345 19.5768C10.8794 18.7136 11.0935 17.9399 11.0935 16.8707C11.0935 16.0371 11.0253 15.6608 10.7474 14.9621C10.3795 14.0366 9.93339 13.4985 8.52141 12.2769C5.96822 10.0678 3.89703 7.55326 2.88043 5.42839C2.57915 4.79863 2.40951 4.63423 2.03417 4.60832C1.87834 4.59758 1.70252 4.61701 1.64342 4.6515ZM13.9754 12.0251C13.6658 12.142 13.3882 12.5349 13.3855 12.86C13.3849 12.9398 13.6003 13.6949 13.8642 14.5379C14.3706 16.1553 14.4069 16.3344 14.5397 17.8692C14.6443 19.0796 14.7357 19.4943 15.0253 20.072C15.5522 21.1233 16.4051 21.8406 17.4144 22.0813C18.7459 22.3987 20.4522 21.6707 21.2758 20.4338C22.2026 19.0421 22.1097 17.225 21.0421 15.8602C20.5649 15.2503 20.2509 15.0495 17.3121 13.4752C14.8329 12.1472 14.5066 11.9866 14.2942 11.9904C14.1632 11.9927 14.0198 12.0084 13.9754 12.0251Z" fill="white"/>
</svg>
