<svg width="500" height="498" viewBox="0 0 500 498" fill="none" xmlns="http://www.w3.org/2000/svg">
<path d="M36.71 407.889L90.03 407.651L143.35 407.561L250 407.393L356.64 407.561L409.97 407.651L463.29 407.889L409.97 408.128L356.64 408.217L250 408.386L143.35 408.217L90.03 408.128L36.71 407.889Z" fill="#263238"/>
<path d="M162.17 469.176C231.46 469.176 287.63 460.505 287.63 449.81C287.63 439.115 231.46 430.444 162.17 430.444C92.8803 430.444 36.71 439.115 36.71 449.81C36.71 460.505 92.8803 469.176 162.17 469.176Z" fill="#EBEBEB"/>
<path d="M410.67 462.27C437.842 462.27 459.87 456.691 459.87 449.81C459.87 442.928 437.842 437.35 410.67 437.35C383.498 437.35 361.47 442.928 361.47 449.81C361.47 456.691 383.498 462.27 410.67 462.27Z" fill="#EBEBEB"/>
<path d="M406.24 427.473H154.7L178.06 95.4861H429.61L406.24 427.473Z" fill="#3147F5"/>
<g opacity="0.1">
<path d="M406.24 427.473H154.7L178.06 95.4861H429.61L406.24 427.473Z" fill="black"/>
</g>
<path d="M400.08 427.473H148.53L171.9 95.4861H423.44L400.08 427.473Z" fill="#3147F5"/>
<path d="M388.63 407.82L166.39 410.632L183.6 111.553L405.85 108.741L388.63 407.82Z" fill="#EBEBEB"/>
<path d="M383.18 411.586L161.51 406.826L189.05 107.797L410.72 112.547L383.18 411.586Z" fill="#DBDBDB"/>
<path d="M386.62 409.24H164.56L185.61 110.142H407.67L386.62 409.24Z" fill="white"/>
<path d="M231.92 204.476H209.75L211.3 182.448H233.47L231.92 204.476Z" fill="#EBEBEB"/>
<path d="M317.04 185.677H245.21L245.44 182.448H317.27L317.04 185.677Z" fill="#263238"/>
<path d="M371.14 191.937H244.77L245 188.707H371.36L371.14 191.937Z" fill="#EBEBEB"/>
<path d="M370.69 198.206H244.33L244.56 194.977H370.92L370.69 198.206Z" fill="#EBEBEB"/>
<path d="M370.25 204.476H243.89L244.12 201.247H370.48L370.25 204.476Z" fill="#EBEBEB"/>
<path d="M212.24 192.364C213.01 193.039 213.74 193.755 214.46 194.46C215.18 195.166 215.87 195.911 216.58 196.636C217.97 198.107 219.3 199.617 220.58 201.137L218.02 201.306C220.339 197.133 222.928 193.114 225.77 189.274C227.2 187.346 228.69 185.468 230.27 183.64C231.861 181.79 233.564 180.038 235.37 178.394C234.542 180.66 233.559 182.867 232.43 185.001C231.34 187.127 230.15 189.194 228.89 191.221C226.376 195.289 223.597 199.189 220.57 202.896L219.05 204.744L218.05 203.055C217.05 201.336 215.97 199.607 215.05 197.829C214.57 196.925 214.05 196.05 213.62 195.136C213.19 194.222 212.65 193.258 212.24 192.364Z" fill="#3147F5"/>
<path d="M229.02 245.661H206.85L208.4 223.633H230.57L229.02 245.661Z" fill="#EBEBEB"/>
<path d="M314.14 226.862H242.31L242.54 223.633H314.37L314.14 226.862Z" fill="#263238"/>
<path d="M368.24 233.132H241.87L242.1 229.903H368.46L368.24 233.132Z" fill="#EBEBEB"/>
<path d="M367.8 239.402H241.43L241.66 236.172H368.02L367.8 239.402Z" fill="#EBEBEB"/>
<path d="M367.36 245.661H240.99L241.22 242.442H367.58L367.36 245.661Z" fill="#EBEBEB"/>
<path d="M209.34 233.509C210.11 234.185 210.84 234.89 211.56 235.606C212.28 236.321 212.97 237.057 213.68 237.782C215.07 239.252 216.4 240.763 217.68 242.283L215.13 242.442C217.444 238.266 220.033 234.246 222.88 230.409C224.3 228.492 225.79 226.614 227.37 224.785C228.959 222.933 230.662 221.181 232.47 219.539C231.637 221.802 230.658 224.009 229.54 226.147C228.44 228.273 227.25 230.34 225.99 232.367C223.483 236.429 220.714 240.325 217.7 244.032L216.18 245.88L215.18 244.191C214.12 242.472 213.09 240.733 212.12 238.954C211.64 238.06 211.12 237.176 210.69 236.272C210.26 235.367 209.75 234.453 209.34 233.509Z" fill="#3147F5"/>
<path d="M226.12 286.857H203.95L205.5 264.828H227.67L226.12 286.857Z" fill="#EBEBEB"/>
<path d="M311.24 268.057H239.41L239.64 264.828H311.47L311.24 268.057Z" fill="#263238"/>
<path d="M365.34 274.327H238.97L239.2 271.098H365.57L365.34 274.327Z" fill="#EBEBEB"/>
<path d="M364.9 280.587H238.53L238.76 277.368H365.13L364.9 280.587Z" fill="#EBEBEB"/>
<path d="M364.46 286.857H238.09L238.32 283.627H364.68L364.46 286.857Z" fill="#EBEBEB"/>
<path d="M206.44 274.705C207.21 275.381 207.94 276.086 208.66 276.801C209.38 277.517 210.07 278.252 210.78 278.977C212.17 280.438 213.5 281.958 214.78 283.479L212.23 283.637C214.554 279.463 217.15 275.444 220 271.605C221.42 269.687 222.91 267.799 224.49 265.981C226.079 264.129 227.782 262.376 229.59 260.735C228.759 262.995 227.78 265.199 226.66 267.332C225.56 269.459 224.37 271.535 223.11 273.562C220.6 277.629 217.82 281.526 214.79 285.227L213.27 287.075L212.27 285.396C211.21 283.677 210.18 281.938 209.21 280.16C208.74 279.266 208.21 278.381 207.78 277.467C207.35 276.553 206.85 275.649 206.44 274.705Z" fill="#3147F5"/>
<path d="M223.22 328.052H201.05L202.6 306.024H224.77L223.22 328.052Z" fill="#EBEBEB"/>
<path d="M308.34 309.253H236.51L236.74 306.024H308.57L308.34 309.253Z" fill="#263238"/>
<path d="M362.44 315.513H236.07L236.3 312.283H362.67L362.44 315.513Z" fill="#EBEBEB"/>
<path d="M362 321.782H235.63L235.86 318.553H362.23L362 321.782Z" fill="#EBEBEB"/>
<path d="M361.56 328.052H235.19L235.42 324.823H361.79L361.56 328.052Z" fill="#EBEBEB"/>
<path d="M220.32 369.238H198.15L199.7 347.219H221.87L220.32 369.238Z" fill="#EBEBEB"/>
<path d="M305.44 350.438H233.62L233.84 347.219H305.67L305.44 350.438Z" fill="#263238"/>
<path d="M359.54 356.708H233.18L233.4 353.479H359.77L359.54 356.708Z" fill="#EBEBEB"/>
<path d="M359.1 362.978H232.73L232.96 359.749H359.33L359.1 362.978Z" fill="#EBEBEB"/>
<path d="M358.66 369.238H232.29L232.52 366.008H358.89L358.66 369.238Z" fill="#EBEBEB"/>
<path d="M255.32 145.107C256.603 145.098 257.85 145.53 258.85 146.329C258.892 146.363 258.927 146.405 258.953 146.453C258.978 146.5 258.995 146.552 259 146.605C259.006 146.659 259.001 146.713 258.985 146.764C258.97 146.816 258.944 146.864 258.91 146.906C258.876 146.948 258.834 146.982 258.786 147.008C258.739 147.033 258.686 147.049 258.632 147.055C258.579 147.06 258.524 147.055 258.472 147.04C258.42 147.025 258.372 146.999 258.33 146.965C257.464 146.261 256.379 145.878 255.26 145.882C253.909 145.882 252.607 146.385 251.611 147.292C250.615 148.199 249.998 149.444 249.88 150.781C249.836 151.413 249.927 152.048 250.145 152.643C250.364 153.238 250.705 153.782 251.148 154.238C251.591 154.694 252.125 155.052 252.717 155.29C253.308 155.529 253.943 155.641 254.58 155.62C255.733 155.626 256.854 155.244 257.76 154.537C257.801 154.503 257.848 154.479 257.899 154.465C257.95 154.452 258.003 154.449 258.056 154.457C258.108 154.466 258.157 154.485 258.201 154.514C258.245 154.543 258.282 154.582 258.31 154.626C258.344 154.667 258.37 154.714 258.384 154.765C258.399 154.816 258.403 154.87 258.395 154.922C258.387 154.975 258.369 155.025 258.34 155.07C258.312 155.115 258.274 155.153 258.23 155.183C257.155 155.969 255.855 156.393 254.52 156.395C253.782 156.417 253.047 156.286 252.363 156.009C251.679 155.732 251.062 155.315 250.55 154.786C250.038 154.257 249.644 153.627 249.392 152.937C249.141 152.248 249.038 151.513 249.09 150.781C249.232 149.235 249.949 147.796 251.101 146.747C252.253 145.698 253.757 145.113 255.32 145.107Z" fill="#263238"/>
<path d="M268.44 151.208H262.68L262.34 156.017C262.328 156.122 262.277 156.218 262.198 156.288C262.118 156.357 262.016 156.395 261.91 156.395C261.862 156.395 261.813 156.385 261.769 156.366C261.724 156.346 261.684 156.318 261.651 156.283C261.618 156.247 261.593 156.205 261.578 156.159C261.562 156.114 261.556 156.065 261.56 156.017L262.29 145.644C262.298 145.541 262.344 145.445 262.42 145.375C262.496 145.305 262.596 145.266 262.7 145.266C262.75 145.263 262.801 145.271 262.848 145.289C262.895 145.307 262.937 145.335 262.972 145.371C263.007 145.407 263.034 145.45 263.051 145.497C263.068 145.544 263.075 145.594 263.07 145.644L262.73 150.443H268.5L268.83 145.644C268.842 145.543 268.89 145.449 268.965 145.38C269.04 145.311 269.138 145.27 269.24 145.266C269.291 145.263 269.342 145.271 269.389 145.289C269.436 145.307 269.479 145.335 269.515 145.37C269.551 145.406 269.579 145.449 269.597 145.496C269.615 145.543 269.623 145.593 269.62 145.644L268.89 156.017C268.876 156.121 268.825 156.216 268.746 156.285C268.667 156.355 268.565 156.393 268.46 156.395C268.411 156.395 268.363 156.385 268.318 156.366C268.273 156.347 268.232 156.318 268.198 156.283C268.165 156.248 268.138 156.206 268.122 156.16C268.105 156.114 268.097 156.066 268.1 156.017L268.44 151.208Z" fill="#263238"/>
<path d="M273.63 145.664C273.64 145.562 273.687 145.467 273.763 145.397C273.838 145.328 273.937 145.288 274.04 145.286H279.8C279.85 145.283 279.9 145.291 279.946 145.309C279.993 145.327 280.035 145.355 280.069 145.391C280.104 145.427 280.13 145.47 280.145 145.517C280.161 145.564 280.166 145.614 280.16 145.664C280.155 145.769 280.11 145.869 280.034 145.943C279.958 146.016 279.856 146.059 279.75 146.061H274.39L274.08 150.463H278.77C278.82 150.464 278.869 150.475 278.915 150.496C278.96 150.517 279 150.548 279.033 150.585C279.066 150.622 279.091 150.666 279.106 150.714C279.121 150.761 279.126 150.811 279.12 150.86C279.113 150.964 279.066 151.061 278.991 151.133C278.915 151.205 278.815 151.246 278.71 151.248H274L273.69 155.64H279.06C279.111 155.639 279.161 155.649 279.207 155.67C279.253 155.69 279.294 155.721 279.327 155.758C279.36 155.796 279.385 155.841 279.399 155.889C279.414 155.937 279.417 155.987 279.41 156.037C279.402 156.14 279.356 156.236 279.28 156.306C279.204 156.376 279.104 156.415 279 156.415H273.21C273.116 156.407 273.029 156.363 272.968 156.293C272.906 156.222 272.874 156.13 272.88 156.037L273.63 145.664Z" fill="#263238"/>
<path d="M288.49 145.107C289.773 145.102 291.019 145.533 292.02 146.329C292.057 146.366 292.087 146.409 292.108 146.457C292.128 146.504 292.138 146.556 292.138 146.608C292.138 146.659 292.128 146.711 292.108 146.759C292.087 146.806 292.057 146.85 292.02 146.886C291.99 146.928 291.952 146.964 291.908 146.992C291.863 147.019 291.814 147.037 291.762 147.044C291.711 147.052 291.658 147.049 291.608 147.035C291.558 147.021 291.511 146.998 291.47 146.965C290.609 146.26 289.526 145.876 288.41 145.882C287.059 145.884 285.757 146.388 284.76 147.294C283.763 148.2 283.142 149.444 283.02 150.781C282.979 151.413 283.072 152.047 283.292 152.642C283.512 153.237 283.855 153.779 284.298 154.235C284.742 154.69 285.276 155.049 285.867 155.287C286.458 155.526 287.092 155.639 287.73 155.62C288.883 155.626 290.004 155.244 290.91 154.537C290.951 154.503 290.998 154.479 291.049 154.465C291.1 154.451 291.153 154.449 291.205 154.457C291.258 154.466 291.307 154.485 291.351 154.514C291.395 154.543 291.432 154.582 291.46 154.626C291.494 154.667 291.518 154.715 291.532 154.767C291.546 154.818 291.549 154.872 291.54 154.924C291.532 154.977 291.512 155.027 291.483 155.072C291.454 155.116 291.415 155.154 291.37 155.183C290.299 155.97 289.002 156.395 287.67 156.395C286.932 156.417 286.197 156.286 285.513 156.009C284.829 155.732 284.212 155.315 283.7 154.786C283.188 154.257 282.794 153.627 282.542 152.937C282.291 152.247 282.188 151.513 282.24 150.781C282.38 149.23 283.099 147.788 284.256 146.738C285.413 145.688 286.923 145.106 288.49 145.107Z" fill="#263238"/>
<path d="M295.45 145.664C295.455 145.558 295.5 145.459 295.576 145.385C295.652 145.311 295.754 145.269 295.86 145.266C295.912 145.265 295.964 145.274 296.012 145.294C296.06 145.313 296.104 145.343 296.14 145.381C296.175 145.418 296.203 145.463 296.22 145.511C296.238 145.56 296.244 145.612 296.24 145.664L295.78 152.102L303.03 145.376C303.104 145.309 303.2 145.271 303.3 145.271C303.4 145.271 303.496 145.309 303.57 145.376C303.608 145.412 303.637 145.455 303.658 145.503C303.678 145.551 303.689 145.602 303.689 145.654C303.689 145.706 303.678 145.757 303.658 145.805C303.637 145.853 303.608 145.896 303.57 145.932L298.98 150.195L302.98 155.729C303.033 155.819 303.052 155.925 303.031 156.028C303.011 156.131 302.954 156.222 302.87 156.285C302.795 156.341 302.703 156.369 302.61 156.365C302.555 156.369 302.5 156.358 302.451 156.333C302.402 156.309 302.36 156.272 302.33 156.226L298.33 150.751L295.69 153.205L295.5 155.987C295.488 156.092 295.437 156.188 295.358 156.258C295.278 156.328 295.176 156.366 295.07 156.365C295.021 156.365 294.973 156.355 294.927 156.336C294.882 156.317 294.842 156.289 294.808 156.253C294.774 156.218 294.748 156.176 294.731 156.13C294.715 156.085 294.707 156.036 294.71 155.987L295.45 145.664Z" fill="#263238"/>
<path d="M306.55 156.395C306.501 156.395 306.452 156.385 306.407 156.366C306.362 156.347 306.322 156.318 306.288 156.283C306.254 156.248 306.228 156.206 306.211 156.16C306.195 156.114 306.187 156.066 306.19 156.017L306.92 145.644C306.932 145.541 306.981 145.446 307.059 145.377C307.136 145.307 307.236 145.268 307.34 145.266C307.39 145.265 307.439 145.274 307.486 145.292C307.532 145.311 307.574 145.339 307.608 145.374C307.643 145.41 307.67 145.452 307.688 145.498C307.705 145.545 307.713 145.594 307.71 145.644L307.01 155.58H312.37C312.422 155.578 312.473 155.588 312.521 155.607C312.569 155.627 312.611 155.657 312.647 155.695C312.682 155.732 312.708 155.777 312.724 155.826C312.74 155.875 312.746 155.926 312.74 155.977C312.728 156.082 312.677 156.178 312.598 156.248C312.518 156.318 312.416 156.356 312.31 156.355L306.55 156.395Z" fill="#263238"/>
<path d="M316.09 145.664C316.102 145.563 316.15 145.469 316.225 145.4C316.3 145.331 316.398 145.29 316.5 145.286C316.551 145.283 316.601 145.291 316.649 145.309C316.696 145.327 316.739 145.355 316.775 145.39C316.811 145.426 316.839 145.469 316.857 145.516C316.875 145.563 316.883 145.613 316.88 145.664L316.15 156.037C316.138 156.142 316.087 156.238 316.008 156.308C315.928 156.377 315.826 156.415 315.72 156.415C315.671 156.415 315.622 156.405 315.577 156.386C315.532 156.367 315.492 156.338 315.458 156.303C315.424 156.268 315.398 156.226 315.381 156.18C315.365 156.134 315.357 156.086 315.36 156.037L316.09 145.664Z" fill="#263238"/>
<path d="M319.74 154.308C319.772 154.274 319.811 154.247 319.854 154.228C319.897 154.209 319.943 154.199 319.99 154.199C320.037 154.199 320.083 154.209 320.127 154.228C320.17 154.247 320.208 154.274 320.24 154.308C321.232 155.181 322.496 155.686 323.82 155.739C324.715 155.752 325.594 155.496 326.34 155.004C326.633 154.828 326.881 154.588 327.067 154.302C327.252 154.016 327.37 153.692 327.41 153.354C327.434 153.05 327.372 152.746 327.23 152.476C327.089 152.205 326.874 151.979 326.61 151.824C325.836 151.358 324.976 151.051 324.08 150.92C323.163 150.787 322.284 150.466 321.5 149.976C321.166 149.768 320.896 149.472 320.72 149.122C320.543 148.771 320.467 148.379 320.5 147.989C320.546 147.565 320.687 147.158 320.914 146.796C321.141 146.435 321.447 146.129 321.81 145.902C322.628 145.365 323.59 145.084 324.57 145.097C325.802 145.158 326.982 145.607 327.94 146.379C327.977 146.407 328.009 146.443 328.032 146.483C328.056 146.524 328.071 146.569 328.076 146.615C328.082 146.661 328.078 146.708 328.065 146.753C328.052 146.798 328.03 146.84 328 146.876C327.947 146.952 327.867 147.005 327.775 147.024C327.684 147.043 327.589 147.025 327.51 146.975C326.663 146.272 325.612 145.857 324.51 145.793C323.685 145.784 322.874 146.015 322.18 146.459C321.909 146.623 321.679 146.846 321.506 147.111C321.333 147.376 321.221 147.676 321.18 147.989C321.167 148.26 321.229 148.529 321.36 148.767C321.49 149.006 321.684 149.204 321.92 149.34C322.633 149.779 323.43 150.067 324.26 150.185C325.245 150.323 326.192 150.662 327.04 151.178C327.395 151.4 327.682 151.713 327.873 152.084C328.063 152.454 328.148 152.87 328.12 153.285C328.065 153.737 327.909 154.172 327.663 154.557C327.418 154.942 327.089 155.268 326.7 155.51C325.83 156.087 324.806 156.391 323.76 156.385C322.282 156.313 320.872 155.746 319.76 154.775C319.704 154.711 319.672 154.63 319.669 154.545C319.665 154.46 319.69 154.377 319.74 154.308Z" fill="#263238"/>
<path d="M334.16 146.041H330.79C330.739 146.042 330.689 146.031 330.642 146.011C330.596 145.99 330.554 145.96 330.52 145.923C330.486 145.885 330.461 145.841 330.445 145.793C330.429 145.745 330.424 145.694 330.43 145.644C330.438 145.541 330.484 145.445 330.56 145.375C330.636 145.305 330.736 145.266 330.84 145.266H338.36C338.409 145.265 338.459 145.274 338.504 145.292C338.55 145.311 338.591 145.339 338.625 145.375C338.659 145.41 338.685 145.453 338.702 145.499C338.718 145.546 338.724 145.595 338.72 145.644C338.715 145.749 338.67 145.849 338.594 145.923C338.518 145.997 338.416 146.039 338.31 146.041H334.93L334.23 155.977C334.22 156.079 334.173 156.174 334.097 156.244C334.022 156.314 333.923 156.353 333.82 156.355C333.771 156.355 333.722 156.345 333.677 156.326C333.632 156.307 333.592 156.279 333.558 156.243C333.524 156.208 333.498 156.166 333.481 156.12C333.465 156.075 333.457 156.026 333.46 155.977L334.16 146.041Z" fill="#263238"/>
<path d="M350.31 122.473H241.24L243.56 89.4351H352.63L350.31 122.473Z" fill="#C7C7C7"/>
<path d="M332.72 71.3611H265L260.75 89.425H335.44L332.72 71.3611ZM298.45 84.3576C297.936 84.3652 297.425 84.2654 296.952 84.0644C296.479 83.8635 296.054 83.566 295.704 83.1912C295.354 82.8164 295.088 82.3728 294.922 81.889C294.756 81.4053 294.694 80.8922 294.74 80.3831C294.827 79.3117 295.313 78.3109 296.102 77.576C296.892 76.8411 297.928 76.425 299.01 76.4087C299.524 76.401 300.035 76.5009 300.508 76.7018C300.981 76.9028 301.406 77.2003 301.756 77.575C302.106 77.9498 302.372 78.3935 302.538 78.8772C302.704 79.361 302.766 79.8741 302.72 80.3831C302.638 81.4562 302.153 82.4596 301.363 83.1954C300.572 83.9311 299.533 84.3458 298.45 84.3576Z" fill="#C7C7C7"/>
<path d="M335.44 89.4251H260.75L261.71 85.3811H334.83L335.44 89.4251Z" fill="#A6A6A6"/>
<path d="M124.94 187.714C126.42 198.643 134.65 224.736 140.79 226.395C146.51 227.935 171.65 220.493 174.89 215.535C176.62 212.882 183.47 188.508 180.4 189.969C176.52 191.807 148.06 206.105 146.89 205.817C144.42 205.201 139.6 195.523 135.43 190.118C126.35 178.314 124.24 182.586 124.94 187.714Z" fill="#774442"/>
<path d="M142.11 198.604L129.22 210.338C129.22 210.338 124.66 193.576 124.14 185.816C123.62 178.056 130 178.94 142.11 198.604Z" fill="#263238"/>
<path d="M89.31 309.829C89.31 309.829 75.68 331.262 61.73 320.839C47.78 310.415 64.73 291.457 64.73 291.457L89.31 309.829Z" fill="#DD6A57"/>
<path d="M64.0914 292.246L88.6992 310.618L196.477 168.092L171.869 149.72L64.0914 292.246Z" fill="#3147F5"/>
<path opacity="0.1" d="M64.0914 292.246L88.6992 310.618L196.477 168.092L171.869 149.72L64.0914 292.246Z" fill="black"/>
<path d="M61.4422 291.474L90.1753 312.925L94.4583 307.261L65.7251 285.81L61.4422 291.474Z" fill="#37474F"/>
<path d="M66.1783 285.213L94.9114 306.665L99.1944 301.001L70.4612 279.55L66.1783 285.213Z" fill="#37474F"/>
<path d="M171.86 149.728L194.43 139.046L201.85 135.499L200.54 143.617L196.54 168.119L191.36 169.809C191.36 169.809 191.62 164.533 191.61 164.443L186.43 166.132C186.43 166.132 186.7 160.856 186.68 160.757L181.56 162.496C181.56 162.496 181.77 157.18 181.76 157.08L176.63 158.819C176.63 158.819 176.84 153.503 176.83 153.404L171.71 155.133C171.71 155.133 171.88 149.817 171.86 149.728Z" fill="#EBEBEB"/>
<path d="M194.43 139.046L201.85 135.499L200.54 143.617L194.43 139.046Z" fill="#37474F"/>
<g opacity="0.1">
<path d="M99.3298 284.442C106 275.271 112.76 266.18 119.54 257.088L140 229.893L160.6 202.837L170.93 189.383L181.38 175.969L171.32 189.681L161.18 203.294L140.76 230.489L120.15 257.545C113.25 266.534 106.31 275.5 99.3298 284.442Z" fill="black"/>
<path d="M92.5 280.15C99.17 270.989 105.93 261.887 112.7 252.796L133.13 225.6L153.73 198.544L164.1 185.071L174.55 171.647L164.49 185.409L154.35 199.051L133.92 226.246L113.32 253.302C106.41 262.245 99.5 271.237 92.5 280.15Z" fill="black"/>
<path d="M85.6599 275.828C92.3399 266.657 99.0999 257.565 105.87 248.473L126.29 221.278L146.9 194.222L157.27 180.739L167.72 167.325L157.66 181.037L147.51 194.679L127.09 221.874L106.48 249C99.5799 257.943 92.6699 266.945 85.6599 275.828Z" fill="black"/>
</g>
<path d="M182.85 189.085C183.21 192.88 185.63 198.305 184.99 201.068C184.854 201.754 184.5 202.378 183.979 202.849C183.459 203.319 182.8 203.611 182.1 203.681C182.1 203.681 184.27 205.956 183.27 208.361C182.75 209.603 180.27 209.871 180.27 209.871C180.731 210.413 181.034 211.07 181.145 211.771C181.256 212.472 181.171 213.189 180.9 213.846C180.09 215.505 177.76 215.525 177.76 215.525C177.76 215.525 178.5 218.088 177.12 219.499C174.33 222.391 159.3 216.976 158.99 210.636C158.85 207.655 162.45 209.205 162.45 209.205C162.45 209.205 157.8 205.777 158.85 202.667C159.9 199.557 164.45 201.823 164.45 201.823C164.45 201.823 159.98 198.455 161.39 195.344C162.8 192.234 167.03 195.146 167.03 195.146C167.03 195.146 164.51 191.688 166.14 189.552C168.83 186.024 173.33 193.298 176.91 193.715L180.71 188.965L182.85 189.085Z" fill="#774442"/>
<path d="M184.14 194.878C184.14 191.251 189.53 188.747 190 185.279C190.65 180.589 184.16 183.073 180.75 188.995L178.92 194.053L184.14 194.878Z" fill="#774442"/>
<path d="M177.43 215.594C177.43 215.594 177.43 215.684 177.43 215.674C171.836 215.088 166.554 212.821 162.29 209.176C162.16 209.056 162.29 208.788 162.46 208.897C167.098 211.837 172.14 214.093 177.43 215.594Z" fill="#263238"/>
<path d="M180.37 209.931C180.43 209.931 180.37 210.04 180.37 210.04C174.207 209.327 168.503 206.448 164.29 201.922C164.15 201.763 164.19 201.475 164.37 201.644C167.34 204.585 175.38 208.59 180.37 209.931Z" fill="#263238"/>
<path d="M166.87 194.729C171.03 199.11 176.19 201.734 181.87 203.671C181.94 203.671 181.87 203.8 181.87 203.8C178.87 203.602 175.34 202.002 172.73 200.521C170.271 199.194 168.203 197.252 166.73 194.888C166.66 194.778 166.79 194.639 166.87 194.729Z" fill="#263238"/>
<path d="M181.71 448.3C179.79 448.936 124.94 448.777 122.85 447.455C122.06 446.968 121.62 439.019 121.35 429.411C121.35 427.334 121.25 425.198 121.22 423.022C121.22 420.439 121.15 417.835 121.13 415.302C121.06 403.915 121.22 393.889 121.22 393.889H156.93V415.302V423.022L156.75 429.411C156.75 429.411 177.75 438.811 179.85 440.5C181.95 442.189 183.62 447.723 181.71 448.3Z" fill="#774442"/>
<path d="M181.71 448.3C179.79 448.935 124.94 448.776 122.85 447.455C122.06 446.968 121.62 439.019 121.35 429.411C121.35 427.334 121.25 425.198 121.22 423.022C121.22 420.439 121.15 417.835 121.13 415.302H156.91V423.022L156.73 429.411C156.73 429.411 177.73 438.811 179.83 440.5C181.93 442.189 183.62 447.723 181.71 448.3Z" fill="white"/>
<path d="M181.88 448.379C180.62 448.787 157.26 448.876 140.25 448.528C136.32 448.439 132.72 448.329 129.81 448.21C125.81 448.021 123.12 447.803 122.69 447.535C121.69 446.919 121.26 435.253 121.04 422.962H156.93L156.74 429.391C156.74 429.391 177.83 438.83 179.98 440.539C182.13 442.249 183.8 447.723 181.88 448.379Z" fill="#3147F5"/>
<path d="M181.09 446.183C171.84 445.935 134.53 445.786 125.37 446.233C125.3 446.233 125.3 446.292 125.37 446.292C134.53 446.74 171.84 446.59 181.09 446.342C181.28 446.332 181.28 446.193 181.09 446.183Z" fill="#263238"/>
<path d="M158.05 427.354C154.42 426.669 149.97 427.205 147.18 429.779C147.07 429.878 147.18 430.027 147.33 429.987C150.799 428.897 154.376 428.18 158 427.851C158.066 427.858 158.132 427.838 158.184 427.796C158.236 427.754 158.268 427.693 158.275 427.627C158.281 427.562 158.262 427.496 158.219 427.444C158.177 427.393 158.116 427.361 158.05 427.354Z" fill="#263238"/>
<path d="M160.67 428.934C157.04 428.248 152.59 428.785 149.8 431.358C149.69 431.458 149.8 431.607 149.95 431.567C153.432 430.466 157.022 429.736 160.66 429.391C160.721 429.392 160.78 429.37 160.824 429.328C160.868 429.286 160.894 429.228 160.895 429.167C160.896 429.107 160.873 429.048 160.831 429.004C160.789 428.961 160.731 428.935 160.67 428.934Z" fill="#263238"/>
<path d="M163.3 430.514C159.66 429.828 155.21 430.365 152.42 432.938C152.31 433.038 152.42 433.187 152.58 433.147C156.058 432.045 159.645 431.315 163.28 430.971C163.341 430.974 163.4 430.952 163.445 430.911C163.49 430.87 163.517 430.813 163.52 430.752C163.523 430.692 163.501 430.632 163.46 430.588C163.418 430.543 163.361 430.516 163.3 430.514Z" fill="#263238"/>
<path d="M165.92 432.094C162.28 431.408 157.83 431.945 155.04 434.518C154.93 434.617 155.04 434.767 155.2 434.727C158.678 433.624 162.265 432.895 165.9 432.551C165.961 432.553 166.021 432.532 166.066 432.491C166.111 432.45 166.137 432.393 166.14 432.332C166.143 432.272 166.121 432.212 166.08 432.168C166.038 432.123 165.981 432.096 165.92 432.094Z" fill="#263238"/>
<path d="M164.8 419.008C163.37 417.02 160.71 417.925 159.19 419.187C156.614 421.402 154.672 424.254 153.56 427.453C153.553 427.467 153.55 427.482 153.551 427.497C153.551 427.512 153.556 427.527 153.564 427.54C153.572 427.553 153.583 427.564 153.596 427.571C153.61 427.579 153.625 427.583 153.64 427.583C153.637 427.653 153.651 427.723 153.681 427.787C153.711 427.85 153.755 427.906 153.811 427.95C153.866 427.993 153.931 428.023 154.001 428.037C154.07 428.051 154.142 428.049 154.21 428.03C157.21 426.937 160.57 426.132 163.15 424.155C164.66 423.002 166.14 420.896 164.8 419.008ZM158.43 425.446C156.96 426.023 155.43 426.519 154.04 427.145C155.087 425.505 156.218 423.92 157.43 422.396C158.026 421.665 158.671 420.974 159.36 420.329C160.45 419.336 164.74 417.279 164.09 421.243C163.73 423.429 160.18 424.761 158.43 425.446Z" fill="#263238"/>
<path d="M144.31 426.48C147.31 427.762 150.76 427.702 153.94 428.02C154.011 428.021 154.081 428.006 154.145 427.975C154.209 427.945 154.265 427.899 154.308 427.843C154.35 427.787 154.379 427.721 154.392 427.652C154.405 427.583 154.4 427.511 154.38 427.444C154.394 427.439 154.407 427.43 154.418 427.42C154.429 427.409 154.437 427.396 154.442 427.381C154.446 427.367 154.448 427.352 154.446 427.337C154.444 427.322 154.438 427.307 154.43 427.295C152.551 424.474 149.957 422.195 146.91 420.687C145.11 419.842 142.31 419.693 141.43 421.909C140.55 424.125 142.57 425.735 144.31 426.48ZM142.68 423.896C141.05 420.22 145.68 421.164 147.02 421.84C147.854 422.285 148.653 422.794 149.41 423.36C150.968 424.533 152.464 425.787 153.89 427.116C152.34 426.867 150.77 426.748 149.21 426.559C147.35 426.331 143.58 425.923 142.68 423.877V423.896Z" fill="#263238"/>
<path d="M109.31 242.69C109.31 242.69 118.96 337.531 119.19 338.733C119.19 338.892 119.29 340.721 119.38 343.702C119.9 360.027 121.19 410.93 121.19 410.93H160.56C160.56 410.93 157.99 350.637 156.56 336.567C154.68 318.623 142.75 242.69 142.75 242.69H109.31Z" fill="#263238"/>
<path d="M123.88 342.082C122.673 321.547 120.85 301.046 118.41 280.577C117.02 269.051 115.41 257.575 113.71 246.089C113.71 245.989 113.53 245.989 113.55 246.089C116.55 266.537 118.75 287.135 120.61 307.693C122.47 328.251 123.77 348.849 124.61 369.476C125.1 381.161 125.46 391.723 125.84 403.418C125.851 403.467 125.878 403.51 125.917 403.542C125.956 403.573 126.005 403.59 126.055 403.59C126.105 403.59 126.154 403.573 126.193 403.542C126.232 403.51 126.259 403.467 126.27 403.418C125.72 382.592 125.11 362.878 123.88 342.082Z" fill="#455A64"/>
<path d="M157.86 404.441C139.86 403.875 124.38 404.282 123.04 404.382C121.93 404.471 122.55 404.58 123.1 404.62C138.34 405.524 157.26 404.67 157.86 404.62C158 404.58 158 404.441 157.86 404.441Z" fill="#455A64"/>
<path d="M109.31 242.69C109.31 242.69 118.96 337.531 119.19 338.733C119.19 338.892 119.29 340.721 119.38 343.702L137.94 242.69H109.31Z" fill="#455A64"/>
<path d="M121.8 456.05C119.8 456.537 65.16 452.324 63.17 450.843C62.42 450.297 62.57 442.338 63.04 432.749C63.13 430.673 63.15 428.517 63.38 426.36C63.66 423.638 63.97 420.925 64.31 418.302C65.73 406.935 67.38 397.436 67.38 397.436L102 400.03L99.85 420.588L99 428.994L98.34 435.353C98.34 435.353 118.55 446.282 120.55 448.121C122.55 449.959 123.76 455.553 121.8 456.05Z" fill="#774442"/>
<path d="M121.8 456.05C119.8 456.537 65.16 452.324 63.17 450.843C62.42 450.297 62.57 442.338 63.04 432.749C63.13 430.673 63.15 428.517 63.38 426.36C63.66 423.638 63.97 420.925 64.31 418.302C74.97 419.047 90.31 419.991 99.84 420.568L99 428.994L98.34 435.353C98.34 435.353 118.55 446.282 120.55 448.121C122.55 449.959 123.76 455.553 121.8 456.05Z" fill="white"/>
<path d="M122 456.129C120 456.626 64.9999 452.383 63.0499 450.913C62.1299 450.227 62.5399 438.572 63.2499 426.281L98.9999 428.934L98.3399 435.333C98.3399 435.333 118.66 446.312 120.67 448.17C122.68 450.028 123.93 455.672 122 456.129Z" fill="#3147F5"/>
<path d="M121.35 453.884C112.15 452.95 74.9499 450.038 65.7799 449.81C65.7099 449.81 65.6999 449.81 65.7799 449.869C74.8799 450.992 112.1 453.605 121.33 454.033C121.53 454.043 121.54 453.904 121.35 453.884Z" fill="#263238"/>
<path d="M99.7799 433.395C96.2099 432.451 91.7799 432.66 88.7799 435.015C88.6599 435.104 88.7799 435.263 88.9099 435.233C92.4557 434.38 96.0827 433.903 99.7299 433.813C99.7732 433.8 99.8117 433.775 99.8408 433.741C99.8699 433.707 99.8882 433.665 99.8935 433.62C99.8989 433.576 99.8909 433.531 99.8707 433.491C99.8505 433.451 99.819 433.418 99.7799 433.395Z" fill="#263238"/>
<path d="M102.28 435.164C98.6999 434.22 94.2799 434.429 91.2799 436.784C91.1699 436.873 91.2799 437.032 91.4199 437.002C94.9735 436.16 98.6075 435.697 102.26 435.621C102.29 435.622 102.32 435.618 102.349 435.607C102.377 435.597 102.403 435.581 102.426 435.561C102.448 435.541 102.466 435.516 102.479 435.489C102.491 435.462 102.499 435.432 102.5 435.402C102.501 435.372 102.497 435.342 102.486 435.314C102.476 435.286 102.46 435.26 102.44 435.238C102.419 435.216 102.395 435.198 102.367 435.185C102.34 435.173 102.31 435.165 102.28 435.164Z" fill="#263238"/>
<path d="M104.78 436.943C101.2 435.949 96.7199 436.197 93.7799 438.552C93.6599 438.642 93.7799 438.801 93.9199 438.781C97.473 437.935 101.107 437.468 104.76 437.39C104.812 437.381 104.86 437.355 104.895 437.316C104.93 437.277 104.951 437.227 104.953 437.174C104.955 437.122 104.94 437.07 104.908 437.028C104.876 436.986 104.831 436.955 104.78 436.943Z" fill="#263238"/>
<path d="M107.27 438.711C103.7 437.717 99.2699 437.966 96.2699 440.321C96.1499 440.41 96.2699 440.569 96.3999 440.549C99.9533 439.704 103.587 439.238 107.24 439.158C107.293 439.151 107.341 439.126 107.378 439.088C107.414 439.049 107.436 439 107.439 438.947C107.443 438.894 107.428 438.842 107.397 438.799C107.366 438.756 107.321 438.725 107.27 438.711Z" fill="#263238"/>
<path d="M107.13 425.576C105.86 423.519 103.13 424.194 101.52 425.337C98.7915 427.362 96.6437 430.062 95.29 433.167C95.29 433.236 95.29 433.286 95.37 433.306C95.37 433.574 95.58 433.882 95.9 433.793C98.98 432.928 102.39 432.372 105.11 430.583C106.7 429.55 108.34 427.533 107.13 425.576ZM100.3 431.537C98.8 432.004 97.3 432.392 95.79 432.908C97.01 431.388 98.16 429.818 99.53 428.417C100.183 427.732 100.881 427.092 101.62 426.5C102.77 425.615 107.21 423.867 106.26 427.771C105.73 429.908 102.1 430.971 100.3 431.527V431.537Z" fill="#263238"/>
<path d="M86.1499 431.518C89.0399 433.008 92.4799 433.207 95.6399 433.763C95.9599 433.823 96.1599 433.485 96.1199 433.217C96.1337 433.212 96.1465 433.205 96.1572 433.196C96.168 433.186 96.1765 433.174 96.1822 433.161C96.1879 433.148 96.1907 433.133 96.1903 433.119C96.1899 433.105 96.1863 433.09 96.1799 433.078C94.5174 430.125 92.1035 427.658 89.1799 425.923C87.4499 424.93 84.6799 424.562 83.6199 426.738C82.5599 428.914 84.4599 430.643 86.1499 431.518ZM84.7099 428.845C83.3599 425.059 87.9599 426.341 89.1999 427.116C89.9923 427.63 90.7506 428.194 91.4699 428.805C92.93 430.073 94.3251 431.412 95.6499 432.819C94.1199 432.452 92.5699 432.223 91.0199 431.915C89.1799 431.587 85.4499 430.911 84.7099 428.845Z" fill="#263238"/>
<path d="M142.71 242.69C142.71 242.69 141.55 252.348 135.97 259.314C134.63 260.983 130.54 262.533 128.42 264.063C128.42 264.063 120.5 336.379 118.09 344.546C115.41 353.668 105 415.928 105 415.928L63.8699 413.066C63.8699 413.066 76.2199 351.998 79.1499 336.875C79.8099 333.497 88.6099 269.856 88.4199 268.385C86.0499 250.858 94.6299 242.74 94.6299 242.74L142.71 242.69Z" fill="#263238"/>
<path d="M110.91 243.754C110.109 246.51 108.414 248.927 106.09 250.629C103.525 252.443 100.485 253.479 97.3399 253.61C96.8099 253.61 96.7699 254.445 97.3399 254.455C103.76 254.455 110.25 250.411 111.19 243.793C111.19 243.644 111 243.614 110.91 243.754Z" fill="#455A64"/>
<path d="M136.73 259.025C134.4 259.953 132.178 261.125 130.1 262.523C127.9 263.874 125.86 265.504 123.73 266.925C123.65 266.984 123.73 267.113 123.81 267.064C126.04 265.792 128.36 264.679 130.57 263.368C132.778 262.166 134.873 260.769 136.83 259.194C136.9 259.135 136.83 258.986 136.73 259.025Z" fill="#455A64"/>
<path d="M137.64 245.721C137.29 247.182 136.87 248.632 136.48 250.083C136.09 251.534 135.83 252.835 135.4 254.177C135.045 255.482 134.316 256.656 133.3 257.555C132.74 258.032 132.12 258.439 131.52 258.877L130.52 259.572C130.57 259.373 130.62 259.175 130.66 258.976C130.79 258.429 130.91 257.873 131.03 257.317C131.29 256.084 131.55 254.852 131.8 253.61C132.29 251.186 132.8 248.732 133.37 246.337C133.364 246.322 133.354 246.309 133.341 246.3C133.327 246.29 133.311 246.285 133.295 246.285C133.279 246.285 133.263 246.29 133.249 246.3C133.236 246.309 133.226 246.322 133.22 246.337C132.5 248.712 131.71 251.057 131.07 253.451C130.75 254.624 129.55 260.407 129.49 260.854C129.43 261.301 129.37 261.708 129.33 262.136C129.255 262.569 129.235 263.009 129.27 263.447C129.279 263.466 129.293 263.482 129.311 263.494C129.328 263.505 129.349 263.511 129.37 263.511C129.391 263.511 129.412 263.505 129.429 263.494C129.447 263.482 129.461 263.466 129.47 263.447C129.67 263.051 129.814 262.63 129.9 262.195C130.03 261.778 130.14 261.361 130.24 260.943L130.33 260.476C130.93 260.148 131.49 259.711 132.05 259.344C132.61 258.976 133.27 258.569 133.84 258.131C134.904 257.321 135.696 256.209 136.11 254.942C136.531 253.576 136.829 252.177 137 250.759C137.26 249.109 137.48 247.44 137.79 245.791C137.81 245.671 137.66 245.622 137.64 245.721Z" fill="#455A64"/>
<path d="M103 408.813C85.1601 406.826 69.6501 405.991 68.3101 405.981C67.1901 405.981 67.8001 406.14 68.3101 406.22C83.4201 408.336 102.31 408.992 102.96 408.972C102.971 408.975 102.981 408.975 102.992 408.974C103.003 408.972 103.013 408.969 103.022 408.963C103.032 408.957 103.04 408.95 103.046 408.942C103.053 408.933 103.057 408.923 103.06 408.913C103.063 408.902 103.063 408.891 103.062 408.881C103.06 408.87 103.056 408.86 103.051 408.851C103.045 408.841 103.038 408.833 103.029 408.827C103.02 408.82 103.011 408.816 103 408.813Z" fill="#455A64"/>
<path d="M141.72 222.897L145.07 250.361C145.07 250.361 100.18 249.964 89.0701 248.92C89.0701 248.92 99.3701 197.978 111.66 185.329C117.8 179.009 124.82 179.655 129.2 184.286C130.31 185.448 143.42 203.542 144.68 210.368C145.77 216.399 141.72 222.897 141.72 222.897Z" fill="#3147F5"/>
<path d="M122.36 200.472C122.737 200.346 123.142 200.325 123.53 200.412C123.736 200.488 123.916 200.623 124.046 200.799C124.175 200.976 124.25 201.187 124.26 201.406C124.255 201.554 124.289 201.701 124.359 201.831C124.43 201.962 124.533 202.072 124.66 202.151C124.793 202.248 124.954 202.301 125.12 202.3C125.31 202.3 125.49 202.359 125.68 202.409C125.299 202.525 124.891 202.525 124.51 202.409C124.309 202.329 124.137 202.192 124.014 202.016C123.892 201.839 123.824 201.63 123.82 201.416C123.814 201.267 123.772 201.123 123.697 200.995C123.622 200.866 123.517 200.758 123.39 200.68C123.246 200.599 123.085 200.555 122.92 200.551C122.73 200.541 122.55 200.521 122.36 200.472Z" fill="white"/>
<path d="M132.61 236.888C132.987 236.762 133.392 236.741 133.78 236.828C133.985 236.904 134.163 237.04 134.291 237.216C134.42 237.393 134.492 237.604 134.5 237.822C134.498 237.969 134.533 238.115 134.603 238.245C134.673 238.376 134.775 238.486 134.9 238.567C135.042 238.655 135.203 238.706 135.37 238.716C135.55 238.716 135.74 238.775 135.92 238.825C135.539 238.941 135.131 238.941 134.75 238.825C134.545 238.738 134.37 238.592 134.247 238.406C134.124 238.221 134.059 238.004 134.06 237.782C134.059 237.635 134.02 237.491 133.947 237.364C133.873 237.237 133.767 237.131 133.64 237.057C133.494 236.971 133.329 236.923 133.16 236.917C132.976 236.917 132.793 236.907 132.61 236.888Z" fill="white"/>
<path d="M116.07 185.885C115.695 186.023 115.286 186.04 114.9 185.935C114.696 185.846 114.522 185.701 114.399 185.515C114.277 185.33 114.211 185.113 114.21 184.892C114.21 184.745 114.171 184.601 114.097 184.474C114.023 184.347 113.917 184.241 113.79 184.166C113.645 184.08 113.479 184.033 113.31 184.027H113.1L113.32 183.848C113.525 183.817 113.734 183.834 113.93 183.898C114.135 183.976 114.312 184.111 114.44 184.288C114.568 184.464 114.641 184.674 114.65 184.892C114.648 185.041 114.684 185.188 114.754 185.32C114.823 185.452 114.925 185.564 115.05 185.647C115.192 185.735 115.353 185.786 115.52 185.796C115.705 185.816 115.888 185.846 116.07 185.885Z" fill="white"/>
<path d="M107.83 215.704C108.208 215.584 108.611 215.563 109 215.644C109.206 215.721 109.385 215.856 109.514 216.033C109.644 216.209 109.719 216.42 109.73 216.638C109.726 216.787 109.761 216.935 109.831 217.067C109.901 217.199 110.004 217.312 110.13 217.393C110.267 217.482 110.426 217.534 110.59 217.542L111.15 217.641C110.775 217.778 110.366 217.795 109.98 217.691C109.772 217.607 109.595 217.462 109.472 217.276C109.349 217.09 109.286 216.871 109.29 216.648C109.286 216.501 109.244 216.357 109.169 216.23C109.094 216.104 108.987 215.998 108.86 215.922C108.717 215.838 108.556 215.79 108.39 215.783C108.2 215.773 108 215.754 107.83 215.704Z" fill="white"/>
<path d="M131.51 250.192H131C130.933 250.042 130.898 249.88 130.9 249.715C130.897 249.568 130.856 249.424 130.781 249.296C130.706 249.169 130.599 249.064 130.47 248.99C130.329 248.903 130.166 248.855 130 248.851C129.815 248.828 129.631 248.794 129.45 248.752C129.824 248.626 130.225 248.606 130.61 248.692C130.816 248.768 130.996 248.903 131.126 249.079C131.256 249.256 131.33 249.467 131.34 249.686C131.334 249.869 131.394 250.049 131.51 250.192Z" fill="white"/>
<path d="M118.94 231.115C119.317 230.989 119.722 230.969 120.11 231.055C120.316 231.131 120.495 231.265 120.623 231.443C120.751 231.62 120.823 231.831 120.83 232.049C120.83 232.197 120.867 232.343 120.939 232.474C121.011 232.604 121.114 232.714 121.24 232.794C121.375 232.888 121.535 232.939 121.7 232.943C121.88 232.943 122.07 233.003 122.25 233.052C121.872 233.166 121.468 233.166 121.09 233.052C120.89 232.971 120.719 232.834 120.596 232.658C120.473 232.481 120.405 232.273 120.4 232.059C120.394 231.911 120.352 231.766 120.277 231.638C120.202 231.51 120.097 231.402 119.97 231.324C119.826 231.243 119.665 231.198 119.5 231.194C119.31 231.214 119.13 231.194 118.94 231.115Z" fill="white"/>
<path d="M94.7901 228.651C94.4852 228.739 94.1669 228.773 93.8501 228.75C93.8501 228.66 93.9001 228.571 93.9301 228.472C94.0287 228.512 94.1335 228.536 94.2401 228.541C94.4201 228.581 94.6101 228.601 94.7901 228.651Z" fill="white"/>
<path d="M99 234.404C99.3772 234.278 99.7818 234.258 100.17 234.344C100.375 234.421 100.553 234.556 100.682 234.733C100.81 234.909 100.882 235.12 100.89 235.338C100.888 235.485 100.923 235.631 100.993 235.761C101.063 235.892 101.165 236.002 101.29 236.083C101.43 236.175 101.592 236.227 101.76 236.232C101.94 236.232 102.13 236.292 102.31 236.341C101.929 236.457 101.521 236.457 101.14 236.341C100.935 236.254 100.76 236.108 100.637 235.923C100.515 235.737 100.449 235.52 100.45 235.298C100.449 235.151 100.41 235.007 100.337 234.88C100.263 234.753 100.157 234.647 100.03 234.573C99.8854 234.486 99.719 234.441 99.55 234.443C99.38 234.473 99.19 234.453 99 234.404Z" fill="white"/>
<path d="M128.12 216.151C128.496 216.021 128.902 216 129.29 216.091C129.495 216.168 129.673 216.303 129.801 216.48C129.93 216.656 130.002 216.867 130.01 217.085C130.008 217.234 130.044 217.381 130.113 217.513C130.183 217.645 130.285 217.757 130.41 217.84C130.552 217.928 130.713 217.979 130.88 217.989C131.06 217.989 131.25 218.049 131.43 218.098C131.049 218.214 130.641 218.214 130.26 218.098C130.055 218.011 129.88 217.865 129.757 217.68C129.635 217.494 129.569 217.277 129.57 217.055C129.569 216.908 129.53 216.764 129.457 216.637C129.383 216.51 129.277 216.404 129.15 216.33C129.004 216.244 128.839 216.196 128.67 216.191C128.486 216.187 128.302 216.174 128.12 216.151Z" fill="white"/>
<path d="M115.71 194.748C115.536 195.103 115.266 195.402 114.93 195.613C114.725 195.703 114.497 195.73 114.276 195.691C114.056 195.652 113.851 195.549 113.69 195.394C113.584 195.289 113.454 195.211 113.311 195.168C113.168 195.125 113.017 195.117 112.87 195.146C112.71 195.18 112.561 195.255 112.44 195.364C112.28 195.474 112.14 195.583 111.97 195.682C112.19 195.384 112.34 195.017 112.77 194.828C112.978 194.745 113.205 194.725 113.424 194.771C113.643 194.817 113.844 194.927 114 195.086C114.108 195.186 114.24 195.257 114.383 195.294C114.527 195.33 114.677 195.33 114.82 195.295C114.98 195.255 115.128 195.177 115.25 195.066C115.397 194.951 115.55 194.845 115.71 194.748Z" fill="white"/>
<path d="M144.43 215.684C144.21 215.982 144.06 216.34 143.65 216.538C143.447 216.634 143.219 216.665 142.997 216.627C142.775 216.59 142.57 216.486 142.41 216.33C142.242 216.169 142.018 216.079 141.785 216.079C141.552 216.079 141.328 216.169 141.16 216.33L140.69 216.648C140.862 216.291 141.137 215.994 141.48 215.793C141.687 215.71 141.914 215.69 142.132 215.734C142.351 215.778 142.552 215.885 142.71 216.042C142.816 216.145 142.948 216.219 143.091 216.257C143.235 216.295 143.386 216.296 143.53 216.26C143.691 216.218 143.839 216.136 143.96 216.022C144.12 215.892 144.26 215.773 144.43 215.684Z" fill="white"/>
<path d="M125 187.396C125.126 187.771 125.147 188.173 125.06 188.558C124.984 188.763 124.848 188.941 124.67 189.068C124.492 189.196 124.279 189.267 124.06 189.274C123.91 189.274 123.763 189.311 123.632 189.382C123.501 189.453 123.39 189.556 123.31 189.681C123.216 189.816 123.164 189.974 123.16 190.138C123.16 190.317 123.1 190.506 123.05 190.685C122.933 190.306 122.933 189.901 123.05 189.522C123.133 189.325 123.272 189.157 123.449 189.037C123.627 188.917 123.835 188.851 124.05 188.846C124.199 188.842 124.345 188.8 124.474 188.726C124.603 188.651 124.712 188.546 124.79 188.419C124.871 188.277 124.916 188.116 124.92 187.952C124.94 187.744 125 187.565 125 187.396Z" fill="white"/>
<path d="M120.6 219.738C120.726 220.109 120.747 220.508 120.66 220.89C120.584 221.096 120.448 221.274 120.27 221.403C120.092 221.532 119.88 221.606 119.66 221.616C119.511 221.613 119.364 221.648 119.233 221.717C119.102 221.787 118.99 221.889 118.91 222.013C118.813 222.146 118.761 222.306 118.76 222.47C118.76 222.659 118.7 222.838 118.65 223.027C118.517 222.653 118.5 222.248 118.6 221.864C118.688 221.66 118.835 221.487 119.021 221.365C119.208 221.243 119.427 221.178 119.65 221.179C119.799 221.178 119.945 221.138 120.073 221.063C120.201 220.988 120.307 220.88 120.38 220.751C120.468 220.611 120.516 220.45 120.52 220.284C120.53 220.105 120.55 219.917 120.6 219.738Z" fill="white"/>
<path d="M143.55 243.813C143.676 244.188 143.697 244.59 143.61 244.976C143.533 245.18 143.397 245.357 143.219 245.484C143.041 245.611 142.829 245.683 142.61 245.691C142.461 245.688 142.314 245.723 142.183 245.793C142.051 245.862 141.94 245.964 141.86 246.089C141.763 246.225 141.71 246.388 141.71 246.556C141.71 246.734 141.65 246.923 141.6 247.102C141.489 246.722 141.489 246.319 141.6 245.94C141.686 245.744 141.825 245.576 142.001 245.455C142.178 245.334 142.385 245.264 142.6 245.254C142.749 245.252 142.895 245.213 143.024 245.14C143.153 245.067 143.262 244.963 143.34 244.837C143.423 244.691 143.468 244.527 143.47 244.36C143.48 244.181 143.5 244.032 143.55 243.813Z" fill="white"/>
<path d="M102.65 220.891C102.771 221.266 102.792 221.667 102.71 222.053C102.633 222.257 102.497 222.434 102.319 222.561C102.141 222.689 101.929 222.761 101.71 222.769C101.559 222.769 101.411 222.806 101.278 222.877C101.146 222.948 101.033 223.051 100.95 223.176C100.86 223.312 100.808 223.47 100.8 223.633C100.8 223.812 100.8 224.001 100.7 224.189C100.579 223.811 100.579 223.405 100.7 223.027C100.783 222.829 100.921 222.659 101.098 222.538C101.276 222.416 101.485 222.348 101.7 222.341C101.848 222.337 101.992 222.295 102.12 222.221C102.248 222.146 102.354 222.041 102.43 221.914C102.515 221.772 102.563 221.612 102.57 221.447C102.58 221.258 102.6 221.079 102.65 220.891Z" fill="white"/>
<path d="M111.43 202.161C111.56 202.535 111.584 202.937 111.5 203.323C111.421 203.527 111.285 203.704 111.108 203.833C110.93 203.961 110.719 204.036 110.5 204.049C110.35 204.045 110.201 204.08 110.068 204.149C109.935 204.219 109.822 204.321 109.74 204.446C109.65 204.583 109.599 204.74 109.59 204.903C109.59 205.092 109.53 205.271 109.48 205.46C109.363 205.081 109.363 204.676 109.48 204.297C109.562 204.099 109.7 203.928 109.877 203.806C110.055 203.685 110.264 203.617 110.48 203.612C110.628 203.607 110.773 203.566 110.9 203.491C111.028 203.416 111.134 203.311 111.21 203.184C111.295 203.043 111.343 202.882 111.35 202.717C111.367 202.531 111.394 202.345 111.43 202.161Z" fill="white"/>
<path d="M137.13 206.086C137.256 206.461 137.277 206.863 137.19 207.248C137.114 207.453 136.979 207.631 136.8 207.758C136.622 207.886 136.41 207.957 136.19 207.964C136.04 207.963 135.893 207.999 135.762 208.071C135.631 208.142 135.52 208.245 135.44 208.371C135.346 208.505 135.294 208.664 135.29 208.828C135.29 209.007 135.23 209.196 135.18 209.375C135.063 208.996 135.063 208.591 135.18 208.212C135.263 208.015 135.402 207.847 135.579 207.727C135.757 207.607 135.965 207.541 136.18 207.536C136.329 207.531 136.475 207.489 136.604 207.415C136.733 207.34 136.841 207.235 136.92 207.109C137.001 206.966 137.046 206.806 137.05 206.642C137.06 206.453 137.08 206.274 137.13 206.086Z" fill="white"/>
<path d="M113.38 238.855C113.506 239.23 113.527 239.632 113.44 240.018C113.363 240.222 113.227 240.398 113.049 240.526C112.871 240.653 112.659 240.725 112.44 240.733C112.291 240.731 112.145 240.766 112.014 240.836C111.882 240.905 111.771 241.007 111.69 241.13C111.597 241.269 111.545 241.431 111.54 241.597C111.54 241.776 111.48 241.965 111.43 242.144C111.313 241.765 111.313 241.36 111.43 240.981C111.515 240.785 111.653 240.616 111.83 240.495C112.007 240.374 112.215 240.305 112.43 240.296C112.579 240.296 112.726 240.258 112.856 240.184C112.985 240.111 113.094 240.006 113.17 239.878C113.253 239.733 113.298 239.569 113.3 239.401C113.31 239.223 113.33 239.064 113.38 238.855Z" fill="white"/>
<path d="M105 243.813C105.116 244.209 105.116 244.63 105 245.025C104.922 245.229 104.786 245.405 104.608 245.532C104.43 245.659 104.219 245.732 104 245.741C103.85 245.739 103.702 245.774 103.569 245.844C103.436 245.913 103.323 246.014 103.24 246.138C103.152 246.279 103.1 246.44 103.09 246.605C103.066 246.789 103.033 246.971 102.99 247.152C102.868 246.774 102.868 246.367 102.99 245.989C103.076 245.794 103.215 245.626 103.391 245.505C103.568 245.383 103.775 245.314 103.99 245.304C104.138 245.303 104.283 245.264 104.411 245.191C104.539 245.118 104.645 245.013 104.72 244.886C104.807 244.742 104.855 244.578 104.86 244.409C104.9 244.181 104.92 244.032 105 243.813Z" fill="white"/>
<path d="M132.4 195.672C132.568 195.314 132.839 195.013 133.18 194.808C133.384 194.714 133.611 194.684 133.833 194.721C134.054 194.758 134.259 194.861 134.42 195.017C134.588 195.178 134.812 195.267 135.045 195.267C135.278 195.267 135.502 195.178 135.67 195.017C135.83 194.917 135.97 194.798 136.14 194.699C135.965 195.057 135.687 195.354 135.34 195.553C135.135 195.638 134.909 195.659 134.692 195.615C134.474 195.571 134.275 195.463 134.12 195.305C134.011 195.202 133.878 195.128 133.733 195.09C133.588 195.051 133.436 195.05 133.29 195.086C133.129 195.129 132.981 195.211 132.86 195.325C132.71 195.454 132.56 195.573 132.4 195.672Z" fill="white"/>
<path d="M117.74 210.318C117.908 209.96 118.179 209.659 118.52 209.454C118.724 209.36 118.951 209.33 119.173 209.367C119.394 209.404 119.599 209.507 119.76 209.663C119.928 209.824 120.152 209.913 120.385 209.913C120.618 209.913 120.842 209.824 121.01 209.663C121.17 209.563 121.31 209.444 121.48 209.345C121.309 209.705 121.029 210.003 120.68 210.199C120.475 210.284 120.249 210.305 120.032 210.261C119.814 210.217 119.615 210.109 119.46 209.951C119.353 209.848 119.222 209.774 119.079 209.735C118.935 209.697 118.784 209.696 118.64 209.732C118.475 209.773 118.324 209.855 118.2 209.971C118.05 210.1 117.9 210.249 117.74 210.318Z" fill="white"/>
<path d="M107.58 230.191C107.758 229.839 108.027 229.54 108.36 229.326C108.564 229.234 108.791 229.204 109.012 229.241C109.233 229.279 109.438 229.381 109.6 229.535C109.704 229.643 109.833 229.723 109.977 229.767C110.121 229.81 110.273 229.816 110.42 229.783C110.583 229.748 110.734 229.673 110.86 229.565C111.01 229.466 111.16 229.346 111.32 229.257C111.11 229.555 110.96 229.923 110.53 230.101C110.323 230.185 110.096 230.207 109.877 230.162C109.658 230.118 109.457 230.011 109.3 229.853C109.194 229.75 109.062 229.676 108.919 229.638C108.775 229.599 108.624 229.598 108.48 229.634C108.319 229.677 108.171 229.759 108.05 229.873C107.89 229.982 107.75 230.121 107.58 230.191Z" fill="white"/>
<path d="M131.62 228.134C131.8 227.784 132.069 227.486 132.4 227.27C132.605 227.178 132.833 227.15 133.054 227.189C133.275 227.228 133.479 227.332 133.64 227.488C133.746 227.593 133.876 227.67 134.019 227.713C134.162 227.756 134.313 227.764 134.46 227.737C134.623 227.701 134.774 227.626 134.9 227.518C135.047 227.403 135.2 227.297 135.36 227.2C135.188 227.557 134.913 227.854 134.57 228.054C134.362 228.137 134.134 228.157 133.915 228.111C133.696 228.065 133.496 227.955 133.34 227.796C133.233 227.694 133.101 227.621 132.958 227.585C132.814 227.548 132.663 227.549 132.52 227.587C132.36 227.627 132.212 227.706 132.09 227.816C131.94 227.931 131.783 228.037 131.62 228.134Z" fill="white"/>
<path d="M122.4 242.611C122.574 242.256 122.844 241.957 123.18 241.746C123.385 241.656 123.613 241.629 123.833 241.668C124.054 241.707 124.258 241.81 124.42 241.965C124.524 242.072 124.654 242.152 124.797 242.195C124.941 242.239 125.093 242.245 125.24 242.213C125.4 242.179 125.548 242.104 125.67 241.995C125.83 241.885 125.97 241.776 126.14 241.677C125.965 242.035 125.687 242.333 125.34 242.531C125.132 242.614 124.904 242.634 124.685 242.588C124.466 242.542 124.266 242.432 124.11 242.273C124.001 242.173 123.87 242.102 123.726 242.066C123.583 242.029 123.433 242.029 123.29 242.064C123.128 242.104 122.979 242.187 122.86 242.303C122.71 242.402 122.56 242.521 122.4 242.611Z" fill="white"/>
<path d="M93.35 239.749C93.14 240.057 92.98 240.425 92.55 240.604C92.345 240.688 92.1191 240.71 91.9016 240.666C91.6842 240.621 91.485 240.513 91.33 240.355C91.2387 240.265 91.1249 240.199 91 240.167C91 240.037 91.07 239.898 91.1 239.759C91.2978 239.805 91.4804 239.901 91.63 240.037C91.7329 240.146 91.8627 240.227 92.0066 240.27C92.1505 240.314 92.3034 240.319 92.45 240.286C92.6109 240.254 92.7597 240.178 92.88 240.067C93 239.968 93.18 239.849 93.35 239.749Z" fill="white"/>
<path d="M99.78 210.785C99.9588 210.431 100.232 210.132 100.57 209.921C100.774 209.828 101.001 209.799 101.222 209.836C101.443 209.873 101.648 209.975 101.81 210.13C101.913 210.239 102.043 210.319 102.187 210.362C102.331 210.406 102.483 210.411 102.63 210.378C102.79 210.344 102.939 210.269 103.06 210.159C103.22 210.06 103.36 209.941 103.53 209.841C103.31 210.149 103.16 210.517 102.73 210.696C102.523 210.78 102.296 210.801 102.077 210.757C101.858 210.713 101.657 210.605 101.5 210.447C101.394 210.344 101.262 210.27 101.119 210.232C100.975 210.194 100.824 210.193 100.68 210.229C100.519 210.272 100.371 210.354 100.25 210.467C100.099 210.581 99.9421 210.687 99.78 210.785Z" fill="white"/>
<path d="M143.47 237.524C143.03 235.01 142.71 233.042 142.34 230.568C141.97 228.094 141.59 225.531 141.26 223.007V222.838L141.37 222.679C142.64 220.76 143.551 218.63 144.06 216.389C144.326 215.28 144.454 214.142 144.44 213.001C144.453 211.862 144.298 210.727 143.98 209.633C143.286 207.403 142.396 205.239 141.32 203.164C140.26 201.068 139.39 199.309 138.21 197.262C138.01 196.944 138.14 196.875 138.32 197.123C139.51 198.802 140.81 201.098 141.83 202.896C143.044 204.954 144.049 207.128 144.83 209.384C145.209 210.55 145.404 211.766 145.41 212.991C145.434 214.208 145.306 215.423 145.03 216.608C144.494 218.98 143.503 221.227 142.11 223.225L142.19 222.898C142.48 225.431 142.72 227.965 142.96 230.499C143.19 232.774 143.45 235.238 143.61 237.524C143.61 237.732 143.62 238.448 143.47 237.524Z" fill="#263238"/>
<path d="M140.36 199.15C140.847 199.894 141.247 200.69 141.55 201.525C141.707 201.939 141.834 202.364 141.93 202.797C142.045 203.231 142.105 203.679 142.11 204.128C141.73 203.313 141.38 202.519 141.11 201.694C140.783 200.87 140.532 200.019 140.36 199.15Z" fill="#263238"/>
<path d="M113.81 191.062C110.16 196.537 92.91 218.088 92.27 220.155C91.63 222.222 95.54 226.514 95.5 227.359C95.35 230.787 86.66 251.434 83.58 249.218C79.58 246.347 65.07 228.233 67 218.685C68.93 209.136 106 185.329 112.1 183.093C118.2 180.858 117.41 185.667 113.81 191.062Z" fill="#774442"/>
<path d="M99.8 256.651C102.14 254.455 98.19 252.974 98.19 252.974C98.19 252.974 104.39 253.749 105.92 250.56C107.45 247.37 102.55 245.86 102.21 245.731C102.54 245.731 108.21 246.337 109.45 242.969C110.69 239.6 105.57 238.676 105.24 238.627C105.56 238.557 109.79 237.683 110.12 234.92C110.68 230.181 98.36 231.651 95.26 229.316C95.26 229.316 95.46 223.136 95.52 222.957C94.9477 224.427 93.8899 225.66 92.52 226.455C89.99 227.637 87.68 228.442 86.81 229.893C86.4017 230.526 86.2094 231.272 86.2616 232.022C86.3138 232.772 86.6078 233.485 87.1 234.056C87.1 234.056 83.69 234.225 82.66 236.838C82.13 238.189 83.83 240.216 83.83 240.216C83.0607 240.294 82.3278 240.58 81.712 241.045C81.0962 241.509 80.6214 242.134 80.34 242.849C79.72 244.747 81.52 246.486 81.52 246.486C81.52 246.486 79 247.927 79 250.073C79 254.405 94.79 261.351 99.8 256.651Z" fill="#774442"/>
<path d="M81.77 246.814C81.77 246.814 81.67 246.814 81.77 246.884C86.5545 250.573 92.3537 252.731 98.4 253.074C98.59 253.074 98.68 252.776 98.47 252.726C92.6441 251.571 87.0185 249.579 81.77 246.814Z" fill="#263238"/>
<path d="M83.7499 240.216C83.6899 240.216 83.6399 240.276 83.6899 240.326C89.0221 244.349 95.6257 246.347 102.31 245.959C102.55 245.959 102.74 245.681 102.47 245.691C97.9199 245.741 88.6399 242.879 83.7499 240.216Z" fill="#263238"/>
<path d="M105.7 238.418C99.1601 238.736 93.1801 236.947 87.3001 234.225C87.2201 234.225 87.1801 234.294 87.2301 234.344C89.7401 236.46 93.6701 237.802 96.8201 238.597C99.7284 239.383 102.793 239.4 105.71 238.646C105.82 238.617 105.84 238.408 105.7 238.418Z" fill="#263238"/>
<path d="M81.35 246.506C80.7373 246.056 80.2611 245.447 79.9736 244.746C79.6861 244.045 79.5983 243.279 79.72 242.531C79.9081 241.795 80.3641 241.154 81 240.733C81.7607 240.329 82.6075 240.111 83.47 240.097C82.8937 239.516 82.5079 238.774 82.3633 237.971C82.2187 237.168 82.3222 236.34 82.66 235.596C83.0531 234.936 83.687 234.452 84.43 234.245C85.2891 234.026 86.1732 233.919 87.06 233.927C86.6292 233.562 86.2901 233.103 86.0696 232.586C85.8491 232.068 85.7533 231.507 85.79 230.946C85.851 230.331 86.0588 229.74 86.3963 229.222C86.7337 228.703 87.191 228.272 87.73 227.965C88.9936 227.264 90.3362 226.713 91.73 226.325C92.4306 226.096 93.1018 225.786 93.73 225.401C94.3988 224.942 94.9196 224.3 95.23 223.553C95.29 223.424 95.3 223.553 95.23 223.663C95.0326 224.172 94.7522 224.645 94.4 225.064C94.0275 225.503 93.5969 225.891 93.12 226.216C91.9183 226.908 90.6646 227.506 89.37 228.005C88.2463 228.508 87.3192 229.363 86.73 230.439C86.4762 231.001 86.3847 231.622 86.466 232.233C86.5472 232.844 86.7979 233.42 87.19 233.897C87.1989 233.91 87.2041 233.925 87.2051 233.941C87.2061 233.957 87.2029 233.973 87.1957 233.987C87.1886 234.001 87.1779 234.013 87.1646 234.021C87.1513 234.03 87.1359 234.035 87.12 234.036C86.3313 234.15 85.5612 234.367 84.83 234.682C84.2216 234.948 83.709 235.391 83.36 235.954C83.0625 236.637 82.9512 237.386 83.0372 238.125C83.1232 238.865 83.4035 239.569 83.85 240.167C83.0174 240.359 82.2253 240.695 81.51 241.16C81.0394 241.539 80.6916 242.047 80.51 242.621C80.3116 243.271 80.3 243.964 80.4767 244.621C80.6534 245.277 81.0113 245.872 81.51 246.337C81.5125 246.353 81.5125 246.37 81.51 246.387C81.51 246.387 81.51 246.387 81.51 246.436C81.51 246.436 80.72 246.923 80.67 246.933C80.8854 246.774 81.1128 246.631 81.35 246.506Z" fill="#263238"/>
<path d="M104.45 204.357L89.1599 195.941C89.1599 195.941 104.74 185.667 111.98 182.716C119.22 179.765 119.38 186.73 104.45 204.357Z" fill="#263238"/>
<path d="M119.61 179.387C117.18 180.381 116.5 182.11 117.26 184.137C118.1 186.412 125.13 190.834 128.05 189.343C130.57 188.051 128.39 182.06 127.05 180.709C126.038 179.855 124.816 179.284 123.509 179.052C122.202 178.82 120.857 178.935 119.61 179.387Z" fill="#263238"/>
<path d="M118 183.61C118.37 184.435 123.6 189.214 127.52 188.26C128.8 187.942 127.39 180.947 127.39 180.947V180.401L127.59 172.839L118 169.044L116.62 168.567C116.62 168.567 116.7 170.633 116.83 173.217C116.83 173.336 116.83 173.455 116.83 173.584C116.83 173.714 116.83 173.863 116.83 174.002C116.83 174.389 116.83 174.787 116.88 175.174C116.93 175.562 116.88 175.76 116.95 176.078C117.02 176.396 116.95 176.694 117.02 177.012C117.191 179.232 117.518 181.436 118 183.61Z" fill="#774442"/>
<path d="M116.79 173.217C117.923 175.116 119.459 176.746 121.292 177.994C123.124 179.241 125.209 180.076 127.4 180.44L127.6 172.879L118 169.044L116.62 168.567C116.62 168.567 116.66 170.633 116.79 173.217Z" fill="#263238"/>
<path d="M136.51 161.154C138.42 174.3 130.72 176.913 127.86 177.32C125.27 177.688 116.41 178.622 113.14 165.745C109.87 152.867 115.42 147.86 121.3 146.677C127.18 145.495 134.6 148.009 136.51 161.154Z" fill="#774442"/>
<path d="M133 157.994C132.692 157.995 132.385 157.975 132.08 157.935C131.752 157.964 131.423 157.88 131.15 157.696C131.074 157.625 131.024 157.53 131.01 157.427C130.995 157.324 131.017 157.219 131.07 157.13C131.198 156.964 131.369 156.836 131.564 156.759C131.76 156.682 131.972 156.659 132.18 156.693C132.609 156.693 133.023 156.852 133.34 157.14C133.407 157.21 133.452 157.298 133.471 157.392C133.489 157.487 133.48 157.585 133.444 157.675C133.408 157.765 133.348 157.842 133.269 157.899C133.19 157.956 133.097 157.989 133 157.994Z" fill="#263238"/>
<path d="M124.12 159.624C124.412 159.533 124.699 159.427 124.98 159.306C125.303 159.238 125.594 159.067 125.81 158.819C125.86 158.726 125.878 158.62 125.861 158.516C125.845 158.412 125.796 158.317 125.72 158.243C125.548 158.123 125.348 158.05 125.139 158.033C124.929 158.015 124.719 158.054 124.53 158.144C124.114 158.264 123.758 158.533 123.53 158.899C123.483 158.987 123.463 159.086 123.473 159.185C123.482 159.284 123.521 159.378 123.584 159.455C123.646 159.533 123.731 159.59 123.826 159.62C123.922 159.65 124.024 159.651 124.12 159.624Z" fill="#263238"/>
<path d="M126.82 162.555C126.82 162.555 126.75 162.615 126.76 162.645C126.94 163.539 127 164.582 126.24 165.009C126.24 165.009 126.24 165.069 126.24 165.059C127.22 164.761 127.13 163.37 126.82 162.555Z" fill="#263238"/>
<path d="M125.86 161.76C124.4 161.899 124.77 164.791 126.13 164.662C127.49 164.533 127.08 161.651 125.86 161.76Z" fill="#263238"/>
<path d="M125.31 161.989C125.07 162.188 124.86 162.506 124.56 162.575C124.26 162.645 123.9 162.386 123.63 162.128C123.7 162.684 123.99 163.221 124.63 163.231C125.27 163.241 125.51 162.694 125.63 162.118C125.51 162.049 125.4 161.909 125.31 161.989Z" fill="#263238"/>
<path d="M131.76 161.562C131.76 161.562 131.84 161.562 131.84 161.631C131.92 162.535 132.17 163.549 133.02 163.757V163.807C132 163.747 131.69 162.386 131.76 161.562Z" fill="#263238"/>
<path d="M132.45 160.488C133.89 160.2 134.36 163.082 133.03 163.35C131.7 163.618 131.25 160.727 132.45 160.488Z" fill="#263238"/>
<path d="M133.09 160.568C133.34 160.687 133.62 160.926 133.89 160.906C134.16 160.886 134.4 160.518 134.55 160.19C134.66 160.737 134.55 161.333 134.05 161.532C133.55 161.731 133.15 161.283 132.93 160.757C132.93 160.697 133 160.568 133.09 160.568Z" fill="#263238"/>
<path d="M127.6 169.838C127.83 170.027 128.08 170.305 128.41 170.305C128.762 170.275 129.103 170.17 129.41 169.997C129.295 170.185 129.131 170.339 128.936 170.442C128.741 170.545 128.521 170.594 128.3 170.584C128.113 170.548 127.94 170.459 127.802 170.329C127.664 170.199 127.566 170.032 127.52 169.848L127.6 169.838Z" fill="#263238"/>
<path d="M130.91 166.073C130.91 166.073 131.28 167.384 131.37 168.06C131.37 168.119 131.23 168.169 131.02 168.219C130.489 168.392 129.921 168.417 129.376 168.293C128.832 168.169 128.332 167.899 127.93 167.513C127.92 167.501 127.914 167.486 127.913 167.471C127.913 167.455 127.917 167.44 127.927 167.427C127.936 167.415 127.949 167.406 127.964 167.401C127.979 167.397 127.995 167.398 128.01 167.404C128.898 167.842 129.904 167.985 130.88 167.811C130.88 167.623 130.16 165.586 130.26 165.566C130.76 165.539 131.261 165.579 131.75 165.685C131.05 162.933 129.9 160.31 129.25 157.557C129.249 157.538 129.254 157.52 129.265 157.504C129.275 157.489 129.291 157.477 129.308 157.47C129.326 157.463 129.345 157.463 129.364 157.468C129.382 157.472 129.398 157.483 129.41 157.498C130.72 160.267 131.748 163.16 132.48 166.132C132.55 166.43 131.18 166.142 130.91 166.073Z" fill="#263238"/>
<path d="M113.13 164.672C116.27 164.453 115.86 159.545 115.86 159.545C115.86 159.545 119.4 158.948 119.21 153.225C119.992 154.317 121.019 155.214 122.21 155.845C123.4 156.476 124.721 156.824 126.07 156.862C127.07 156.931 123.48 154.567 123.48 154.567C123.48 154.567 127.87 157.945 135.37 155.958C135.9 155.819 134.66 147.105 128.47 144.849C122.28 142.594 116.47 145.366 113.1 149.39C113.1 149.39 108.88 151.725 108.71 155.888C108.54 160.051 111.91 164.751 113.13 164.672Z" fill="#263238"/>
<path d="M125 167.672C124.197 167.718 123.397 167.539 122.691 167.156C121.985 166.772 121.402 166.2 121.007 165.504C120.612 164.807 120.422 164.015 120.458 163.216C120.494 162.417 120.754 161.645 121.21 160.986C121.666 160.328 122.298 159.809 123.036 159.49C123.773 159.171 124.586 159.063 125.382 159.18C126.178 159.297 126.925 159.633 127.538 160.151C128.151 160.669 128.605 161.347 128.85 162.108C129.051 162.729 129.107 163.387 129.012 164.033C128.917 164.678 128.674 165.293 128.302 165.831C127.93 166.368 127.439 166.814 126.866 167.133C126.294 167.452 125.655 167.637 125 167.672ZM124.53 159.723C123.754 159.77 123.013 160.055 122.409 160.54C121.804 161.026 121.368 161.686 121.16 162.43C120.951 163.173 120.982 163.963 121.247 164.689C121.513 165.414 121.999 166.039 122.639 166.477C123.279 166.914 124.041 167.142 124.818 167.129C125.594 167.115 126.347 166.861 126.972 166.402C127.596 165.943 128.061 165.302 128.301 164.567C128.541 163.833 128.544 163.043 128.31 162.307C128.065 161.523 127.565 160.841 126.888 160.37C126.211 159.899 125.395 159.664 124.57 159.704L124.53 159.723Z" fill="#3147F5"/>
<path d="M134.76 165.914C133.12 166.013 131.53 164.423 131.13 162.227C130.929 161.18 131.062 160.096 131.51 159.127C131.676 158.699 131.95 158.321 132.307 158.029C132.663 157.737 133.089 157.542 133.544 157.462C133.999 157.382 134.467 157.42 134.902 157.572C135.338 157.725 135.726 157.987 136.03 158.332C136.784 159.09 137.28 160.063 137.45 161.115C137.86 163.44 136.78 165.576 135.04 165.884C134.948 165.904 134.854 165.914 134.76 165.914ZM133.86 157.965H133.64C133.271 158.048 132.928 158.22 132.642 158.466C132.356 158.712 132.135 159.025 132 159.376C131.612 160.239 131.5 161.2 131.68 162.128C132.04 164.115 133.49 165.576 134.92 165.318C136.35 165.059 137.22 163.231 136.86 161.214C136.71 160.281 136.273 159.417 135.61 158.74C135.385 158.504 135.114 158.316 134.813 158.187C134.512 158.059 134.187 157.994 133.86 157.995V157.965Z" fill="#3147F5"/>
<path d="M128.84 162.625L128.4 162.257C128.94 161.601 130.3 160.628 131.53 161.542L131.19 161.999C130.09 161.174 128.89 162.555 128.84 162.625Z" fill="#3147F5"/>
<path d="M110.14 167.017L109.59 166.848C109.67 166.599 110.41 164.354 111.59 163.927C112.77 163.499 120.46 162.933 120.79 162.873V163.45C118.57 163.628 112.62 164.155 111.73 164.443C110.84 164.731 110.34 166.401 110.14 167.017Z" fill="#3147F5"/>
<path d="M115.39 166.45C115.39 166.45 112.24 162.476 110.39 163.619C108.54 164.761 111.09 170.633 113.39 171.329C113.677 171.445 113.985 171.501 114.295 171.494C114.606 171.487 114.911 171.416 115.192 171.287C115.474 171.157 115.725 170.971 115.931 170.741C116.137 170.511 116.293 170.241 116.39 169.948L115.39 166.45Z" fill="#774442"/>
<path d="M113.38 151.168C115.27 149.678 119.3 139.175 110.19 134.555C101.08 129.935 91 141.689 97.76 149.777C102.31 155.202 109.38 154.328 113.38 151.168Z" fill="#263238"/>
<path d="M416.92 362.898C424.1 348.232 436.66 340.711 450.81 344.864C464.96 349.017 467.16 368.641 456.59 373.59C446.02 378.538 435.46 364.081 429.88 361.11C424.3 358.139 416.92 362.898 416.92 362.898Z" fill="#3147F5"/>
<path d="M410 401.918C410 400.149 410.11 398.38 410.17 396.612C410.3 393.084 410.42 389.557 410.55 386.03C410.79 379.581 411.49 373.242 414.18 367.29C416.556 361.896 420.529 357.349 425.57 354.254C427.445 353.135 429.463 352.273 431.57 351.69C433.481 349.77 435.913 348.445 438.57 347.875C441.863 347.212 445.248 347.128 448.57 347.626C448.69 347.626 448.69 347.835 448.57 347.815C445.417 347.418 442.215 347.645 439.15 348.481C437.836 348.841 436.563 349.334 435.35 349.951C434.589 350.361 433.857 350.823 433.16 351.333C436.016 350.743 438.966 350.77 441.81 351.412C442.835 351.664 443.838 351.996 444.81 352.406C445.585 352.241 446.378 352.174 447.17 352.207C448.203 352.243 449.229 352.39 450.23 352.644C452.279 353.22 454.24 354.069 456.06 355.168C456.16 355.228 456.06 355.387 455.96 355.327C454.172 354.358 452.257 353.642 450.27 353.201C449.309 352.983 448.333 352.84 447.35 352.773C446.81 352.744 446.27 352.744 445.73 352.773C449.765 354.621 453.007 357.832 454.88 361.835C454.93 361.944 454.76 362.034 454.72 361.925C453.605 359.603 451.976 357.561 449.955 355.952C447.934 354.344 445.574 353.209 443.05 352.634C442.74 352.555 442.42 352.515 442.11 352.445C442.22 352.902 442.2 353.439 442.26 353.866C442.35 354.582 442.47 355.287 442.62 355.993C442.908 357.447 443.292 358.881 443.77 360.285C444.25 361.708 444.821 363.098 445.48 364.448C446.124 365.86 446.929 367.194 447.88 368.423C447.96 368.522 447.8 368.641 447.73 368.532C446.88 367.211 445.89 365.988 445.11 364.558C444.366 363.247 443.724 361.882 443.19 360.474C442.65 359.043 442.229 357.571 441.93 356.072C441.77 355.287 441.65 354.492 441.56 353.687C441.46 353.211 441.43 352.722 441.47 352.237C439.815 351.988 438.134 351.954 436.47 352.137C437.1 355.635 437.78 359.272 439.75 362.312C439.81 362.411 439.64 362.511 439.58 362.401C438.657 360.802 437.846 359.142 437.15 357.433C436.466 355.804 436.012 354.089 435.8 352.336C432.879 352.726 430.059 353.663 427.49 355.098C422.653 357.896 418.791 362.094 416.42 367.131C413.928 372.554 412.535 378.412 412.32 384.37C411.85 391.862 411.75 399.394 411 406.866C410.95 407.353 410.17 407.522 410.08 406.965C409.891 405.289 409.864 403.599 410 401.918Z" fill="#263238"/>
<path d="M426.56 353.081C427.034 352.511 427.582 352.007 428.19 351.581C428.78 351.104 429.38 350.637 430.01 350.21C431.256 349.364 432.635 348.73 434.09 348.332C434.114 348.325 434.139 348.328 434.161 348.34C434.182 348.352 434.198 348.373 434.205 348.396C434.212 348.42 434.208 348.445 434.196 348.467C434.184 348.488 434.164 348.504 434.14 348.511C432.681 348.888 431.319 349.565 430.14 350.498C429.54 350.935 428.97 351.402 428.41 351.889C427.908 352.406 427.355 352.872 426.76 353.28C426.747 353.293 426.731 353.303 426.714 353.31C426.697 353.317 426.679 353.321 426.66 353.321C426.641 353.321 426.623 353.317 426.606 353.31C426.589 353.303 426.573 353.293 426.56 353.28C426.547 353.267 426.536 353.251 426.529 353.234C426.522 353.217 426.519 353.199 426.519 353.181C426.519 353.162 426.522 353.144 426.529 353.127C426.536 353.11 426.547 353.094 426.56 353.081Z" fill="#263238"/>
<path d="M449.47 358.397C450.657 359.768 451.755 361.212 452.76 362.719C453.74 364.242 454.561 365.86 455.21 367.548C455.21 367.598 455.15 367.628 455.12 367.548C453.477 364.359 451.539 361.328 449.33 358.496C449.25 358.427 449.39 358.298 449.47 358.397Z" fill="#263238"/>
<path d="M434 356.947C434.149 357.863 434.422 358.755 434.81 359.599C435.203 360.414 435.657 361.198 436.17 361.944C436.17 361.994 436.17 362.044 436.09 362.004C434.853 360.589 434.061 358.844 433.81 356.986C433.83 356.867 434 356.827 434 356.947Z" fill="#263238"/>
<path d="M411 363.266C411 363.266 400.84 350.577 381.23 355.068C362.58 359.351 353.98 393.313 372.82 397.377C391.66 401.44 388.34 370.012 395.2 364.677C400.21 360.752 407.45 361.596 411 363.266Z" fill="#3147F5"/>
<path opacity="0.1" d="M411 363.266C411 363.266 400.84 350.577 381.23 355.068C362.58 359.351 353.98 393.313 372.82 397.377C391.66 401.44 388.34 370.012 395.2 364.677C400.21 360.752 407.45 361.596 411 363.266Z" fill="black"/>
<path d="M366.05 373.609C367.315 372.501 368.651 371.475 370.05 370.539C371.38 369.632 372.831 368.913 374.36 368.403C376.514 365.124 379.42 362.399 382.84 360.454C382.647 360.444 382.453 360.444 382.26 360.454C381.221 360.399 380.179 360.399 379.14 360.454C377.048 360.582 374.997 361.09 373.09 361.954C372.98 361.954 372.9 361.825 373.01 361.785C374.933 360.951 376.946 360.341 379.01 359.967C380.02 359.792 381.044 359.705 382.07 359.709C382.62 359.709 383.18 359.709 383.72 359.808H384.04C385.839 358.91 387.734 358.217 389.69 357.741L389.15 357.602C388.191 357.385 387.219 357.225 386.24 357.125C384.288 356.902 382.314 356.932 380.37 357.215C380.35 357.208 380.333 357.195 380.32 357.179C380.308 357.162 380.301 357.141 380.301 357.12C380.301 357.099 380.308 357.079 380.32 357.062C380.333 357.045 380.35 357.032 380.37 357.026C382.337 356.792 384.32 356.713 386.3 356.787C387.96 356.842 389.611 357.055 391.23 357.423C392.414 357.212 393.609 357.076 394.81 357.016C401.65 356.738 409.1 359.271 413.31 364.856C417.52 370.44 418.31 377.912 419.09 384.648C420.239 394.046 420.49 403.531 419.84 412.976C419.84 413.533 419.01 413.434 418.99 412.907C418.74 404.898 418.45 396.89 417.68 388.901C417.32 385.205 416.93 381.499 416.31 377.832C415.861 374.681 414.951 371.611 413.61 368.721C412.148 365.77 409.846 363.31 406.99 361.646C404.116 360.013 400.912 359.036 397.61 358.785C394.651 358.541 391.673 358.817 388.81 359.599C388.911 360.17 388.928 360.753 388.86 361.328C388.798 362.051 388.654 362.764 388.43 363.455C388.215 364.107 387.94 364.739 387.61 365.342C387.24 366.018 386.79 366.614 386.38 367.25C386.32 367.36 386.15 367.25 386.23 367.151C387.06 366 387.598 364.667 387.8 363.266C387.92 362.609 388 361.945 388.04 361.279C388.04 360.772 388.04 360.285 388.04 359.768C384.928 360.718 382.024 362.241 379.48 364.259C379 364.647 378.54 365.044 378.09 365.462C378.736 366.042 379.294 366.712 379.75 367.449C380.422 368.423 381.007 369.454 381.5 370.529C382.407 372.7 383.015 374.983 383.31 377.316C383.31 377.435 383.14 377.465 383.13 377.316C382.768 375.064 382.013 372.891 380.9 370.897C380.38 369.908 379.799 368.952 379.16 368.035C378.83 367.568 378.48 367.101 378.16 366.654C377.97 366.416 377.75 366.167 377.57 365.909C375.255 368.188 373.369 370.86 372 373.798C372.923 374.772 373.695 375.877 374.29 377.077C374.996 378.334 375.611 379.639 376.13 380.982C377.081 383.579 377.862 386.234 378.47 388.931C378.47 389.04 378.31 389.08 378.29 388.931C377.695 386.216 376.761 383.586 375.51 381.101C374.923 379.876 374.303 378.673 373.65 377.494C372.972 376.394 372.358 375.256 371.81 374.086C370.498 376.93 369.738 379.994 369.57 383.118C369.57 383.238 369.37 383.218 369.38 383.118C369.74 378.224 371.246 373.48 373.78 369.267C372.59 369.774 371.38 370.261 370.23 370.877C368.756 371.655 367.385 372.613 366.15 373.729C366.08 373.838 366 373.689 366.05 373.609Z" fill="#263238"/>
<path d="M380.43 374.335C381.02 376.252 381.76 378.12 382.29 380.068C382.833 381.933 383.126 383.86 383.16 385.801C383.16 385.851 383.07 385.851 383.07 385.801C382.535 381.909 381.594 378.083 380.26 374.384C380.254 374.373 380.251 374.36 380.251 374.347C380.25 374.334 380.253 374.321 380.258 374.309C380.263 374.297 380.271 374.286 380.281 374.277C380.291 374.269 380.303 374.262 380.315 374.259C380.328 374.255 380.341 374.254 380.354 374.256C380.367 374.258 380.38 374.263 380.391 374.27C380.402 374.277 380.411 374.287 380.418 374.298C380.424 374.309 380.429 374.322 380.43 374.335Z" fill="#263238"/>
<path d="M368 369.555C368.771 368.819 369.647 368.2 370.6 367.717C371.567 367.278 372.571 366.922 373.6 366.654C373.72 366.654 373.76 366.813 373.6 366.843C372.584 367.105 371.609 367.503 370.7 368.025C369.775 368.503 368.885 369.048 368.04 369.655C368.029 369.654 368.018 369.65 368.009 369.643C368 369.637 367.993 369.628 367.989 369.617C367.985 369.607 367.984 369.596 367.986 369.585C367.988 369.574 367.993 369.564 368 369.555Z" fill="#263238"/>
<path d="M401.32 346.305C401.32 346.305 399.44 323.511 382.38 316.119C368.14 309.948 359.98 325.846 370.05 335.584C378.2 343.463 391.26 339.906 401.32 346.305Z" fill="#3147F5"/>
<path opacity="0.1" d="M401.32 346.305C401.32 346.305 399.44 323.511 382.38 316.119C368.14 309.948 359.98 325.846 370.05 335.584C378.2 343.463 391.26 339.906 401.32 346.305Z" fill="black"/>
<path d="M373.21 320.54C375.804 321.584 378.335 322.775 380.79 324.107C382.833 325.28 384.8 326.577 386.68 327.993C386.4 327.416 386.15 326.82 385.87 326.254C385.42 325.369 384.95 324.515 384.42 323.68C383.37 321.954 382.107 320.366 380.66 318.951C380.57 318.871 380.66 318.732 380.8 318.821C382.239 320.237 383.559 321.765 384.75 323.392C385.341 324.221 385.881 325.084 386.37 325.975C386.875 326.792 387.262 327.675 387.52 328.599L387.71 328.738C390.688 331.109 393.419 333.772 395.86 336.687C395.81 336.468 395.76 336.24 395.7 336.031C395.38 334.918 395.04 333.825 394.7 332.722C393.964 330.384 392.929 328.15 391.62 326.075C391.55 325.975 391.72 325.876 391.78 325.985C393.12 328.06 394.313 330.225 395.35 332.464C395.824 333.561 396.218 334.69 396.53 335.842C396.778 336.587 396.962 337.352 397.08 338.127C397.83 339.061 398.56 340.005 399.25 340.979C406.57 351.343 410.25 363.832 411.13 376.402C411.388 380.142 411.452 383.893 411.32 387.639C411.293 391.416 410.958 395.184 410.32 398.907C410.27 399.145 409.9 399.076 409.91 398.847C409.99 395.549 410.34 392.27 410.4 388.971C410.46 385.672 410.35 382.363 410.08 379.035C409.539 372.456 408.292 365.954 406.36 359.639C404.368 353.172 401.434 347.029 397.65 341.406C396.94 341.267 396.22 341.069 395.52 340.89L393 340.214C391.364 339.789 389.773 339.207 388.25 338.475C388.14 338.425 388.25 338.257 388.35 338.316C389.854 339.13 391.482 339.691 393.17 339.976C394.5 340.234 395.89 340.413 397.23 340.711C395.99 338.922 394.657 337.197 393.23 335.534C389.979 335.829 386.702 335.587 383.53 334.819C381.832 334.412 380.162 333.898 378.53 333.279C376.82 332.623 375.2 331.778 373.53 331.083C373.4 331.033 373.53 330.844 373.6 330.914C376.655 332.57 379.991 333.654 383.44 334.113C386.486 334.598 389.565 334.851 392.65 334.868C391.43 333.487 390.18 332.146 388.85 330.894C384.37 326.661 379.04 322.756 373.14 320.729C373 320.67 373.1 320.54 373.21 320.54Z" fill="#263238"/>
<path d="M387.09 320.6C387.857 321.564 388.555 322.58 389.18 323.64C389.819 324.757 390.322 325.944 390.68 327.178C390.68 327.178 390.63 327.237 390.62 327.178C390.05 326.055 389.57 324.892 388.99 323.78C388.439 322.683 387.769 321.65 386.99 320.699C386.88 320.64 387 320.54 387.09 320.6Z" fill="#263238"/>
<path d="M371.23 328.191C372.337 328.798 373.507 329.285 374.72 329.642C375.889 330.043 377.081 330.375 378.29 330.635V330.735C377.034 330.602 375.797 330.332 374.6 329.93C373.418 329.49 372.266 328.976 371.15 328.39C371 328.3 371.12 328.132 371.23 328.191Z" fill="#263238"/>
<path d="M414.58 342.201C414.68 343.195 417.16 333.924 431.58 325.697C444.68 318.235 460.31 298.81 447.47 286.539C437.1 276.632 409.79 298.224 414.58 342.201Z" fill="#3147F5"/>
<path d="M404.65 395.31C404.858 385.67 405.623 376.049 406.94 366.495C408.068 357.714 410.098 349.071 413 340.701C414.07 337.72 415.3 334.739 416.63 331.758C416.555 330.623 416.575 329.483 416.69 328.35C416.76 326.89 416.89 325.429 417.03 323.978C417.17 322.528 417.31 321.067 417.49 319.616C417.67 318.166 417.97 316.715 418.03 315.264C418.03 315.135 418.25 315.165 418.21 315.264C417.925 316.79 417.755 318.334 417.7 319.885C417.59 321.286 417.51 322.697 417.46 324.107C417.41 325.518 417.46 326.929 417.46 328.34C417.46 328.847 417.46 329.384 417.51 329.93C418.87 327.078 420.32 324.276 421.9 321.544C420.9 315.582 422.19 309.392 423.41 303.579C423.41 303.47 423.61 303.52 423.59 303.639C422.988 306.674 422.67 309.757 422.64 312.85C422.58 315.284 422.7 317.728 422.71 320.163C423.05 319.577 423.4 318.99 423.71 318.414C425.583 315.387 427.583 312.423 429.71 309.521C429.541 308.111 429.588 306.684 429.85 305.288C430.09 303.722 430.44 302.175 430.9 300.658C431.36 299.138 431.9 297.677 432.5 296.187C433.1 294.696 433.95 293.256 434.56 291.745C434.562 291.732 434.568 291.719 434.576 291.708C434.584 291.697 434.594 291.688 434.606 291.682C434.618 291.675 434.631 291.672 434.645 291.671C434.659 291.67 434.672 291.673 434.685 291.678C434.697 291.684 434.708 291.692 434.717 291.702C434.726 291.713 434.733 291.725 434.736 291.738C434.739 291.751 434.74 291.765 434.737 291.778C434.734 291.792 434.728 291.804 434.72 291.815C433.959 293.247 433.356 294.756 432.92 296.316C432.441 297.78 432.047 299.269 431.74 300.777C431.43 302.278 431.18 303.758 430.97 305.318C430.83 306.312 430.74 307.375 430.57 308.388C433.656 304.268 437.027 300.367 440.66 296.713C440.75 296.624 440.87 296.763 440.79 296.843C435.294 302.983 430.386 309.62 426.13 316.665C425.97 316.934 425.82 317.202 425.67 317.47C426.46 316.973 427.37 316.576 428.12 316.169C429.52 315.393 430.923 314.628 432.33 313.873L436.41 311.648C437.11 311.26 437.8 310.863 438.51 310.505C439.362 310.121 440.182 309.67 440.96 309.154C441.07 309.074 441.18 309.243 441.07 309.303C439.68 310.058 438.45 311.19 437.07 312.035C435.69 312.88 434.41 313.784 433 314.579C430.44 316 427.65 317.023 425.13 318.494C423.383 321.541 421.767 324.657 420.28 327.844C421.807 326.87 423.367 325.942 424.96 325.061C425.96 324.495 426.96 323.929 428.05 323.392C429.079 322.918 430.052 322.332 430.95 321.643C430.969 321.634 430.991 321.631 431.012 321.635C431.033 321.639 431.052 321.65 431.067 321.665C431.081 321.681 431.09 321.701 431.093 321.722C431.095 321.743 431.091 321.764 431.08 321.782C429.402 323.283 427.541 324.569 425.54 325.608C423.69 326.691 421.81 327.724 419.89 328.668C418.34 332.017 416.95 335.445 415.71 338.922C409.64 356.003 407.41 374.136 406.34 392.14C406.03 397.516 405.86 402.872 405.8 408.257C405.74 413.642 406.01 418.988 406 424.354C406 424.512 405.74 424.552 405.72 424.354C405.07 419.594 404.95 414.755 404.72 409.956C404.49 405.157 404.54 400.189 404.65 395.31Z" fill="#263238"/>
<path d="M430.85 317.977C433.487 316.812 436.049 315.484 438.52 314.002C441.025 312.598 443.455 311.066 445.8 309.412C445.8 309.412 445.88 309.412 445.85 309.481C443.631 311.254 441.292 312.874 438.85 314.33C436.292 315.752 433.647 317.013 430.93 318.106C430.83 318.186 430.74 318.027 430.85 317.977Z" fill="#263238"/>
<path d="M426.67 298.681C426.89 297.846 427.15 297.031 427.44 296.217C427.433 296.21 427.428 296.202 427.425 296.194C427.421 296.185 427.419 296.176 427.419 296.167C427.419 296.158 427.421 296.148 427.425 296.14C427.428 296.131 427.433 296.124 427.44 296.117C427.62 295.66 427.81 295.203 428 294.746L428.07 294.577L428.18 294.309C428.13 294.468 428.09 294.627 428.04 294.786C428.021 294.873 427.998 294.959 427.97 295.044C427.012 298.232 426.297 301.487 425.83 304.782C425.83 304.881 425.65 304.881 425.66 304.782C425.802 302.721 426.14 300.678 426.67 298.681Z" fill="#263238"/>
<path d="M389.41 398.768L390.44 410.89L393.59 447.862H427.34L430.49 410.89L431.52 398.768H389.41Z" fill="#455A64"/>
<path d="M389.41 398.768L390.44 410.89H430.49L431.52 398.768H389.41Z" fill="#263238"/>
<path d="M386.1 405.534H434.83V393.909H386.1V405.534Z" fill="#455A64"/>
</svg>
