<svg width="520" height="520" viewBox="0 0 520 520" fill="none" xmlns="http://www.w3.org/2000/svg">
<path opacity="0.5" d="M481.39 435.157C470.033 435.157 279.006 436.415 266.994 436.03C266.131 436.03 265.673 434.741 266.526 434.314C274.097 430.57 282.688 431.319 290.55 428.667C295.178 427.107 298.017 424.081 301.231 420.618C303.889 417.586 307.328 415.341 311.173 414.128C314.686 413.069 318.416 412.951 321.989 413.785C325.868 414.71 329.269 416.905 332.93 418.33C342.103 421.793 351.026 418.496 357.578 411.705C362.986 406.11 368.29 400.826 375.643 397.821C381.789 395.294 388.622 394.763 394.779 397.55C401.788 400.722 406.593 407.108 413.176 410.946C420.976 415.511 430.305 414.43 438.927 415.802C447.548 417.175 454.152 424.445 461.713 428.615C464.292 430.05 466.913 431.246 469.95 431.174C471.645 431.174 473.299 430.674 474.973 430.466C477.573 430.144 480.038 430.217 481.796 432.39C482.222 432.91 482.128 435.157 481.39 435.157Z" fill="#EBEBEB"/>
<path d="M273.38 70.4496C262.033 70.4496 71.0061 71.708 58.9941 71.3232C58.1309 71.3232 57.6733 70.0336 58.5261 69.6072C66.0973 65.8632 74.6773 66.612 82.5501 63.96C87.1781 62.4 90.0173 59.3736 93.2205 55.9104C95.8806 52.8808 99.3188 50.6366 103.163 49.4208C106.68 48.362 110.413 48.2437 113.989 49.0776C117.868 50.0032 121.269 52.1976 124.93 53.6224C134.103 57.0856 143.026 53.7888 149.578 46.9976C154.976 41.4024 160.29 36.1192 167.643 33.1136C173.789 30.5864 180.622 30.056 186.779 32.8432C193.778 36.0152 198.593 42.4008 205.166 46.2384C212.976 50.804 222.305 49.7224 230.916 51.0952C239.528 52.468 246.152 59.7376 253.713 63.908C256.292 65.3432 258.913 66.5392 261.95 66.4664C263.635 66.4664 265.299 65.9672 266.963 65.7592C269.573 65.4368 272.038 65.5096 273.785 67.6832C274.212 68.2032 274.128 70.4496 273.38 70.4496Z" fill="#EBEBEB"/>
<path opacity="0.5" d="M193.82 359.58C185.5 359.58 46.0564 360.506 37.2892 360.225C36.6652 360.225 36.322 359.278 36.9564 358.966C42.4788 356.231 48.75 356.782 54.4908 354.806C57.8708 353.662 59.9404 351.458 62.2804 348.92C64.2318 346.71 66.7487 345.074 69.5604 344.188C72.1279 343.415 74.8533 343.329 77.4644 343.938C80.2932 344.614 82.7476 346.237 85.4516 347.256C92.1492 349.783 98.6596 347.381 103.444 342.42C107.396 338.333 111.275 334.474 116.631 332.28C118.822 331.29 121.194 330.761 123.599 330.727C126.004 330.693 128.39 331.154 130.608 332.082C135.725 334.402 139.23 339.061 144.035 341.869C149.734 345.197 156.515 344.406 162.838 345.415C169.161 346.424 173.956 351.718 179.478 354.775C181.273 355.936 183.353 356.58 185.489 356.637C186.727 356.637 187.933 356.273 189.15 356.127C191.053 355.888 192.852 355.94 194.132 357.531C194.423 357.947 194.36 359.58 193.82 359.58Z" fill="#EBEBEB"/>
<path opacity="0.5" d="M481.744 142.979C473.424 142.979 333.981 143.905 325.224 143.624C324.589 143.624 324.257 142.678 324.881 142.366C330.403 139.63 336.674 140.182 342.415 138.206C345.795 137.062 347.865 134.857 350.215 132.319C352.163 130.106 354.681 128.469 357.495 127.587C360.062 126.814 362.788 126.728 365.399 127.338C368.228 128.014 370.692 129.636 373.386 130.655C380.084 133.182 386.594 130.78 391.378 125.819C395.33 121.732 399.209 117.874 404.565 115.679C406.757 114.689 409.129 114.16 411.534 114.126C413.938 114.092 416.324 114.554 418.543 115.482C423.66 117.801 427.165 122.46 431.969 125.268C437.669 128.596 444.449 127.806 450.772 128.814C457.096 129.823 461.89 135.117 467.412 138.174C469.207 139.335 471.287 139.979 473.424 140.036C474.661 140.036 475.868 139.672 477.095 139.526C478.988 139.287 480.797 139.339 482.066 140.93C482.347 141.346 482.284 142.979 481.744 142.979Z" fill="#EBEBEB"/>
<path d="M299.411 480.48C291.091 480.48 151.648 481.406 142.891 481.125C142.256 481.125 141.924 480.178 142.548 479.866C148.07 477.131 154.341 477.682 160.082 475.706C163.462 474.562 165.532 472.358 167.882 469.82C169.83 467.607 172.348 465.97 175.162 465.088C177.729 464.315 180.455 464.229 183.066 464.838C185.895 465.514 188.36 467.137 191.053 468.156C197.751 470.683 204.261 468.281 209.045 463.32C212.997 459.233 216.876 455.385 222.232 453.18C224.425 452.192 226.796 451.665 229.201 451.631C231.605 451.597 233.991 452.057 236.21 452.982C241.327 455.302 244.832 459.961 249.636 462.769C255.336 466.097 262.116 465.306 268.44 466.315C274.763 467.324 279.557 472.618 285.08 475.675C286.874 476.836 288.954 477.48 291.091 477.537C292.328 477.537 293.535 477.173 294.762 477.027C296.655 476.788 298.464 476.84 299.744 478.431C299.983 478.795 299.983 480.48 299.411 480.48Z" fill="#EBEBEB"/>
<path opacity="0.5" d="M360.303 187.938C351.983 187.938 212.55 188.864 203.783 188.583C203.148 188.583 202.816 187.637 203.44 187.325C208.962 184.59 215.233 185.141 220.974 183.165C224.354 182.021 226.424 179.816 228.774 177.278C230.724 175.066 233.241 173.43 236.054 172.546C238.618 171.773 241.34 171.687 243.948 172.297C246.787 172.973 249.241 174.595 251.935 175.614C258.643 178.142 265.153 175.739 269.937 170.778C273.879 166.691 277.758 162.833 283.124 160.638C285.315 159.65 287.685 159.123 290.087 159.089C292.49 159.055 294.874 159.515 297.092 160.441C302.208 162.76 305.724 167.419 310.528 170.227C316.217 173.555 323.008 172.765 329.321 173.774C335.634 174.782 340.449 180.076 345.961 183.134C347.759 184.296 349.843 184.94 351.983 184.995C353.21 184.995 354.427 184.631 355.644 184.486C357.536 184.246 359.346 184.298 360.625 185.89C360.927 186.306 360.854 187.938 360.303 187.938Z" fill="#EBEBEB"/>
<path d="M198.749 168.792C198.749 168.792 199.051 166.067 199.716 160.472C200.351 155.272 202.046 141.679 205.145 136.167C213.299 121.68 234.036 118.331 247.993 105.934C255.627 99.1432 255.523 95.8152 257.915 96.1688C260.307 96.5224 258.456 113.963 245.04 122.886C245.04 122.886 252.226 125.206 252.226 127.608C252.226 130.01 246.173 132.028 241.972 131.872C241.972 131.872 248.981 138.518 247.868 141.544C246.756 144.57 238.768 143.468 235.492 142.158C235.492 142.158 239.486 146.921 238.248 149.084C236.345 152.422 228.795 148.71 228.795 148.71C228.795 148.71 231.26 152.006 229.928 153.348C228.108 155.168 221.983 152.672 221.983 152.672C221.983 152.672 220.943 159.567 212.956 156.832C212.956 156.832 211.583 162.032 205.676 159.349C204.247 160.621 203.129 162.204 202.41 163.977C201.568 166.462 199.789 168.99 198.749 168.792Z" fill="#EBEBEB"/>
<path d="M201.245 161.887C201.498 161.327 201.888 160.841 202.379 160.472C203.783 159.287 205.208 157.654 204.459 155.272L204.303 155.543C206.674 155.678 208.556 153.982 207.953 150.727C207.795 149.9 207.562 149.089 207.256 148.304L206.872 148.783C213.715 153.504 214.952 149.823 211.032 142.272L210.522 142.948C217.532 148.408 220.548 147.951 216.637 137.02L216.128 137.665C216.66 137.971 217.24 138.186 217.844 138.299C221.598 139.038 222.742 134.951 223.335 131.103C223.477 129.83 223.884 128.601 224.531 127.496C225.178 126.39 226.049 125.433 227.089 124.686C229.022 123.493 231.226 122.809 233.496 122.699C234.61 122.606 235.73 122.606 236.844 122.699C235.736 122.502 234.61 122.419 233.485 122.45C228.795 122.512 223.938 124.322 222.721 130.863C222.305 132.943 221.983 135.023 220.787 136.427C219.591 137.831 217.833 137.519 216.46 136.76L215.524 136.24L215.951 137.405C216.388 138.622 218.416 144.571 217.23 145.288C215.587 145.694 212.384 143.208 210.917 142.106L209.482 140.962C210.366 142.75 213.049 147.493 212.425 149.552C211.593 150.925 208.13 148.772 207.111 148.117L206.383 147.68C207.048 149.334 207.974 151.341 207.423 153.213C207.164 153.867 206.696 154.417 206.093 154.778C205.489 155.139 204.783 155.291 204.084 155.21C205 157.571 203.689 159.068 202.316 160.41C201.85 160.819 201.493 161.337 201.276 161.918L201.245 161.887Z" fill="#C7C7C7"/>
<path d="M223.096 138.154C223.507 139.252 223.854 140.374 224.136 141.513C224.417 142.472 224.463 143.485 224.271 144.466C223.335 146.546 220.485 145.777 218.967 145.278L218.551 145.122C218.809 146.196 218.959 147.293 218.998 148.398C219.123 152.35 215.119 150.03 213.6 149.074L213.767 149.77C214.089 151.05 214.422 153.66 212.987 153.858C211.593 153.745 210.253 153.272 209.097 152.485L208.848 152.339C209.232 153.712 208.993 155.459 207.891 156.125C207.576 156.339 207.223 156.491 206.851 156.572C208.536 156.406 209.513 154.69 209.139 152.589L208.962 152.776C210.189 153.504 212.238 154.856 213.569 154.19C214.828 153.254 214.536 151.07 214.214 149.573L213.871 149.947C214.853 150.627 215.977 151.075 217.157 151.258C220.007 151.57 219.664 147.909 219.102 145.486L218.8 145.87C220.527 146.411 223.553 147.108 224.541 144.654C225.072 142.771 223.803 139.818 223.116 138.154H223.096Z" fill="#C7C7C7"/>
<path d="M204.032 143.676C204.854 138.029 208.328 133.11 212.352 129.251C216.086 125.934 220.568 123.594 224.832 121.16C228.888 118.976 234.702 115.96 238.644 113.651C243.126 111.01 247.723 108.378 251.124 104.385C249.708 106.603 247.945 108.58 245.903 110.24C241.742 113.494 237.317 116.395 232.674 118.914C228.108 121.493 223.439 123.895 218.936 126.558C216.684 127.792 214.568 129.259 212.623 130.936C208.64 134.306 205.673 138.717 204.053 143.676H204.032Z" fill="white"/>
<path d="M216.492 156.801C216.492 156.801 229.419 144.321 218.572 129.386C207.725 114.452 192.177 124.01 192.177 124.01C197.227 136.905 205.619 148.223 216.492 156.801Z" fill="#DBDBDB"/>
<path d="M216.481 156.801C205.63 148.214 197.257 136.897 192.218 124.01C192.218 124.01 209.097 136.386 216.481 156.801Z" fill="#DBDBDB"/>
<path d="M215.878 131.414C216.018 131.611 216.195 131.778 216.399 131.905C216.603 132.033 216.831 132.119 217.069 132.159C217.306 132.198 217.55 132.191 217.784 132.136C218.019 132.082 218.241 131.981 218.436 131.841L220.516 130.333C220.714 130.193 220.882 130.015 221.011 129.811C221.14 129.606 221.227 129.377 221.268 129.139C221.308 128.9 221.301 128.656 221.247 128.42C221.193 128.184 221.093 127.961 220.953 127.764C220.813 127.567 220.635 127.4 220.429 127.272C220.224 127.144 219.996 127.058 219.757 127.019C219.519 126.979 219.275 126.987 219.039 127.041C218.804 127.096 218.581 127.197 218.384 127.338L216.252 128.846C215.863 129.137 215.606 129.571 215.535 130.053C215.465 130.534 215.588 131.024 215.878 131.414Z" fill="#DBDBDB"/>
<path opacity="0.4" d="M215.878 131.414C216.018 131.611 216.195 131.778 216.399 131.905C216.603 132.033 216.831 132.119 217.069 132.159C217.306 132.198 217.55 132.191 217.784 132.136C218.019 132.082 218.241 131.981 218.436 131.841L220.516 130.333C220.714 130.193 220.882 130.015 221.011 129.811C221.14 129.606 221.227 129.377 221.268 129.139C221.308 128.9 221.301 128.656 221.247 128.42C221.193 128.184 221.093 127.961 220.953 127.764C220.813 127.567 220.635 127.4 220.429 127.272C220.224 127.144 219.996 127.058 219.757 127.019C219.519 126.979 219.275 126.987 219.039 127.041C218.804 127.096 218.581 127.197 218.384 127.338L216.252 128.846C215.863 129.137 215.606 129.571 215.535 130.053C215.465 130.534 215.588 131.024 215.878 131.414Z" fill="white"/>
<path opacity="0.2" d="M216.481 156.801C205.63 148.214 197.257 136.897 192.218 124.01C192.218 124.01 209.097 136.386 216.481 156.801Z" fill="black"/>
<path d="M200.07 144.102C200.21 144.299 200.387 144.466 200.591 144.593C200.795 144.721 201.023 144.807 201.261 144.847C201.498 144.887 201.741 144.879 201.976 144.824C202.211 144.77 202.432 144.669 202.628 144.529L209.992 139.329L207.86 136.323L200.507 141.523C200.308 141.663 200.138 141.841 200.009 142.047C199.879 142.253 199.791 142.482 199.75 142.722C199.71 142.962 199.717 143.207 199.772 143.444C199.827 143.681 199.928 143.905 200.07 144.102Z" fill="#DBDBDB"/>
<path opacity="0.3" d="M200.07 144.102C200.21 144.299 200.387 144.466 200.591 144.593C200.795 144.721 201.023 144.807 201.261 144.847C201.498 144.887 201.741 144.879 201.976 144.824C202.211 144.77 202.432 144.669 202.628 144.529L209.992 139.329L207.86 136.323L200.507 141.523C200.308 141.663 200.138 141.841 200.009 142.047C199.879 142.253 199.791 142.482 199.75 142.722C199.71 142.962 199.717 143.207 199.772 143.444C199.827 143.681 199.928 143.905 200.07 144.102Z" fill="black"/>
<path d="M216.481 156.801C209.097 136.386 192.218 124.01 192.218 124.01C192.218 124.01 207.818 114.452 218.613 129.386C229.408 144.321 216.481 156.801 216.481 156.801Z" fill="#DBDBDB"/>
<path opacity="0.4" d="M216.481 156.801C209.097 136.386 192.218 124.01 192.218 124.01C192.218 124.01 207.818 114.452 218.613 129.386C229.408 144.321 216.481 156.801 216.481 156.801Z" fill="white"/>
<g opacity="0.3">
<path d="M215.868 126.183C209.711 124.228 202.483 127.119 198.292 129.303C197.033 128.076 195.9 127.047 194.974 126.183C207.454 119.881 215.441 125.778 215.847 126.079L215.868 126.183Z" fill="white"/>
<path d="M216.908 127.265C211.237 127.465 205.701 129.054 200.788 131.893C200.413 131.487 200.039 131.103 199.675 130.728C204.948 127.888 210.947 126.683 216.908 127.265Z" fill="white"/>
</g>
<path opacity="0.1" d="M216.491 156.801C213.434 148.698 208.954 141.207 203.263 134.68C206.383 138.237 214.817 147.16 218.041 146.266C220.808 145.527 222.295 137.946 220.631 132.746C227.547 146.12 216.491 156.801 216.491 156.801Z" fill="black"/>
<path d="M117.588 160.867C116.683 166.422 116.886 172.1 118.186 177.576C119.487 183.051 121.858 188.215 125.163 192.769C128.469 197.324 132.643 201.179 137.446 204.113C142.248 207.046 147.584 209 153.145 209.862L167.445 212.16L178.22 127.483L168.943 125.996C168.25 125.837 167.522 125.701 166.759 125.59C161.212 124.657 155.535 124.831 150.055 126.102C144.575 127.372 139.401 129.715 134.83 132.994C130.26 136.273 126.383 140.424 123.424 145.208C120.465 149.991 118.481 155.313 117.588 160.867Z" fill="#DBDBDB"/>
<path opacity="0.2" d="M117.588 160.867C116.683 166.422 116.886 172.1 118.186 177.576C119.487 183.051 121.858 188.215 125.163 192.769C128.469 197.324 132.643 201.179 137.446 204.113C142.248 207.046 147.584 209 153.145 209.862L167.445 212.16L178.22 127.483L168.943 125.996C168.25 125.837 167.522 125.701 166.759 125.59C161.212 124.657 155.535 124.831 150.055 126.102C144.575 127.372 139.401 129.715 134.83 132.994C130.26 136.273 126.383 140.424 123.424 145.208C120.465 149.991 118.481 155.313 117.588 160.867Z" fill="black"/>
<g opacity="0.05">
<path d="M169.078 199.368H131.087C127.756 196.365 124.92 192.855 122.684 188.968H170.399L169.078 199.368Z" fill="black"/>
<path d="M170.752 186.16L121.207 186.108C120.708 185.068 120.26 184.028 119.844 182.988L171.158 183.04L170.752 186.16Z" fill="black"/>
</g>
<path d="M210.213 173.063C212.314 149.526 196.374 128.872 174.611 126.93C152.849 124.987 133.504 142.493 131.403 166.029C129.302 189.565 145.242 210.22 167.005 212.162C188.767 214.104 208.112 196.599 210.213 173.063Z" fill="#DBDBDB"/>
<path opacity="0.1" d="M210.024 174.172C212.028 151.717 197.258 132.05 177.034 130.245C156.81 128.44 138.791 145.18 136.787 167.635C134.783 190.09 149.553 209.757 169.776 211.562C190 213.367 208.019 196.627 210.024 174.172Z" fill="black"/>
<path d="M207.714 173.965C209.591 152.929 195.752 134.505 176.804 132.814C157.856 131.123 140.974 146.805 139.097 167.842C137.219 188.878 151.058 207.302 170.006 208.993C188.954 210.684 205.836 195.002 207.714 173.965Z" fill="white"/>
<path opacity="0.5" d="M207.87 169.031C190.699 176.571 162.484 188.947 146.739 195.666C143.304 191.04 140.932 185.713 139.792 180.066L194.756 140.41C198.814 144.005 202.077 148.407 204.335 153.336C206.593 158.264 207.797 163.61 207.87 169.031Z" fill="#EBEBEB"/>
<path opacity="0.5" d="M207.059 178.485C206.244 182.626 204.799 186.617 202.774 190.32L156.785 204.734C155.045 203.703 153.402 202.516 151.876 201.188C166.01 195.343 191.823 184.735 207.059 178.485Z" fill="#EBEBEB"/>
<path d="M179.343 137.01L178.76 140.504L178.448 140.442H178.126L178.708 136.937L179.343 137.01Z" fill="#263238"/>
<path d="M164.419 141.856L163.805 142.116L162.765 138.798L163.379 138.549L164.419 141.856Z" fill="#263238"/>
<path d="M152.438 151.008C152.292 151.185 152.157 151.372 152.022 151.559L149.588 149.302L150.004 148.751L152.438 151.008Z" fill="#263238"/>
<path d="M146.063 165.828C146.063 165.953 146.063 166.067 146.011 166.182L142.891 165.599L143.005 164.892L146.125 165.474L146.063 165.828Z" fill="#263238"/>
<path d="M147.259 182.073L144.243 183.321L144.024 182.645L147.04 181.407C147.103 181.626 147.176 181.854 147.259 182.073Z" fill="#263238"/>
<path d="M155.558 194.969L153.478 197.704L152.989 197.246L155.069 194.511C155.225 194.678 155.423 194.823 155.558 194.969Z" fill="#263238"/>
<path d="M168.641 201.417L168.059 204.911L167.424 204.797L168.007 201.292L168.319 201.354L168.641 201.417Z" fill="#263238"/>
<path d="M184.064 203.008L183.461 203.258L182.421 199.94L183.035 199.69L184.064 203.008Z" fill="#263238"/>
<path d="M197.22 192.493L196.804 193.045L194.371 190.798L194.797 190.247L197.22 192.493Z" fill="#263238"/>
<path d="M203.991 176.197L203.876 176.904L200.756 176.321C200.756 176.207 200.756 176.082 200.819 175.968L200.881 175.614L203.991 176.197Z" fill="#263238"/>
<path d="M202.785 159.12L199.769 160.368C199.706 160.139 199.633 159.921 199.561 159.692L202.566 158.454L202.785 159.12Z" fill="#263238"/>
<path d="M193.82 144.56L191.74 147.295L191.24 146.837L193.32 144.102L193.82 144.56Z" fill="#263238"/>
<path d="M192.894 145.797L173.155 174.044L170.68 171.725L192.218 145.163L192.894 145.797Z" fill="#C7C7C7"/>
<path d="M165.469 146.869L175.786 172.474L172.718 173.774L164.627 147.212L165.469 146.869Z" fill="#DBDBDB"/>
<path d="M174.507 171.101C174.493 171.256 174.447 171.406 174.374 171.543C174.3 171.68 174.2 171.801 174.078 171.898C173.957 171.995 173.817 172.066 173.667 172.108C173.518 172.15 173.361 172.161 173.207 172.141C172.902 172.067 172.637 171.876 172.47 171.61C172.303 171.344 172.247 171.023 172.312 170.716C172.326 170.561 172.372 170.411 172.445 170.274C172.519 170.137 172.619 170.016 172.741 169.919C172.862 169.822 173.002 169.751 173.152 169.709C173.302 169.667 173.458 169.656 173.612 169.676C173.916 169.753 174.179 169.944 174.345 170.209C174.512 170.474 174.57 170.794 174.507 171.101Z" fill="#C7C7C7"/>
<path d="M174.33 170.03C174.534 170.31 174.631 170.654 174.602 171C174.573 171.345 174.421 171.669 174.174 171.912C174.058 172.025 173.92 172.111 173.768 172.166C173.616 172.22 173.454 172.241 173.293 172.228C173.132 172.214 172.976 172.165 172.836 172.086C172.695 172.006 172.573 171.897 172.479 171.766C172.274 171.486 172.178 171.14 172.208 170.794C172.239 170.448 172.394 170.124 172.645 169.884C172.76 169.771 172.897 169.685 173.049 169.63C173.2 169.576 173.361 169.555 173.521 169.569C173.681 169.583 173.836 169.631 173.976 169.711C174.116 169.79 174.236 169.899 174.33 170.03Z" fill="#DBDBDB"/>
<path d="M173.8 170.529L188.869 191.1L188.599 191.36L173.009 171.267L173.8 170.529Z" fill="#DBDBDB"/>
<path d="M147.966 131.903C147.719 132.037 147.447 132.118 147.167 132.144C146.888 132.169 146.606 132.138 146.338 132.051C146.071 131.965 145.824 131.825 145.612 131.641C145.401 131.456 145.228 131.231 145.106 130.978L142.194 125.247L145.99 123.323L148.902 129.043C149.035 129.291 149.116 129.563 149.141 129.844C149.166 130.124 149.134 130.406 149.046 130.674C148.959 130.941 148.818 131.188 148.632 131.399C148.446 131.61 148.22 131.782 147.966 131.903Z" fill="#DBDBDB"/>
<path opacity="0.3" d="M147.966 131.903C147.719 132.037 147.447 132.118 147.167 132.144C146.888 132.169 146.606 132.138 146.338 132.051C146.071 131.965 145.824 131.825 145.612 131.641C145.401 131.456 145.228 131.231 145.106 130.978L142.194 125.247L145.99 123.323L148.902 129.043C149.035 129.291 149.116 129.563 149.141 129.844C149.166 130.124 149.134 130.406 149.046 130.674C148.959 130.941 148.818 131.188 148.632 131.399C148.446 131.61 148.22 131.782 147.966 131.903Z" fill="black"/>
<path d="M124.098 136.542C124.098 136.542 117.556 116.782 136.661 107.297C155.766 97.8119 166.613 115.991 166.613 115.991C166.613 115.991 147.768 131.206 124.098 136.542Z" fill="#DBDBDB"/>
<path opacity="0.4" d="M124.098 136.542C124.098 136.542 117.556 116.782 136.661 107.297C155.766 97.8119 166.613 115.991 166.613 115.991C166.613 115.991 147.768 131.206 124.098 136.542Z" fill="white"/>
<g opacity="0.3">
<path d="M132.543 134.16C131.014 134.67 129.423 135.148 127.842 135.574C124.015 117.322 133.812 108.971 134.176 108.659C129.496 117.302 131.409 129.189 132.543 134.16Z" fill="white"/>
<path d="M136.474 132.787L134.592 133.484L134.498 133.12C132.502 124.751 132.905 115.988 135.663 107.838C133.76 116.083 134.04 124.683 136.474 132.787Z" fill="white"/>
</g>
<path opacity="0.1" d="M166.613 115.991C158.706 122.04 150.086 127.094 140.946 131.04C150.129 126.235 158.844 118.924 159.364 114.878C159.635 112.892 158.969 108.638 149.027 104.666C160.373 105.529 166.613 115.991 166.613 115.991Z" fill="black"/>
<path d="M138.377 110.854C138.129 110.987 137.857 111.068 137.577 111.093C137.297 111.117 137.014 111.085 136.747 110.997C136.48 110.91 136.233 110.769 136.021 110.584C135.81 110.398 135.638 110.171 135.517 109.918L134.144 107.214C134.011 106.966 133.93 106.693 133.905 106.413C133.881 106.133 133.913 105.851 134 105.583C134.088 105.316 134.229 105.069 134.414 104.858C134.6 104.646 134.827 104.475 135.08 104.354C135.328 104.221 135.6 104.139 135.881 104.115C136.161 104.09 136.443 104.122 136.711 104.21C136.978 104.297 137.225 104.438 137.436 104.624C137.647 104.809 137.819 105.036 137.94 105.29L139.313 107.994C139.446 108.241 139.527 108.514 139.552 108.794C139.577 109.074 139.545 109.356 139.457 109.624C139.37 109.891 139.229 110.138 139.043 110.349C138.857 110.561 138.631 110.732 138.377 110.854Z" fill="#DBDBDB"/>
<path opacity="0.4" d="M138.377 110.854C138.129 110.987 137.857 111.068 137.577 111.093C137.297 111.117 137.014 111.085 136.747 110.997C136.48 110.91 136.233 110.769 136.021 110.584C135.81 110.398 135.638 110.171 135.517 109.918L134.144 107.214C134.011 106.966 133.93 106.693 133.905 106.413C133.881 106.133 133.913 105.851 134 105.583C134.088 105.316 134.229 105.069 134.414 104.858C134.6 104.646 134.827 104.475 135.08 104.354C135.328 104.221 135.6 104.139 135.881 104.115C136.161 104.09 136.443 104.122 136.711 104.21C136.978 104.297 137.225 104.438 137.436 104.624C137.647 104.809 137.819 105.036 137.94 105.29L139.313 107.994C139.446 108.241 139.527 108.514 139.552 108.794C139.577 109.074 139.545 109.356 139.457 109.624C139.37 109.891 139.229 110.138 139.043 110.349C138.857 110.561 138.631 110.732 138.377 110.854Z" fill="white"/>
<path d="M128.383 161.2C128.383 161.2 128.944 158.298 130.005 152.381C131.045 146.786 133.489 132.319 131.388 125.341C125.876 107.12 100.168 94.4632 86.3773 75.712C78.8269 65.4368 80.1373 62.1087 76.9029 61.4119C73.6685 60.7151 70.0285 79.1959 84.3389 94.1824C84.3389 94.1824 74.2197 93.3399 73.3773 95.7735C72.5349 98.2071 79.7005 102.939 85.1917 104.645C85.1917 104.645 73.8141 108.264 74.2093 111.831C74.6045 115.398 85.3373 117.822 90.0381 117.946C90.0381 117.946 83.2157 120.994 84.0685 123.739C85.3685 127.962 96.4445 127.566 96.4445 127.566C96.4445 127.566 92.1077 129.792 93.3245 131.726C95.0405 134.389 103.849 134.576 103.849 134.576C103.849 134.576 102.809 142.002 114.114 142.782C114.114 142.782 114.114 148.689 122.736 148.574C122.736 148.574 125.19 151.871 125.367 154.721C125.544 157.57 127.01 160.94 128.383 161.2Z" fill="#EBEBEB"/>
<path d="M129.028 153.046C128.843 152.327 128.486 151.663 127.988 151.112C126.573 149.292 125.304 146.952 127.062 144.934L127.166 145.288C124.046 144.362 122.195 141.814 124.108 138.788C124.6 138.004 125.183 137.281 125.845 136.635L126.188 137.29C115.684 139.038 115.341 134.784 123.006 128.835L123.432 129.75C112.46 132.163 108.706 130.354 117.567 121.025L117.993 121.909C117.177 121.98 116.355 121.942 115.549 121.794C110.432 120.869 110.349 116.22 110.921 112.06C111.141 110.588 111.017 109.084 110.559 107.668C110.101 106.251 109.32 104.96 108.28 103.896C106.107 101.771 103.519 100.117 100.677 99.0392C99.2618 98.4558 97.8097 97.966 96.3301 97.5728C97.8527 97.8694 99.351 98.2797 100.812 98.8C106.876 100.953 112.533 104.946 111.847 112.112C111.68 114.358 111.379 116.605 112.429 118.602C113.48 120.598 115.882 121.025 117.931 120.858L119.314 120.754L118.357 121.794C117.317 122.834 112.689 127.951 113.968 129.189C115.955 130.343 120.968 129.189 123.245 128.783L125.512 128.263C123.734 129.688 118.617 133.286 118.721 135.647C119.324 137.415 124.545 136.77 126.105 136.562L127.322 136.386C125.887 137.769 123.994 139.37 124.015 141.513C124.119 143.354 126.095 144.477 127.644 145.007C125.658 147.004 126.823 149.094 128.144 151.07C128.6 151.656 128.904 152.345 129.028 153.078V153.046Z" fill="#C7C7C7"/>
<path d="M108.935 119.309C108.043 120.232 107.219 121.219 106.47 122.262C105.776 123.092 105.358 124.117 105.274 125.195C105.753 127.743 109.725 128.211 111.868 128.378H112.45C111.747 129.338 111.173 130.387 110.745 131.498C109.205 135.45 115.196 134.878 117.505 134.618L117.037 135.242C116.184 136.396 114.842 138.892 116.641 139.734C118.435 140.231 120.313 140.344 122.153 140.067H122.528C121.996 140.646 121.695 141.4 121.682 142.185C121.669 142.971 121.944 143.735 122.455 144.331C122.796 144.686 123.189 144.988 123.62 145.226C123.136 145.053 122.7 144.77 122.344 144.4C121.989 144.03 121.724 143.582 121.571 143.092C121.417 142.602 121.38 142.083 121.461 141.577C121.542 141.07 121.74 140.589 122.039 140.171L122.195 140.442C120.365 140.639 117.245 141.086 115.737 139.828C114.437 138.33 115.57 136.24 116.506 134.867L116.818 135.408C115.252 135.646 113.655 135.597 112.107 135.262C108.301 134.316 110.027 130.77 111.587 128.554L111.837 129.074C109.424 128.866 105.253 128.222 104.827 125.289C104.827 123.157 107.458 120.734 108.987 119.35L108.935 119.309Z" fill="#C7C7C7"/>
<path opacity="0.1" d="M128.383 161.2C126.968 160.94 125.544 157.591 125.367 154.742C125.19 151.892 122.736 148.595 122.736 148.595C114.083 148.71 114.114 142.802 114.114 142.802C102.757 142.022 103.849 134.597 103.849 134.597C106.023 140.452 114.967 141.055 114.967 141.055C117.203 147.857 123.38 147.295 123.38 147.295C124.327 147.937 125.313 148.517 126.334 149.032C127.655 149.656 129.017 141.086 129.724 134.42C130.39 128.118 127.02 116.615 124.524 113.318C127.556 116.866 129.866 120.971 131.326 125.403C133.406 132.361 130.952 146.827 129.943 152.443C128.986 158.309 128.383 161.2 128.383 161.2Z" fill="black"/>
<path d="M85.6388 93.236C79.17 87.1 74.5524 78.0936 75.0204 69.0144C75.1019 67.4791 75.3565 65.958 75.7796 64.48C75.8374 64.1309 75.9883 63.804 76.2164 63.5336C76.8508 62.9928 77.4332 63.8768 77.6828 64.376C78.034 65.051 78.3465 65.7455 78.6188 66.456C78.1716 65.8632 77.7452 65.2392 77.2876 64.6776C77.1316 64.4904 76.8196 64.116 76.6324 64.0744C76.6324 64.0744 76.7364 64.0744 76.726 64.0744C76.6623 64.2733 76.6238 64.4794 76.6116 64.688C75.2284 74.9944 80.0644 84.8328 85.6388 93.2256V93.236Z" fill="white"/>
<path d="M75.4987 95.3679C76.5387 97.3335 78.6811 98.3423 80.4491 99.5279C82.4209 100.669 84.3208 101.929 86.1379 103.303C82.5624 102.953 79.2358 101.316 76.7779 98.6959C76.0395 97.7703 75.2283 96.5639 75.4883 95.3367L75.4987 95.3679Z" fill="white"/>
<path d="M84.6092 106.538C83.2209 107.625 81.7219 108.562 80.1372 109.335C78.702 110.188 77.0172 110.656 75.9772 112.06C75.9257 111.57 75.9934 111.075 76.1745 110.617C76.3556 110.159 76.6447 109.751 77.0172 109.429C78.0214 108.474 79.2045 107.727 80.4985 107.23C81.7925 106.734 83.1718 106.499 84.5572 106.538H84.6092Z" fill="white"/>
<path d="M114 109.377C114.323 111.09 114.466 112.833 114.426 114.577C114.52 116.241 114.145 117.988 114.925 119.506C113.958 119.288 113.396 118.206 113.095 117.343C112.71 116.013 112.592 114.62 112.747 113.244C112.903 111.868 113.328 110.536 114 109.325V109.377Z" fill="white"/>
<path d="M215.101 381.274C239.686 365.446 267.434 348.525 292.747 333.85C268.13 349.679 240.414 366.621 215.101 381.274Z" fill="#263238"/>
<path d="M151.973 466.367C198.773 436.977 251.73 404.643 299.268 376.407C252.468 405.808 199.501 438.131 151.973 466.367Z" fill="#263238"/>
<path d="M280.787 429.01C299.892 416.53 319.486 404.56 339.319 393.266C320.214 405.746 300.62 417.716 280.787 429.01Z" fill="#263238"/>
<path d="M187.468 415.896C206.573 403.416 226.166 391.446 245.999 380.151C226.894 392.631 207.301 404.602 187.468 415.896Z" fill="#263238"/>
<path d="M233.499 429.01C244.312 421.569 255.522 414.723 267.08 408.501C256.261 415.933 245.051 422.779 233.499 429.01Z" fill="#263238"/>
<path d="M333.962 424.07C344.78 416.623 355.99 409.763 367.544 403.52C356.728 410.956 345.518 417.803 333.962 424.029V424.07Z" fill="#263238"/>
<path d="M289.918 351.593C300.742 344.162 311.955 337.316 323.51 331.084C312.692 338.523 301.478 345.369 289.918 351.593Z" fill="#263238"/>
<path d="M410.188 280.873C410.188 280.873 407.952 274.685 403.532 262.059C399.372 250.12 388.733 219.211 389.596 204.1C391.853 164.382 432.891 135.325 449.822 93.9743C459.099 71.3335 455.355 64.2823 460.877 62.5247C466.4 60.7671 480.793 100.204 461.335 133.515C461.335 133.515 479.223 130.936 481.781 136.094C484.34 141.253 473.409 151.975 464.226 156.052C464.226 156.052 486.285 162.968 487.106 170.612C487.928 178.256 469.582 184.33 461.106 184.954C461.106 184.954 474.709 190.986 474.335 196.945C473.773 206.118 453.629 206.107 453.629 206.107C453.629 206.107 462.396 210.569 460.909 214.864C458.933 220.709 443.125 221.79 443.125 221.79C443.125 221.79 448.273 237.692 428.128 240.24C428.128 240.24 430.686 252.928 415.034 253.354C415.034 253.354 411.997 260.634 412.892 266.75C413.786 272.865 412.621 280.186 410.188 280.873Z" fill="#EBEBEB"/>
<path d="M408.253 263.39C408.217 261.921 408.549 260.465 409.221 259.157C410.989 255.133 412.341 250.13 408.264 245.825V246.563C413.464 244.348 415.762 238.721 411.03 232.377C409.83 230.752 408.475 229.248 406.984 227.885L406.652 229.33C426.339 232.273 425.153 223.09 408.804 210.912L408.42 212.898C429.22 217.256 435.252 213.086 415.315 193.721L414.909 195.655C416.377 195.747 417.849 195.595 419.267 195.208C428.117 192.837 426.266 182.832 423.489 173.94C421.524 167.533 421.825 161.002 424.8 156.208C427.689 151.604 431.705 147.813 436.469 145.194C438.769 143.829 441.184 142.667 443.686 141.721C441.104 142.47 438.603 143.473 436.219 144.716C426.204 149.801 417.665 158.808 421.95 174.148C423.198 178.963 424.685 183.778 423.656 188.146C422.564 192.306 418.456 193.606 414.691 193.419L412.143 193.284L414.223 195.364C416.449 197.444 427.067 208.156 425.289 210.964C422.169 213.574 412.673 211.609 408.378 210.777L404.073 209.851C407.879 212.763 418.633 220.116 419.454 225.201C419.101 229.029 409.408 228.041 406.517 227.718L404.239 227.427C407.411 230.287 411.519 233.594 412.382 238.191C412.975 242.153 409.969 244.722 407.307 245.991C411.748 250.151 410.531 254.706 408.981 259.043C408.386 260.425 408.133 261.931 408.243 263.432L408.253 263.39Z" fill="#C7C7C7"/>
<path d="M430.218 189.374C432.234 191.312 434.133 193.368 435.907 195.53C437.3 197.392 438.964 199.41 439.308 201.77C439.516 207.282 432.548 208.593 428.762 209.102L427.722 209.206C429.414 211.234 430.889 213.433 432.121 215.769C436.562 224.141 425.517 223.361 421.243 222.924L422.345 224.234C424.373 226.647 427.847 231.91 424.966 233.854C422.179 235.342 418.456 235.144 415.159 234.988H414.472C416.729 237.515 418.06 241.509 416.396 244.13C415.964 244.924 415.385 245.63 414.691 246.21C418.133 244.067 418.424 239.377 415.398 235.227L415.221 235.82C418.622 236.101 424.425 236.86 426.661 234.01C428.367 230.693 425.455 226.294 423.177 223.413L422.834 224.588C425.663 225 428.549 224.773 431.279 223.922C437.737 221.603 433.12 214.105 429.376 209.466L429.136 210.61C433.411 209.966 440.66 208.27 440.192 201.947C439.339 197.35 433.504 192.338 430.27 189.467L430.218 189.374Z" fill="#C7C7C7"/>
<path d="M395.076 221.312C390.916 208.322 393.163 194.074 397.822 181.501C402.346 170.446 409.522 160.701 416.209 150.914C422.626 141.96 431.892 129.23 437.997 120.245C444.84 109.845 451.944 99.3304 455.136 87.1416C454.523 93.3816 452.287 99.5072 449.718 105.279C444.456 116.802 437.498 127.431 430.426 137.873C423.354 148.314 415.866 158.309 408.96 168.75C405.441 173.815 402.458 179.231 400.058 184.912C395.451 196.352 392.903 209.03 395.076 221.312Z" fill="white"/>
<path d="M435.668 236.402C435.668 236.402 450.301 195.946 411.342 175.24C372.384 154.534 348.942 191.506 348.942 191.506C348.942 191.506 380.974 224.266 435.668 236.402Z" fill="#3147F5"/>
<path d="M435.657 236.402C380.974 224.266 348.952 191.506 348.952 191.506C348.952 191.506 398.269 200.325 435.657 236.402Z" fill="#3147F5"/>
<path d="M407.598 182.478C408.106 182.756 408.663 182.931 409.239 182.992C409.814 183.053 410.396 183 410.951 182.836C411.505 182.672 412.022 182.399 412.471 182.034C412.921 181.67 413.293 181.22 413.568 180.71L416.553 175.209C417.108 174.182 417.233 172.977 416.902 171.859C416.571 170.74 415.809 169.798 414.784 169.239C413.758 168.684 412.553 168.558 411.434 168.89C410.315 169.221 409.373 169.982 408.815 171.007L405.83 176.509C405.275 177.535 405.149 178.74 405.481 179.859C405.812 180.978 406.573 181.92 407.598 182.478Z" fill="#3147F5"/>
<path opacity="0.4" d="M407.598 182.478C408.106 182.756 408.663 182.931 409.239 182.992C409.814 183.053 410.396 183 410.951 182.836C411.505 182.672 412.022 182.399 412.471 182.034C412.921 181.67 413.293 181.22 413.568 180.71L416.553 175.209C417.108 174.182 417.233 172.977 416.902 171.859C416.571 170.74 415.809 169.798 414.784 169.239C413.758 168.684 412.553 168.558 411.434 168.89C410.315 169.221 409.373 169.982 408.815 171.007L405.83 176.509C405.275 177.535 405.149 178.74 405.481 179.859C405.812 180.978 406.573 181.92 407.598 182.478Z" fill="white"/>
<path opacity="0.2" d="M435.657 236.402C380.974 224.266 348.952 191.506 348.952 191.506C348.952 191.506 398.269 200.325 435.657 236.402Z" fill="black"/>
<path d="M388.031 225.449L386.31 224.51C385.507 224.072 384.91 223.332 384.652 222.454C384.394 221.576 384.495 220.632 384.933 219.828L395.761 199.978L403.512 204.206L392.685 224.057C392.249 224.855 391.516 225.45 390.644 225.71C389.773 225.971 388.833 225.877 388.031 225.449Z" fill="#3147F5"/>
<path opacity="0.3" d="M388.031 225.449L386.31 224.51C385.507 224.072 384.91 223.332 384.652 222.454C384.394 221.576 384.495 220.632 384.933 219.828L395.761 199.978L403.512 204.206L392.685 224.057C392.249 224.855 391.516 225.45 390.644 225.71C389.773 225.971 388.833 225.877 388.031 225.449Z" fill="black"/>
<path d="M435.657 236.402C398.269 200.325 348.952 191.506 348.952 191.506C348.952 191.506 372.394 154.523 411.352 175.24C450.311 195.957 435.657 236.402 435.657 236.402Z" fill="#3147F5"/>
<path opacity="0.4" d="M435.657 236.402C398.269 200.325 348.952 191.506 348.952 191.506C348.952 191.506 372.394 154.523 411.352 175.24C450.311 195.957 435.657 236.402 435.657 236.402Z" fill="white"/>
<g opacity="0.3">
<path d="M402.065 171.246C386.777 173.524 374.308 187.366 367.61 196.55C363.616 195.229 360.112 194.21 357.21 193.43C377.376 166.733 400.786 170.986 401.93 171.215L402.065 171.246Z" fill="white"/>
<path d="M405.455 172.484C393.474 178.888 383.249 188.138 375.68 199.42C374.443 198.941 373.226 198.505 372.04 198.078C386.829 178.121 405.455 172.484 405.455 172.484Z" fill="white"/>
</g>
<path opacity="0.1" d="M435.657 236.392C419.017 220.334 399.964 209.653 384 202.769C394.556 207.064 421.95 217.329 427.961 212.129C433.161 207.625 428.315 189.706 419.256 180.253C448.189 201.76 435.657 236.392 435.657 236.392Z" fill="black"/>
<path d="M227.387 349.346C231.302 362.233 237.726 374.219 246.291 384.613C254.856 395.007 265.392 403.605 277.293 409.911C289.194 416.217 302.225 420.107 315.635 421.358C329.045 422.608 342.57 421.194 355.432 417.196L388.608 407.108L322.547 213.772L301.092 220.251C299.386 220.674 297.674 221.149 295.954 221.676C283.045 225.519 271.024 231.878 260.582 240.385C250.14 248.892 241.483 259.381 235.11 271.247C228.738 283.113 224.774 296.122 223.449 309.525C222.123 322.929 223.462 336.462 227.387 349.346Z" fill="#3147F5"/>
<path opacity="0.2" d="M227.387 349.346C231.302 362.233 237.726 374.219 246.291 384.613C254.856 395.007 265.392 403.605 277.293 409.911C289.194 416.217 302.225 420.107 315.635 421.358C329.045 422.608 342.57 421.194 355.432 417.196L388.608 407.108L322.547 213.772L301.092 220.251C299.386 220.674 297.674 221.149 295.954 221.676C283.045 225.519 271.024 231.878 260.582 240.385C250.14 248.892 241.483 259.381 235.11 271.247C228.738 283.113 224.774 296.122 223.449 309.525C222.123 322.929 223.462 336.462 227.387 349.346Z" fill="black"/>
<g opacity="0.05">
<path d="M378.593 377.863L296.911 417.81C286.584 414.859 276.788 410.296 267.885 404.29L370.481 354.11L378.593 377.863Z" fill="black"/>
<path d="M368.296 347.662L261.738 399.776C259.596 398.091 257.516 396.316 255.498 394.451L365.842 340.486L368.296 347.662Z" fill="black"/>
</g>
<path d="M387.657 407.495C436.469 388.738 459.592 330.734 439.305 277.939C419.018 225.144 363.002 197.55 314.191 216.307C265.379 235.063 242.256 293.067 262.543 345.862C282.83 398.657 338.846 426.251 387.657 407.495Z" fill="#3147F5"/>
<path opacity="0.1" d="M392.949 403.365C438.321 385.939 459.417 330.971 440.068 280.59C420.718 230.21 368.251 203.495 322.879 220.921C277.506 238.347 256.41 293.315 275.76 343.695C295.109 394.076 347.576 420.791 392.949 403.365Z" fill="black"/>
<path d="M390.734 397.587C433.238 381.263 453 329.77 434.874 282.575C416.748 235.379 367.597 210.353 325.094 226.678C282.59 243.002 262.828 294.495 280.954 341.69C299.08 388.886 348.23 413.912 390.734 397.587Z" fill="white"/>
<path opacity="0.5" d="M430.031 271.773C401.067 306.093 353.456 362.388 326.717 393.453C314.483 387.142 303.789 378.216 295.393 367.307L371.739 224.162C395.753 230.329 417.343 247.52 430.031 271.773Z" fill="#EBEBEB"/>
<path opacity="0.5" d="M438.247 292.947C440.859 302.706 441.957 312.807 441.502 322.899L357.844 402.324C353.02 401.95 348.241 401.136 343.565 399.89C367.797 372.434 412.122 322.4 438.247 292.947Z" fill="#EBEBEB"/>
<path d="M335.079 232.96L337.502 241.093L336.753 241.29L336.015 241.509L333.581 233.376L335.079 232.96Z" fill="#263238"/>
<path d="M308.018 259.157C307.664 259.542 307.311 259.937 306.978 260.343L301.196 254.332L302.236 253.146L308.018 259.157Z" fill="#263238"/>
<path d="M291.898 291.429C291.784 291.97 291.68 292.469 291.576 293.062L283.952 290.784L284.275 289.151L291.898 291.429Z" fill="#263238"/>
<path d="M293.718 330.054C293.801 330.335 293.884 330.605 293.978 330.876L286.604 332.956L286.105 331.313L293.479 329.233C293.562 329.503 293.645 329.784 293.718 330.054Z" fill="#263238"/>
<path d="M313.489 363.678L308.289 369.522L307.124 368.306L312.324 362.461L313.489 363.678Z" fill="#263238"/>
<path d="M344.928 382.647L343.347 390.707L341.808 390.25L343.388 382.179C343.898 382.356 344.408 382.502 344.928 382.647Z" fill="#263238"/>
<path d="M379.83 382.72L382.264 390.853L380.776 391.269L378.343 383.136L379.092 382.928L379.83 382.72Z" fill="#263238"/>
<path d="M414.67 369.866L413.63 371.051L407.837 365.04C408.191 364.655 408.544 364.26 408.877 363.865L414.67 369.866Z" fill="#263238"/>
<path d="M431.861 333.424L431.549 335.057L423.957 332.779C424.072 332.238 424.176 331.739 424.269 331.146L431.861 333.424Z" fill="#263238"/>
<path d="M429.251 291.262L429.74 292.905L422.366 294.985C422.283 294.705 422.21 294.434 422.127 294.164L421.877 293.342L429.251 291.262Z" fill="#263238"/>
<path d="M408.752 255.902L403.552 261.747C403.168 261.331 402.783 260.936 402.377 260.53L407.577 254.686L408.752 255.902Z" fill="#263238"/>
<path d="M374.048 234L372.467 242.081C371.947 241.904 371.427 241.758 370.928 241.613L372.509 233.542L374.048 234Z" fill="#263238"/>
<path d="M373.361 237.609L360.694 319.124L352.936 316.742L371.25 236.954L373.361 237.609Z" fill="#37474F"/>
<path d="M315.527 268.809L364.708 312.978L359.467 319.01L314.102 270.442L315.527 268.809Z" fill="#455A64"/>
<path d="M360.496 311.386C360.619 311.733 360.672 312.101 360.651 312.468C360.631 312.835 360.538 313.195 360.377 313.526C360.216 313.857 359.992 314.152 359.716 314.396C359.44 314.639 359.118 314.825 358.77 314.943C358.042 315.105 357.279 314.979 356.641 314.591C356.003 314.204 355.54 313.585 355.348 312.863C355.224 312.517 355.17 312.149 355.19 311.781C355.21 311.413 355.303 311.053 355.464 310.722C355.625 310.391 355.85 310.095 356.127 309.852C356.403 309.609 356.726 309.423 357.075 309.306C357.803 309.145 358.566 309.271 359.204 309.658C359.842 310.046 360.305 310.665 360.496 311.386Z" fill="#C7C7C7"/>
<path d="M359.009 309.254C359.743 309.645 360.31 310.287 360.608 311.063C360.906 311.838 360.915 312.695 360.632 313.477C360.504 313.842 360.298 314.175 360.029 314.453C359.76 314.731 359.433 314.947 359.072 315.086C358.711 315.226 358.324 315.285 357.938 315.26C357.552 315.236 357.176 315.127 356.836 314.943C356.102 314.552 355.535 313.91 355.237 313.135C354.939 312.359 354.93 311.502 355.213 310.721C355.341 310.355 355.547 310.022 355.816 309.744C356.085 309.467 356.412 309.25 356.773 309.111C357.134 308.972 357.521 308.912 357.907 308.937C358.293 308.962 358.669 309.07 359.009 309.254Z" fill="#3147F5"/>
<path d="M358.385 310.887L412.445 339.227L412.122 340.07L357.46 313.321L358.385 310.887Z" fill="#3147F5"/>
<path d="M242.747 246.848L248.877 238.705L262.47 248.937C263.2 249.486 263.681 250.303 263.809 251.207C263.936 252.111 263.699 253.029 263.15 253.758L261.161 256.4C260.612 257.13 259.796 257.611 258.892 257.739C257.988 257.866 257.07 257.629 256.341 257.08L242.747 246.848Z" fill="#3147F5"/>
<path opacity="0.3" d="M242.747 246.848L248.877 238.705L262.47 248.937C263.2 249.486 263.681 250.303 263.809 251.207C263.936 252.111 263.699 253.029 263.15 253.758L261.161 256.4C260.612 257.13 259.796 257.611 258.892 257.739C257.988 257.866 257.07 257.629 256.341 257.08L242.747 246.848Z" fill="black"/>
<path d="M215.749 290.16C215.749 290.16 180.878 254.602 211.943 214.073C243.008 173.545 285.46 201.198 285.46 201.198C285.46 201.198 261 253.76 215.749 290.16Z" fill="#3147F5"/>
<path opacity="0.4" d="M215.749 290.16C215.749 290.16 180.878 254.602 211.943 214.073C243.008 173.545 285.46 201.198 285.46 201.198C285.46 201.198 261 253.76 215.749 290.16Z" fill="white"/>
<g opacity="0.3">
<path d="M231.38 276.276C228.614 278.98 225.744 281.663 222.769 284.273C195.303 249.059 207.554 220.833 208.022 219.793C207.086 243.162 223.705 266.697 231.38 276.276Z" fill="white"/>
<path d="M238.4 269.089C237.36 270.254 236.206 271.409 235.072 272.584C234.885 272.355 234.698 272.116 234.5 271.887C212.442 245.013 210.3 216.351 210.3 216.351C217.008 244.109 231.391 261.789 238.4 269.089Z" fill="white"/>
</g>
<path opacity="0.1" d="M285.471 201.25C274.83 222.552 261.605 242.462 246.096 260.53C260.771 240.542 271.805 215.644 268.675 206.388C267.146 201.843 261.249 193.398 235.676 195.343C261.072 185.328 285.471 201.25 285.471 201.25Z" fill="black"/>
<path d="M205.636 209.162L205.223 209.71C203.645 211.807 204.065 214.787 206.162 216.366L212.502 221.138C214.599 222.717 217.579 222.296 219.158 220.199L219.57 219.651C221.149 217.554 220.729 214.574 218.632 212.995L212.292 208.223C210.195 206.644 207.215 207.065 205.636 209.162Z" fill="#3147F5"/>
<path opacity="0.4" d="M205.636 209.162L205.223 209.71C203.645 211.807 204.065 214.787 206.162 216.366L212.502 221.138C214.599 222.717 217.579 222.296 219.158 220.199L219.57 219.651C221.149 217.554 220.729 214.574 218.632 212.995L212.292 208.223C210.195 206.644 207.215 207.065 205.636 209.162Z" fill="white"/>
<path d="M251.036 338.655C251.036 338.655 249.175 331.833 245.223 318.011C241.479 304.928 231.588 271.211 219.722 258.471C188.522 224.994 119.986 224.983 70.586 199.191C43.546 185.068 42.8077 176.55 35.1325 178.443C27.4573 180.336 39.1156 223.891 85.666 241.041C85.666 241.041 63.0357 249.902 63.8261 256.006C64.6165 262.111 84.9589 264.763 98.562 262.631C98.562 262.631 77.9285 282.391 82.5253 289.671C87.1221 296.951 112.748 290.826 122.981 286.135C122.981 286.135 111.541 299.884 116.242 304.855C123.522 312.551 146.88 300.03 146.88 300.03C146.88 300.03 139.923 309.39 144.686 312.27C151.176 316.17 170.301 307.31 170.301 307.31C170.301 307.31 175.782 324.407 201.023 314.122C201.023 314.122 207.169 326.851 225.66 317.502C225.66 317.502 234.407 321.994 237.776 327.902C241.146 333.809 247.708 339.57 251.036 338.655Z" fill="#EBEBEB"/>
<path d="M243.725 320.486C242.8 318.957 241.053 318.229 239.565 317.366C234.625 314.933 229.477 311.365 231.079 305.063L231.672 305.697C223.986 307.008 217.32 303.472 218.256 294.954C218.489 292.752 218.978 290.585 219.712 288.496L221.147 289.536C200.409 304.345 195.147 295.547 205.401 274.705L207.284 276.203C186.245 292.957 176.261 293.03 185.444 263.65L187.305 265.096C185.623 266.102 183.815 266.882 181.929 267.415C169.948 270.816 164.893 260.894 161.721 251.357C160.639 247.965 158.789 244.869 156.314 242.309C153.839 239.749 150.806 237.795 147.453 236.6C140.641 234.125 133.184 233.709 125.977 234.177C122.323 234.421 118.69 234.901 115.098 235.612C118.651 234.668 122.27 233.997 125.925 233.605C141.213 231.857 157.593 234.457 163.656 250.577C165.736 255.59 167.4 260.738 171.747 263.931C176.011 266.905 181.731 265.491 185.953 262.985L188.813 261.289L187.773 264.409C186.733 267.665 182.074 283.618 186.13 284.96C191.601 285.334 201.231 277.68 205.641 274.289L209.967 270.795C207.648 275.714 200.451 288.849 203.155 293.821C206.275 296.941 216.852 290.077 219.972 288.007L222.405 286.333C220.793 290.815 218.401 296.275 220.7 300.841C222.863 304.678 228.209 305.073 232.202 304.543C230.018 310.918 234.729 314.194 239.649 317.023C241.105 317.969 242.769 318.822 243.663 320.403L243.725 320.486Z" fill="#C7C7C7"/>
<path d="M164.987 269.152C164.043 272.075 163.316 275.065 162.813 278.096C162.532 280.592 162.054 283.4 163.333 285.657C167.046 290.617 176.084 287.445 180.847 285.542L182.147 284.981C181.64 287.783 181.511 290.641 181.762 293.477C182.615 303.586 194.876 296.046 199.525 292.999L199.192 294.84C198.568 298.209 198.329 304.99 203.072 304.897C207.377 304.481 211.548 301.995 215.271 299.811L216.04 299.343C215.229 302.973 216.56 307.299 220.377 308.578C221.483 308.986 222.643 309.224 223.82 309.285C218.287 309.556 214.574 305.604 215.094 300.092L215.728 300.497C211.984 302.858 205.755 307.091 201.168 305.989C196.79 304.137 197.008 298.459 197.58 294.549L198.828 295.37C195.721 297.546 192.237 299.126 188.553 300.029C179.391 302.016 179.339 292.562 180.358 286.156L181.46 287.019C176.042 289.099 166.401 292.125 162.397 286.281C160.078 281.715 163.25 273.686 164.956 269.183L164.987 269.152Z" fill="#C7C7C7"/>
<path opacity="0.1" d="M251.037 338.645C247.709 339.57 241.115 333.871 237.735 327.943C234.355 322.015 225.619 317.543 225.619 317.543C207.128 326.903 200.981 314.163 200.981 314.163C175.741 324.449 170.26 307.351 170.26 307.351C181.107 317.637 200.971 309.504 200.971 309.504C212.941 321.766 225.557 313.945 225.557 313.945C228.271 314.335 231.009 314.543 233.752 314.569C237.257 314.517 231.141 294.663 225.629 279.583C220.429 265.335 201.065 244.171 192.277 239.689H192.36C203.051 244.618 212.401 250.63 219.712 258.471C231.589 271.201 241.489 304.938 245.223 318.011C249.175 331.833 251.037 338.645 251.037 338.645Z" fill="black"/>
<path d="M87.4548 237.65C67.0812 231.275 47.6644 216.788 39.1052 196.768C37.6897 193.425 36.6435 189.938 35.9852 186.368C35.7657 185.554 35.7657 184.696 35.9852 183.882C36.7652 182.042 38.9492 183.321 40.0204 184.132C41.4682 185.2 42.857 186.345 44.1804 187.564C42.5892 186.753 41.0604 185.858 39.4484 185.13C38.8093 184.775 38.0983 184.569 37.3684 184.527C37.3684 184.527 37.5868 184.413 37.566 184.423C37.6349 184.92 37.7677 185.406 37.9612 185.869C45.8756 209.435 66.5924 225.472 87.4548 237.65Z" fill="white"/>
<path d="M67.9028 252.907C72.1876 256.027 77.8868 255.944 82.9724 256.703C87.798 257.233 94.4852 257.629 99.1756 258.783C91.1222 261.78 82.2565 261.761 74.2156 258.731C71.6676 257.514 68.6516 255.798 67.9132 252.865L67.9028 252.907Z" fill="white"/>
<path d="M99.2484 267.28C97.4237 271.1 95.1921 274.713 92.5924 278.054C90.4084 281.382 87.2052 284.211 86.5396 288.267C84.99 286.437 85.4476 283.577 86.1028 281.466C87.2513 278.352 89.0039 275.495 91.2599 273.061C93.5159 270.626 96.2307 268.662 99.2484 267.28Z" fill="white"/>
<path d="M165.393 242.455C167.934 245.827 170.103 249.464 171.861 253.302C173.806 256.776 174.857 260.915 178.101 263.369C175.761 263.91 173.432 262.184 171.861 260.634C167.381 255.672 165.054 249.133 165.393 242.455Z" fill="white"/>
</svg>
