<svg width="569" height="519" viewBox="0 0 569 519" fill="none" xmlns="http://www.w3.org/2000/svg">
<path d="M118.693 387.964L95.9334 388.276C88.2974 388.379 80.5932 388.431 72.9117 388.442H72.3882V387.964V376.349V375.83H72.9686L95.8537 375.903L107.302 375.996L118.75 376.121H119.001V376.339L118.693 387.964ZM118.693 387.964L118.443 376.349L118.693 376.577L107.245 376.702L95.7968 376.795L72.9117 376.868L73.4693 376.349V387.964L72.9458 387.487C80.5249 387.487 88.0812 387.549 95.7058 387.653L118.693 387.964Z" fill="#EBEBEB"/>
<path d="M93.1454 390.994H47.3636V402.609H93.1454V390.994Z" fill="#EBEBEB"/>
<path d="M340.353 432.848H294.571V444.463H340.353V432.848Z" fill="#EBEBEB"/>
<path d="M521.636 293.215H475.855V304.83H521.636V293.215Z" fill="#EBEBEB"/>
<path d="M396.718 57.2983L373.958 57.6097C366.322 57.7135 358.618 57.7654 350.925 57.7758H350.402V57.2983V45.6831V45.1641H350.971L373.867 45.2367L385.304 45.3301L396.752 45.4547H397.003V45.6727L396.718 57.2983ZM396.718 57.2983L396.479 45.6727L396.718 45.901L385.27 46.0256L373.833 46.119L350.936 46.1917L351.505 45.6727V57.2879L350.982 56.8104C358.55 56.8104 366.117 56.8727 373.742 56.9765L396.718 57.2983Z" fill="#EBEBEB"/>
<path d="M422.255 60.3301H376.473V71.9453H422.255V60.3301Z" fill="#EBEBEB"/>
<path d="M93.1453 57.2983L70.3853 57.6097C62.7494 57.7135 55.0451 57.7654 47.3522 57.7758H46.8287V57.2983V45.6831V45.1641H47.3977L70.2943 45.2367L81.7426 45.3301L93.1226 45.4547H93.3729V45.6727L93.1453 57.2983ZM93.1453 57.2983L92.9064 45.6727L93.1453 45.901L81.7653 46.0256L70.3171 46.119L47.4205 46.1917L47.9895 45.6727V57.2879L47.466 56.8104C55.0337 56.8104 62.6014 56.8727 70.226 56.9765L93.1453 57.2983Z" fill="#EBEBEB"/>
<path d="M299.909 214.939H254.127V226.555H299.909V214.939Z" fill="#EBEBEB"/>
<path d="M507.65 52.9082H430.733V138.014H507.65V52.9082Z" fill="#EBEBEB"/>
<path d="M498.865 60.6719H439.518V130.239H498.865V60.6719Z" fill="white"/>
<path d="M441.829 60.6719H439.518V130.239H441.829V60.6719Z" fill="#C7C7C7"/>
<path d="M509.961 52.9082H507.65V138.014H509.961V52.9082Z" fill="#C7C7C7"/>
<path d="M470.506 114.783H484.504V76.7613H470.506V114.783Z" fill="#EBEBEB"/>
<path d="M491.184 89.4134H452.731V69.6914H491.184V89.4134ZM453.869 88.3754H490.046V70.7294H453.869V88.3754Z" fill="#EBEBEB"/>
<path d="M507.65 262.635H430.733V347.74H507.65V262.635Z" fill="#EBEBEB"/>
<path d="M498.865 270.41H439.518V339.977H498.865V270.41Z" fill="white"/>
<path d="M441.829 270.41H439.518V339.977H441.829V270.41Z" fill="#C7C7C7"/>
<path d="M509.961 262.635H507.65V347.74H509.961V262.635Z" fill="#C7C7C7"/>
<path d="M473.408 286.5H459.411V324.522H473.408V286.5Z" fill="#EBEBEB"/>
<path d="M491.184 299.153H452.731V279.482H491.184V299.153ZM453.869 298.115H490.046V280.52H453.869V298.115Z" fill="#EBEBEB"/>
<path d="M507.65 158.16H430.733V243.266H507.65V158.16Z" fill="#EBEBEB"/>
<path d="M498.865 165.926H439.518V235.493H498.865V165.926Z" fill="white"/>
<path d="M441.829 165.926H439.518V235.493H441.829V165.926Z" fill="#C7C7C7"/>
<path d="M509.961 158.16H507.65V243.266H509.961V158.16Z" fill="#C7C7C7"/>
<path d="M475.422 183.902H463.439V211.544H475.422V183.902Z" fill="#EBEBEB"/>
<path d="M488.623 220.285H455.28V200.189H488.623V220.285ZM456.418 219.247H487.485V201.227H456.418V219.247Z" fill="#DBDBDB"/>
<path d="M88.5364 356.811C107.37 373.679 110.534 399.629 106.562 422.465C106.46 422.984 105.584 422.839 105.584 422.361C105.584 417.171 105.754 411.981 105.732 406.905C105.629 406.667 105.55 406.449 105.447 406.21C100.531 402.95 96.0017 399.266 93.2022 394.221C90.0613 388.574 88.8209 382.211 86.3742 376.315C86.1466 375.755 86.8067 375.921 87.2391 376.212C98.6988 383.914 102.352 392.207 105.641 403.293C105.569 397.498 104.902 391.723 103.649 386.041C101.168 375.516 96.2748 365.095 87.9902 357.289C87.9558 357.256 87.9288 357.218 87.9108 357.175C87.8928 357.133 87.884 357.088 87.8851 357.043C87.8862 356.997 87.897 356.953 87.917 356.911C87.9369 356.87 87.9657 356.832 88.0016 356.801C88.0374 356.77 88.0797 356.745 88.126 356.729C88.1723 356.712 88.2217 356.704 88.2713 356.705C88.321 356.706 88.37 356.716 88.4155 356.734C88.4609 356.752 88.502 356.779 88.5364 356.811Z" fill="#263238"/>
<path d="M84.9973 358.775C81.754 358.878 79.7169 363.601 77.1906 365.003C76.9252 365.198 76.6178 365.341 76.2882 365.421C75.9586 365.501 75.6142 365.517 75.2773 365.468C74.9404 365.419 74.6186 365.306 74.3326 365.137C74.0466 364.967 73.8029 364.745 73.6173 364.484C71.1137 361.297 74.5504 357.373 77.7823 355.142C75.5063 356.003 73.5604 357.529 71.0681 357.955C70.7498 358.052 70.4121 358.085 70.0783 358.052C69.7445 358.02 69.4224 357.922 69.1339 357.765C68.8454 357.608 68.5975 357.397 68.4069 357.145C68.2163 356.892 68.0876 356.606 68.0297 356.304C66.8917 351.965 72.9117 350.076 77.0085 349.941C75.017 348.675 69.327 345.249 72.3541 343.568C75.3812 341.886 82.0954 346.775 84.2803 348.384C87.4781 350.761 91.3018 354.301 91.4497 358.006C91.6318 362.345 87.4895 359.688 84.9973 358.775Z" fill="#3147F5"/>
<path opacity="0.1" d="M84.9973 358.775C81.754 358.878 79.7169 363.601 77.1906 365.003C76.9252 365.198 76.6178 365.341 76.2882 365.421C75.9586 365.501 75.6142 365.517 75.2773 365.468C74.9404 365.419 74.6186 365.306 74.3326 365.137C74.0466 364.967 73.8029 364.745 73.6173 364.484C71.1137 361.297 74.5504 357.373 77.7823 355.142C75.5063 356.003 73.5604 357.529 71.0681 357.955C70.7498 358.052 70.4121 358.085 70.0783 358.052C69.7445 358.02 69.4224 357.922 69.1339 357.765C68.8454 357.608 68.5975 357.397 68.4069 357.145C68.2163 356.892 68.0876 356.606 68.0297 356.304C66.8917 351.965 72.9117 350.076 77.0085 349.941C75.017 348.675 69.327 345.249 72.3541 343.568C75.3812 341.886 82.0954 346.775 84.2803 348.384C87.4781 350.761 91.3018 354.301 91.4497 358.006C91.6318 362.345 87.4895 359.688 84.9973 358.775Z" fill="black"/>
<path d="M85.9304 359.501C81.7881 357.788 73.8334 360.258 73.1506 358.826C71.785 355.919 78.1351 353.916 81.5718 353.532C78.4082 352.754 72.354 351.508 72.5361 348.726C72.7637 345.332 81.8336 348.249 86.4197 351.456C92.2008 355.504 92.1097 359.407 91.1993 360.186C89.902 361.224 86.6132 359.791 85.9304 359.501Z" fill="#3147F5"/>
<path d="M131.428 355.151C111.9 371.302 107.655 397.19 110.671 420.109C110.762 420.628 111.638 420.514 111.661 420.037C111.877 414.847 111.922 409.656 112.15 404.581C112.264 404.352 112.355 404.134 112.469 403.906C117.521 400.792 122.187 397.294 125.203 392.343C128.617 386.81 130.073 380.499 132.725 374.697C132.975 374.136 132.304 374.281 131.86 374.551C120.093 381.817 116.099 390.018 112.355 400.979C112.662 395.187 113.569 389.436 115.063 383.8C117.977 373.42 123.302 363.133 131.906 355.618C132.224 355.338 131.769 354.86 131.428 355.151Z" fill="#263238"/>
<path d="M134.887 357.228C138.119 357.446 139.951 362.231 142.409 363.705C142.666 363.912 142.967 364.067 143.294 364.16C143.62 364.253 143.965 364.281 144.304 364.244C144.644 364.207 144.971 364.104 145.264 363.944C145.558 363.783 145.81 363.567 146.005 363.311C148.646 360.197 145.38 356.169 142.239 353.865C144.515 354.81 146.358 356.398 148.828 356.906C149.142 357.015 149.478 357.06 149.814 357.039C150.149 357.018 150.475 356.931 150.77 356.784C151.065 356.637 151.322 356.434 151.523 356.188C151.724 355.942 151.864 355.66 151.934 355.36C153.209 351.062 147.382 348.924 143.229 348.685C145.266 347.502 151.104 344.274 148.145 342.457C145.186 340.641 138.278 345.322 136.025 346.858C132.725 349.111 128.765 352.516 128.469 356.2C128.093 360.57 132.349 358.048 134.887 357.228Z" fill="#3147F5"/>
<path opacity="0.1" d="M134.887 357.228C138.119 357.446 139.951 362.231 142.409 363.705C142.666 363.912 142.967 364.067 143.294 364.16C143.62 364.253 143.965 364.281 144.304 364.244C144.644 364.207 144.971 364.104 145.264 363.944C145.558 363.783 145.81 363.567 146.005 363.311C148.646 360.197 145.38 356.169 142.239 353.865C144.515 354.81 146.358 356.398 148.828 356.906C149.142 357.015 149.478 357.06 149.814 357.039C150.149 357.018 150.475 356.931 150.77 356.784C151.065 356.637 151.322 356.434 151.523 356.188C151.724 355.942 151.864 355.66 151.934 355.36C153.209 351.062 147.382 348.924 143.229 348.685C145.266 347.502 151.104 344.274 148.145 342.457C145.186 340.641 138.278 345.322 136.025 346.858C132.725 349.111 128.765 352.516 128.469 356.2C128.093 360.57 132.349 358.048 134.887 357.228Z" fill="black"/>
<path d="M133.92 357.922C138.131 356.355 145.971 359.095 146.711 357.694C148.202 354.829 141.931 352.618 138.517 352.11C141.715 351.445 147.815 350.407 147.747 347.625C147.656 344.221 138.483 346.826 133.761 349.867C127.82 353.708 127.695 357.611 128.617 358.421C129.88 359.542 133.214 358.182 133.92 357.922Z" fill="#3147F5"/>
<path d="M111.524 397.812C110.2 406.453 108.172 414.991 105.459 423.357C105.421 423.522 105.313 423.667 105.158 423.76C105.003 423.852 104.815 423.885 104.633 423.85C104.452 423.816 104.294 423.717 104.192 423.576C104.091 423.435 104.055 423.263 104.093 423.098C105.379 415.23 107.712 407.528 108.998 399.629C110.396 391.666 110.899 383.593 110.5 375.537C109.669 362.281 105.72 348.165 96.2407 337.795C96.0245 337.546 96.4683 337.193 96.6845 337.421C115.678 357.631 112.617 382.398 112.617 384.619C115.314 376.253 118.079 366.672 128.253 358.15C128.696 357.787 129.038 357.963 128.958 358.586C127.137 374.094 122.415 382.201 112.548 390.494C112.241 392.944 111.888 395.394 111.524 397.812Z" fill="#263238"/>
<path d="M96.0017 340.111C92.5877 338.73 87.8764 342.695 84.4965 342.976C82.7098 343.121 81.3784 342.477 81.0825 340.796C80.2404 336.343 85.9759 333.841 90.5393 333.042C87.6601 332.876 84.8493 333.582 82.0157 332.886C81.6283 332.844 81.2556 332.726 80.9232 332.54C80.5908 332.354 80.3067 332.104 80.0903 331.808C79.8739 331.512 79.7305 331.177 79.67 330.825C79.6095 330.474 79.6332 330.114 79.7397 329.772C80.9915 324.769 88.2633 325.506 92.5649 327.291C91.1993 325.07 87.1822 318.904 91.2448 318.541C95.3075 318.178 99.5864 326.347 100.963 329.025C102.978 332.948 104.98 338.367 103.091 342.29C100.929 346.868 98.0956 342.197 96.0017 340.111Z" fill="#3147F5"/>
<path opacity="0.1" d="M96.0017 340.111C92.5877 338.73 87.8764 342.695 84.4965 342.976C82.7098 343.121 81.3784 342.477 81.0825 340.796C80.2404 336.343 85.9759 333.841 90.5393 333.042C87.6601 332.876 84.8493 333.582 82.0157 332.886C81.6283 332.844 81.2556 332.726 80.9232 332.54C80.5908 332.354 80.3067 332.104 80.0903 331.808C79.8739 331.512 79.7305 331.177 79.67 330.825C79.6095 330.474 79.6332 330.114 79.7397 329.772C80.9915 324.769 88.2633 325.506 92.5649 327.291C91.1993 325.07 87.1822 318.904 91.2448 318.541C95.3075 318.178 99.5864 326.347 100.963 329.025C102.978 332.948 104.98 338.367 103.091 342.29C100.929 346.868 98.0956 342.197 96.0017 340.111Z" fill="black"/>
<path d="M96.5821 341.304C93.1681 337.619 83.6089 336.529 83.6886 334.733C83.8707 331.079 91.5749 331.931 95.3531 333.104C92.5081 330.841 86.9091 326.772 88.6275 323.969C90.7442 320.554 98.5395 327.747 101.521 333.176C105.288 340.027 103.103 344.054 101.68 344.428C99.723 344.937 97.1284 341.906 96.5821 341.304Z" fill="#3147F5"/>
<path d="M123.962 402.485L132.338 460.872H81.3557C82.4027 455.682 91.8936 402.412 91.8936 402.412L123.962 402.485Z" fill="#3147F5"/>
<path d="M209.392 221.01C208.293 217.53 206.591 214.233 204.351 211.243C202.024 208.286 199.315 205.595 196.282 203.229C184.185 193.628 167.514 189.912 151.752 190.898C144.552 191.295 137.493 192.896 130.927 195.621C127.727 196.982 124.761 198.758 122.119 200.894C119.672 202.876 116.918 205.316 115.78 208.16C115.744 208.262 115.745 208.372 115.783 208.474C115.821 208.576 115.894 208.664 115.991 208.725C116.089 208.785 116.205 208.816 116.323 208.811C116.44 208.807 116.554 208.768 116.645 208.7C118.09 207.662 119.308 206.354 120.685 205.212C122.074 204.08 123.549 203.039 125.1 202.098C128.147 200.269 131.387 198.725 134.773 197.489C148.304 192.507 164.361 192.631 178.017 197.136C184.64 199.341 190.753 202.654 196.043 206.904C198.536 208.913 200.821 211.126 202.871 213.516C205.069 215.942 207.095 218.494 208.937 221.156C209.142 221.301 209.494 221.239 209.392 221.01Z" fill="#263238"/>
<path d="M199.412 201.371C198.044 199.38 196.326 197.609 194.325 196.129C192.229 194.725 190.015 193.476 187.702 192.392C179.231 188.224 169.957 185.588 160.39 184.628C155.774 184.165 151.106 184.375 146.563 185.251C144.41 185.69 142.286 186.241 140.202 186.901C138.079 187.473 136.061 188.33 134.216 189.445C134.172 189.482 134.143 189.531 134.132 189.584C134.121 189.638 134.128 189.693 134.153 189.743C134.178 189.792 134.22 189.833 134.272 189.859C134.324 189.886 134.384 189.897 134.443 189.891C136.879 189.434 139.211 188.614 141.658 188.189C144.105 187.763 146.392 187.68 148.782 187.472C176.743 185.106 196.965 200.873 198.945 201.818C199.012 201.861 199.094 201.881 199.176 201.874C199.258 201.867 199.334 201.834 199.391 201.779C199.448 201.725 199.481 201.654 199.485 201.579C199.489 201.504 199.463 201.43 199.412 201.371Z" fill="#263238"/>
<path d="M102.67 282.096C108.36 285.449 115.097 282.999 119.558 279.065C124.201 274.976 127.365 269.62 129.8 264.232C132.076 259.312 133.681 254.174 135.49 249.098C137.3 244.023 138.904 238.718 141.772 234.078C144.456 229.641 148.956 226.353 154.29 224.934C160.069 223.515 166.213 224.019 171.622 226.356C174.486 227.508 177.085 229.146 179.281 231.182C181.291 233.175 182.856 235.505 183.889 238.044C186.291 243.524 187.497 249.358 188.954 255.077C190.148 259.811 192.629 264.077 197.489 266.412C201.631 268.405 206.729 269.007 210.94 266.859C211.002 266.831 211.052 266.784 211.079 266.725C211.106 266.667 211.109 266.601 211.086 266.541C211.064 266.481 211.018 266.43 210.957 266.399C210.897 266.368 210.826 266.357 210.758 266.371C208.106 266.841 205.37 266.747 202.765 266.095C200.159 265.444 197.754 264.252 195.736 262.613C193.656 260.693 192.216 258.274 191.582 255.638C190.672 252.524 189.989 249.316 189.056 246.182C187.508 240.992 185.972 235.314 182.228 230.996C178.415 226.813 173.274 223.81 167.514 222.401C161.968 220.929 156.046 221.163 150.66 223.065C145.305 225.085 140.937 228.811 138.369 233.549C132.998 242.891 131.268 253.541 127.126 263.319C125.22 268.173 122.375 272.677 118.728 276.616C114.938 280.477 108.85 283.342 103.182 281.193C103.052 281.136 102.902 281.128 102.765 281.17C102.628 281.212 102.514 281.301 102.447 281.419C102.381 281.536 102.367 281.672 102.408 281.799C102.45 281.925 102.544 282.032 102.67 282.096Z" fill="#263238"/>
<path d="M101.43 265.727C104.047 266.049 106.448 264.253 107.666 262.281C109.321 259.443 110.59 256.431 111.444 253.313C113.247 246.861 115.528 240.529 118.272 234.359C122.824 224.695 129.914 215.374 140.122 210.018C145.18 207.331 150.821 205.686 156.649 205.196C162.477 204.707 168.353 205.385 173.864 207.184C179.111 208.93 183.907 211.643 187.952 215.156C192.115 218.892 195.466 223.312 197.83 228.183C200.192 233.232 202.132 238.437 203.634 243.753C204.305 245.881 205.25 248.465 207.503 249.617C208.343 250.098 209.343 250.29 210.325 250.161C211.306 250.032 212.206 249.589 212.863 248.912C212.988 248.777 212.783 248.631 212.647 248.714C212.008 249.101 211.246 249.281 210.482 249.224C209.718 249.168 208.998 248.878 208.436 248.403C207.22 247.461 206.413 246.155 206.16 244.718C205.398 241.853 204.783 238.968 203.884 236.113C202.203 230.313 199.55 224.785 196.02 219.723C192.841 215.38 188.751 211.654 183.986 208.759C179.222 205.863 173.876 203.856 168.258 202.853C162.639 201.85 156.859 201.87 151.249 202.912C145.639 203.955 140.31 205.999 135.57 208.928C125.738 215.011 119.08 224.384 114.676 234.276C112.4 239.698 110.5 245.245 108.986 250.884C108.235 253.735 107.308 256.546 106.21 259.302C105.695 260.51 105.087 261.682 104.389 262.81C104.137 263.329 103.739 263.777 103.235 264.109C102.731 264.441 102.14 264.645 101.521 264.7C101.372 264.689 101.223 264.732 101.109 264.821C100.995 264.909 100.924 265.036 100.912 265.172C100.9 265.308 100.948 265.443 101.045 265.547C101.142 265.652 101.281 265.716 101.43 265.727Z" fill="#263238"/>
<path d="M104.605 286.581C104.588 286.696 104.62 286.812 104.694 286.907C104.768 287.001 104.878 287.067 105.003 287.089C105.927 287.289 106.867 287.421 107.814 287.484C108.239 287.505 108.664 287.505 109.089 287.484C114.107 287.255 119.331 284.66 124.588 279.771C129.033 275.634 132.694 270.854 135.422 265.623C137.573 261.142 139.228 256.475 140.361 251.694C140.725 250.354 141.101 249.005 141.499 247.676C142.739 243.421 144.993 237.296 150.079 233.435C151.796 232.13 153.812 231.194 155.979 230.694C158.145 230.195 160.407 230.145 162.597 230.549C165.998 231.179 169.22 232.438 172.065 234.251C174.909 236.063 177.315 238.389 179.133 241.085C181.983 245.419 183.011 250.55 182.023 255.524C180.814 260.899 177.952 265.849 173.773 269.796C169.42 273.882 164.262 277.181 158.569 279.522C156.156 280.56 152.959 281.941 149.681 283.041L147.803 283.674C145.414 284.474 142.956 285.283 140.6 286.228C140.447 286.295 140.326 286.41 140.259 286.552C140.192 286.694 140.183 286.854 140.234 287.001C140.286 287.149 140.393 287.274 140.538 287.355C140.682 287.436 140.854 287.467 141.021 287.442C142.671 287.12 144.298 286.705 145.812 286.3C156.794 283.425 170.472 278.775 178.814 268.281C182.584 263.733 184.772 258.259 185.096 252.565C185.244 247.342 183.465 242.224 180.043 238.033C175.737 232.635 169.289 228.985 162.074 227.861C159.7 227.505 157.27 227.597 154.937 228.133C152.603 228.668 150.415 229.636 148.509 230.975C144.298 233.954 141.203 238.698 139.052 245.507C138.46 247.355 137.914 249.244 137.425 251.071C136.339 255.492 134.816 259.814 132.873 263.983C130.124 269.421 126.327 274.364 121.664 278.578C117.851 282.003 111.911 286.082 105.231 286.093C105.077 286.084 104.926 286.13 104.81 286.221C104.693 286.312 104.619 286.441 104.605 286.581Z" fill="#263238"/>
<path d="M102.42 271.716C103.84 272.008 105.316 271.991 106.727 271.667C108.139 271.342 109.447 270.719 110.545 269.848C113.037 268.031 114.323 265.011 115.348 262.333C117.726 256.105 119.57 249.669 121.937 243.41C125.612 233.653 131.041 223.688 140.679 217.813C145.014 215.214 149.907 213.49 155.032 212.756C160.156 212.022 165.393 212.295 170.393 213.557C175.926 214.985 180.943 217.734 184.925 221.518C188.577 225.211 191.471 229.472 193.471 234.099C194.53 236.424 195.44 238.791 196.248 241.199C196.987 243.747 197.868 246.259 198.888 248.724C200.754 252.814 205.454 257.724 210.871 255.7C210.959 255.661 211.031 255.597 211.075 255.517C211.118 255.438 211.132 255.347 211.114 255.26C211.096 255.173 211.047 255.093 210.974 255.034C210.901 254.974 210.809 254.938 210.712 254.932C209.203 254.804 207.743 254.378 206.432 253.684C205.122 252.991 203.992 252.046 203.122 250.915C201.198 248.444 200.459 245.392 199.582 242.517C198.049 237.147 195.786 231.972 192.845 227.113C190.224 222.815 186.655 219.058 182.364 216.079C177.719 213.017 172.36 210.977 166.706 210.121C161.531 209.351 156.24 209.531 151.143 210.653C146.047 211.774 141.247 213.813 137.026 216.65C127.661 223.034 122.324 233.04 118.671 242.912C116.611 248.455 115.018 254.112 113.128 259.696C111.695 263.952 109.157 271.114 102.784 270.169C102.574 270.157 102.366 270.213 102.198 270.329C102.03 270.444 101.913 270.611 101.869 270.799C101.824 270.987 101.856 271.183 101.957 271.351C102.058 271.52 102.223 271.649 102.42 271.716Z" fill="#263238"/>
<path d="M101.953 275.786C102.702 276.555 103.606 277.186 104.616 277.644C106.71 278.599 109.771 278.287 111.865 277.519C114.439 276.445 116.599 274.692 118.067 272.485C119.672 270.126 121.029 267.634 122.119 265.043C123.427 262.167 124.565 259.209 125.681 256.261C127.957 250.334 129.994 244.355 132.509 238.501C134.694 233.311 137.413 228.36 141.988 224.581C146.061 221.173 151.118 218.897 156.562 218.024C162.006 217.15 167.61 217.715 172.714 219.651C177.95 221.657 182.402 225.053 185.494 229.398C188.908 234.141 190.456 239.674 191.958 245.082C193.301 249.898 194.382 255.098 197.762 259.136C200.572 262.51 206.558 265.177 210.507 261.669C210.549 261.636 210.576 261.59 210.583 261.54C210.59 261.49 210.577 261.439 210.547 261.398C210.516 261.356 210.47 261.325 210.416 261.312C210.363 261.299 210.306 261.304 210.257 261.326C207.435 262.603 204.123 261.731 201.767 259.987C199.598 258.254 197.972 256.026 197.056 253.531C194.723 248.019 193.801 242.113 191.662 236.498C189.911 231.519 186.856 227.005 182.763 223.346C178.832 219.921 174.042 217.427 168.811 216.08C163.502 214.825 157.927 214.844 152.629 216.135C147.331 217.427 142.489 219.946 138.574 223.45C134.238 227.425 131.519 232.439 129.322 237.619C126.932 243.296 124.998 249.13 122.836 254.891C121.698 257.839 120.56 260.766 119.296 263.683C118.336 266.195 117.136 268.627 115.712 270.949C114.399 273.112 112.344 274.822 109.862 275.817C108.707 276.283 107.436 276.461 106.18 276.332C104.924 276.202 103.728 275.77 102.716 275.08C102.192 274.717 101.566 275.391 101.953 275.786Z" fill="#263238"/>
<path d="M211.85 245.829C211.935 244.48 211.935 243.129 211.85 241.78C210.667 230.652 205.463 220.199 197.056 212.062C189.269 204.366 178.895 199.254 167.57 197.53C156.442 195.982 145.062 197.576 134.955 202.098C124.899 206.626 116.62 213.877 111.251 222.858C105.728 231.711 103.235 241.869 104.093 252.025C104.093 252.243 104.48 252.202 104.491 252.025C105.212 241.065 109.111 230.476 115.791 221.342C121.733 213.371 130.093 207.153 139.849 203.447C149.583 199.804 160.312 198.985 170.575 201.101C181.146 203.496 190.562 208.992 197.375 216.744C200.971 220.855 203.871 225.435 205.978 230.331C208.059 235.397 209.707 240.603 210.905 245.901C211.076 246.296 211.816 246.296 211.85 245.829Z" fill="#263238"/>
<path d="M194.473 283.27C195.725 281.589 198.41 283.073 199.799 283.779C201.881 284.817 204.123 286.239 206.627 285.855C206.667 285.843 206.712 285.846 206.75 285.863C206.789 285.881 206.818 285.911 206.831 285.948C206.845 285.986 206.842 286.026 206.823 286.061C206.803 286.096 206.77 286.123 206.729 286.135C205.917 286.502 205.025 286.697 204.119 286.708C203.213 286.719 202.316 286.544 201.494 286.198C200.608 285.866 199.742 285.492 198.9 285.077C198.102 284.656 197.249 284.328 196.362 284.101C196.199 284.08 196.035 284.08 195.872 284.101C195.702 284.101 195.747 284.101 195.725 284.153C195.565 284.423 195.816 284.994 195.907 285.263C196.117 285.965 196.411 286.644 196.783 287.287C197.573 288.612 198.574 289.822 199.753 290.879C200.416 291.498 201.119 292.08 201.858 292.623C202.609 293.173 203.497 293.588 204.214 294.169C204.273 294.198 204.317 294.247 204.336 294.306C204.355 294.364 204.348 294.427 204.316 294.481C204.285 294.535 204.231 294.575 204.167 294.592C204.103 294.61 204.034 294.603 203.975 294.574C203.109 294.329 202.282 293.98 201.517 293.536C200.717 293.109 199.955 292.623 199.241 292.083C197.797 290.999 196.582 289.683 195.656 288.201C195.191 287.463 194.81 286.684 194.518 285.876C194.287 285.475 194.163 285.031 194.155 284.578C194.147 284.125 194.256 283.678 194.473 283.27Z" fill="#263238"/>
<path d="M198.285 286.488C199.643 287.056 200.91 287.789 202.052 288.668C202.56 289.056 203.084 289.419 203.622 289.758C203.884 289.924 204.169 290.08 204.442 290.225C204.722 290.356 205.011 290.47 205.307 290.568C205.363 290.583 205.412 290.614 205.448 290.657C205.483 290.7 205.502 290.753 205.502 290.806C205.502 290.86 205.483 290.912 205.448 290.955C205.412 290.998 205.363 291.03 205.307 291.045C203.952 291.346 202.53 290.536 201.506 289.831C200.214 288.975 199.064 287.955 198.092 286.8C197.932 286.696 198.069 286.488 198.285 286.488Z" fill="#263238"/>
<path d="M109.328 290.296C109.322 290.32 109.322 290.345 109.328 290.369C109.335 290.453 109.373 290.533 109.434 290.597C109.496 290.66 109.578 290.704 109.669 290.722C110.004 290.8 110.347 290.849 110.693 290.867C111.896 290.884 113.096 290.745 114.255 290.452C115.879 290.101 117.458 289.596 118.966 288.947C121.916 287.646 124.645 285.964 127.069 283.954C135.32 277.373 141.123 268 144.321 256.073C144.526 255.284 144.742 254.485 144.947 253.696C146.085 249.388 147.223 244.946 149.84 241.24C151.217 239.281 153.09 237.654 155.303 236.496C157.607 235.442 160.169 234.941 162.745 235.043C162.878 235.038 163.005 234.993 163.107 234.915C163.208 234.837 163.279 234.73 163.307 234.612C163.336 234.494 163.321 234.37 163.264 234.26C163.208 234.151 163.114 234.061 162.996 234.005C160.048 232.687 156.384 233.933 154.95 234.524C152.407 235.625 150.179 237.249 148.441 239.268C145.027 243.119 143.752 248.06 142.523 252.835L142.204 254.028C140.891 259.423 138.862 264.652 136.162 269.598C133.385 274.453 129.664 278.808 125.18 282.449C123.009 284.266 120.592 285.822 117.988 287.078C116.65 287.691 115.266 288.215 113.845 288.646C113.368 288.791 112.878 288.905 112.389 289.03C111.427 289.235 110.492 289.534 109.601 289.922C109.522 289.956 109.455 290.009 109.407 290.075C109.359 290.14 109.332 290.217 109.328 290.296Z" fill="#263238"/>
<path d="M137.88 284.412C137.873 284.492 137.891 284.572 137.931 284.644C137.972 284.715 138.033 284.775 138.108 284.817C138.174 284.861 138.253 284.886 138.335 284.89C138.418 284.893 138.501 284.876 138.574 284.842C138.648 284.807 138.711 284.756 138.756 284.692C139.754 283.569 141.068 282.715 142.557 282.222C143.9 281.651 145.3 281.184 146.654 280.675L147.269 280.447C150.99 279.118 154.017 277.935 156.794 276.72C169.107 271.333 176.447 264.358 178.643 255.96C179.89 251.482 179.274 246.741 176.913 242.653C175.842 240.708 174.337 238.987 172.495 237.602C170.653 236.217 168.515 235.197 166.216 234.609C166.08 234.577 165.936 234.59 165.811 234.648C165.685 234.705 165.587 234.802 165.533 234.92C165.479 235.028 165.471 235.151 165.511 235.265C165.551 235.378 165.636 235.473 165.75 235.533C170.16 237.863 173.607 241.452 175.559 245.747C178.051 251.767 176.845 261.607 165.215 269.569C160.866 272.37 156.181 274.71 151.252 276.544C148.793 277.53 146.017 278.62 143.354 279.938C142.251 280.444 141.2 281.038 140.213 281.713C139.305 282.412 138.536 283.248 137.937 284.184C137.892 284.252 137.872 284.332 137.88 284.412Z" fill="#263238"/>
<path d="M105.686 292.404C107.359 293.321 109.256 293.842 111.205 293.919C114.774 293.969 118.299 293.19 121.447 291.657C126.131 289.398 130.379 286.456 134.022 282.948C134.375 282.616 134.705 282.273 135.046 281.91L135.354 281.609C135.435 281.573 135.509 281.524 135.57 281.463C138.449 278.848 142.398 277.394 146.187 275.983C147.508 275.495 148.885 274.945 150.17 274.446C156.532 271.748 160.868 269.07 164.213 265.748C167.606 262.541 169.746 258.404 170.302 253.977C170.7 250.137 169.71 244.78 165.647 242.289C161.585 239.798 156.441 241.573 153.425 244.573C149.92 248.071 148.133 253.012 146.688 257.029L146.187 258.43C144.873 262.444 143.19 266.351 141.158 270.108C138.91 273.989 136.096 277.575 132.793 280.768C129.508 283.943 125.764 286.695 121.664 288.947C116.269 291.885 111.012 292.778 106.062 291.636H105.971C105.868 291.632 105.766 291.657 105.678 291.707C105.591 291.757 105.522 291.83 105.481 291.916C105.449 292.006 105.452 292.104 105.489 292.193C105.526 292.282 105.596 292.356 105.686 292.404ZM140.167 276.107C140.987 275.069 141.704 274.031 142.341 272.993C144.717 269.143 146.625 265.067 148.031 260.838C148.27 260.164 148.498 259.489 148.748 258.762C150.057 254.984 151.411 251.071 153.812 247.77C154.961 246.007 156.683 244.614 158.74 243.784C159.677 243.447 160.681 243.295 161.687 243.338C162.888 243.379 164.034 243.809 164.919 244.552C168.333 247.459 168.549 252.783 167.195 256.769C165.653 260.772 162.835 264.264 159.104 266.796C154.882 269.859 149.886 271.903 145.448 273.71L145.027 273.876C143.445 274.633 141.749 275.329 140.167 276.107Z" fill="#263238"/>
<path d="M147.576 269.194C147.549 269.286 147.551 269.383 147.584 269.473C147.616 269.564 147.677 269.643 147.758 269.703C147.842 269.766 147.945 269.802 148.054 269.807C148.126 269.811 148.199 269.8 148.266 269.775C148.333 269.749 148.393 269.711 148.441 269.661C148.691 269.433 150.535 268.229 151.422 267.679C151.707 267.502 152.003 267.336 152.287 267.149C152.89 266.786 153.516 266.412 154.108 265.997C155.882 264.772 157.549 263.422 159.092 261.959C162.074 259.105 163.474 256.25 163.223 253.458C163.219 252.769 163.004 252.095 162.602 251.511C162.199 250.928 161.626 250.459 160.947 250.157C160.121 249.905 159.228 249.898 158.398 250.139C157.567 250.38 156.842 250.855 156.327 251.496C155.292 252.755 154.485 254.156 153.937 255.648C153.414 256.852 152.947 258.108 152.481 259.312L152.105 260.288C150.825 263.193 149.331 266.016 147.633 268.737C147.579 268.802 147.545 268.878 147.535 268.959C147.525 269.039 147.539 269.12 147.576 269.194ZM153.391 262.011C154.465 259.452 155.727 256.962 157.169 254.558L157.237 254.455C157.624 253.832 158.546 252.379 159.434 252.212H159.627C159.815 252.227 159.993 252.292 160.139 252.399C160.913 252.949 160.799 254.475 160.435 255.627C159.593 258.389 157.021 260.62 155.018 262.416L153.425 263.807C152.879 264.274 152.344 264.751 151.809 265.229C152.492 264.077 152.981 262.945 153.391 262.011Z" fill="#263238"/>
<path d="M154.768 316.03C152.802 319.591 151.04 323.243 149.488 326.97C149.484 326.994 149.489 327.019 149.501 327.041C149.514 327.062 149.534 327.079 149.558 327.09C149.582 327.1 149.609 327.103 149.636 327.099C149.662 327.094 149.686 327.082 149.704 327.064C151.923 324.053 153.766 320.836 155.849 317.722C157.215 315.718 159.684 311.037 163.018 311.795C164.418 312.106 165.42 313.518 166.193 314.525C167.208 315.917 168.31 317.255 169.494 318.531C171.314 320.42 174.728 322.891 177.71 322.227C177.847 322.227 177.926 321.998 177.79 321.936C176.993 321.552 176.151 321.313 175.366 320.898C174.5 320.453 173.698 319.912 172.976 319.289C171.583 317.993 170.354 316.558 169.312 315.013C167.605 312.604 165.613 309.428 161.903 309.823C158.466 310.186 156.122 313.476 154.768 316.03Z" fill="#263238"/>
<path d="M105.527 295.093C109.134 299.422 115.587 298.654 120.252 296.349C122.941 294.924 125.479 293.273 127.832 291.419C130.321 289.504 132.986 287.789 135.798 286.291C135.832 286.281 135.861 286.26 135.878 286.23C135.895 286.201 135.899 286.167 135.889 286.135C135.878 286.104 135.854 286.077 135.822 286.062C135.79 286.046 135.753 286.043 135.718 286.052C129.948 286.893 125.783 291.242 121.083 293.983C116.668 296.578 110.261 298.135 105.709 294.855C105.595 294.73 105.413 294.958 105.527 295.093Z" fill="#263238"/>
<path d="M199.48 303.293C199.844 303.293 199.992 302.795 199.617 302.712C193.79 301.394 189.192 297.408 186.37 292.664C183.818 288.34 182.345 283.555 182.057 278.651C181.794 274.963 182.391 271.266 183.81 267.804C184.184 266.649 184.838 265.585 185.722 264.69C185.922 264.458 186.174 264.268 186.461 264.133C186.749 263.997 187.064 263.918 187.387 263.903C187.71 263.887 188.033 263.934 188.335 264.041C188.636 264.149 188.909 264.313 189.136 264.524C189.758 265.313 190.317 266.142 190.808 267.005C192.148 268.837 193.931 270.364 196.02 271.468C198.099 272.571 200.445 273.188 202.848 273.264C205.4 273.324 207.919 272.731 210.12 271.551C210.268 271.468 210.2 271.209 210.018 271.261C206.985 272.105 203.745 272.113 200.708 271.282C197.67 270.45 194.97 268.818 192.948 266.59C191.56 264.96 190.808 262.438 188.157 262.251C185.505 262.064 183.662 263.995 182.615 265.998C180.284 270.799 179.518 276.111 180.407 281.298C181.807 290.443 187.838 302.805 199.48 303.293Z" fill="#263238"/>
<path d="M157.374 323.523C157.009 324.469 156.843 325.469 156.885 326.471C156.893 326.501 156.91 326.528 156.935 326.55C156.959 326.571 156.99 326.586 157.023 326.592C157.056 326.599 157.09 326.597 157.122 326.586C157.154 326.576 157.182 326.558 157.203 326.534C157.731 325.779 158.134 324.957 158.398 324.094C158.751 323.202 159.115 322.309 159.536 321.437C159.951 320.561 160.438 319.714 160.993 318.904C161.175 318.548 161.421 318.222 161.721 317.939L161.801 317.887L161.983 318.053C162.154 318.202 162.314 318.362 162.461 318.531C163.616 319.979 164.863 321.365 166.193 322.683C167.331 323.648 169.141 324.696 170.745 324.364C170.767 324.355 170.786 324.341 170.799 324.322C170.812 324.304 170.818 324.282 170.818 324.26C170.818 324.239 170.812 324.217 170.799 324.199C170.786 324.18 170.767 324.166 170.745 324.157C169.832 323.73 168.986 323.192 168.23 322.558C167.526 321.893 166.89 321.17 166.33 320.399C165.681 319.589 165.101 318.728 164.395 317.949C163.69 317.171 162.905 316.164 161.778 316.164C160.651 316.164 160.117 317.088 159.673 317.825C159.133 318.705 158.676 319.625 158.307 320.576C158 321.551 157.658 322.527 157.374 323.523Z" fill="#263238"/>
<path d="M202.2 297.697C202.244 297.709 202.291 297.707 202.333 297.691C202.375 297.674 202.409 297.645 202.43 297.607C202.45 297.57 202.456 297.527 202.445 297.486C202.434 297.446 202.408 297.41 202.37 297.386C200.972 296.309 199.678 295.125 198.501 293.846C197.381 292.514 196.34 291.128 195.383 289.694C193.478 287.225 191.846 284.589 190.513 281.826C189.824 280.484 189.466 279.021 189.466 277.539C189.682 275.463 191.969 276.978 192.959 277.757C194.061 278.741 195.24 279.65 196.487 280.477C198.965 281.931 201.906 282.585 204.84 282.335C206.251 282.105 207.609 281.66 208.857 281.016C209.142 280.902 208.937 280.549 208.652 280.632C207.536 280.882 206.386 280.98 205.238 280.923C204.294 280.939 203.351 280.887 202.416 280.767C200.472 280.49 198.623 279.812 197.011 278.785C195.076 277.529 191.525 273.314 188.817 275.349C186.473 277.103 188.282 281.182 189.227 283.175C190.79 286.2 192.697 289.067 194.917 291.728C196.737 294.012 199.15 296.742 202.2 297.697Z" fill="#263238"/>
<path d="M112.787 305.638C115.267 306.088 117.843 305.693 120.025 304.527C120.491 304.299 120.924 304.04 121.379 303.78C121.14 304.029 120.912 304.268 120.696 304.517C119.133 306.258 118.153 308.374 117.874 310.61C117.873 310.641 117.883 310.671 117.902 310.696C117.921 310.721 117.948 310.74 117.979 310.75C118.011 310.761 118.045 310.762 118.077 310.753C118.109 310.745 118.138 310.728 118.158 310.704C119.433 308.929 120.742 307.143 122.198 305.514C123.655 303.884 125.351 302.275 126.75 300.562C126.805 300.486 126.834 300.398 126.834 300.307C126.834 300.216 126.805 300.128 126.751 300.052C126.696 299.976 126.619 299.916 126.528 299.879C126.437 299.843 126.336 299.831 126.238 299.846C123.826 300.344 122.016 301.922 119.877 302.96C117.613 304.041 115.224 304.887 112.753 305.482C112.662 305.482 112.662 305.617 112.787 305.638Z" fill="#263238"/>
<path d="M139.2 315.355C137.906 317.553 136.766 319.824 135.786 322.154C135.754 322.21 135.749 322.276 135.77 322.336C135.791 322.397 135.838 322.447 135.9 322.476C135.962 322.504 136.034 322.51 136.1 322.49C136.166 322.471 136.221 322.428 136.253 322.372C138.187 319.995 139.746 317.358 141.544 314.888C143.342 312.417 145.129 310.175 147.086 307.923C150.198 304.256 153.969 301.097 158.239 298.581C159.333 297.944 160.474 297.375 161.653 296.879C162.868 296.251 164.229 295.896 165.624 295.841C168.151 295.965 169.79 298.176 170.916 299.889C173.636 304.041 175.958 308.421 180.168 311.587C182.012 313.052 184.238 314.06 186.632 314.514C187.652 314.783 188.738 314.754 189.739 314.431C190.046 314.255 190.239 313.995 189.932 313.746C189.83 313.673 189.67 313.746 189.739 313.891C189.807 314.037 188.271 313.756 188.202 313.736L187.224 313.487C186.536 313.293 185.87 313.043 185.232 312.739C184.016 312.161 182.872 311.465 181.818 310.663C179.571 308.831 177.685 306.662 176.242 304.248C174.933 302.224 173.773 300.096 172.316 298.155C171.182 296.403 169.452 295.036 167.388 294.263C164.794 293.495 162.165 294.346 159.821 295.301C157.559 296.234 155.418 297.394 153.437 298.757C149.395 301.553 145.927 304.98 143.195 308.878C141.74 310.972 140.407 313.134 139.2 315.355Z" fill="#263238"/>
<path d="M145.721 319.983C144.921 321.717 144.355 323.533 144.037 325.391C144.034 325.421 144.042 325.452 144.06 325.477C144.078 325.502 144.106 325.521 144.137 325.531C144.169 325.541 144.203 325.54 144.234 325.53C144.266 325.52 144.292 325.5 144.31 325.474C145.448 323.668 146.244 321.665 147.428 319.859C148.611 318.052 149.704 316.267 150.842 314.534C152.971 311.42 155.438 308.509 158.205 305.846C159.513 304.631 161.05 303.593 162.962 303.77C164.755 304.101 166.365 304.993 167.514 306.292C170.085 308.918 171.269 312.52 173.92 315.094C175.096 316.269 176.562 317.171 178.197 317.724C179.833 318.276 181.589 318.464 183.32 318.27C183.434 318.27 183.468 318.052 183.32 318.021C181.092 317.535 179.004 316.618 177.198 315.333C175.437 313.954 173.988 312.276 172.93 310.392C170.973 307.278 169.073 303.894 165.374 302.337C163.752 301.626 161.89 301.522 160.185 302.046C158.408 302.753 156.845 303.843 155.633 305.223C152.742 308.082 150.253 311.258 148.224 314.679C147.253 316.391 146.416 318.163 145.721 319.983Z" fill="#263238"/>
<path d="M129.254 318.23C129.227 318.313 129.234 318.402 129.273 318.481C129.313 318.559 129.383 318.621 129.47 318.656H129.618C129.683 318.656 129.747 318.642 129.804 318.615C129.862 318.588 129.911 318.549 129.948 318.5C131.67 316.044 133.535 313.674 135.536 311.4C137.638 309.068 139.883 306.847 142.261 304.747C146.202 301.076 150.411 297.653 154.859 294.502C157.054 292.977 159.437 291.691 161.96 290.671C164.361 289.716 167.65 288.419 169.926 290.267C171.247 291.517 172.294 292.986 173.01 294.595C173.329 295.197 173.647 295.778 173.977 296.329C175.361 298.673 176.988 300.891 178.837 302.951C180.632 304.961 182.782 306.683 185.198 308.047C187.509 309.375 190.144 310.16 192.868 310.331C192.961 310.34 193.055 310.316 193.129 310.264C193.203 310.212 193.252 310.135 193.267 310.051C193.291 309.97 193.28 309.883 193.235 309.809C193.191 309.735 193.116 309.681 193.028 309.656C185.46 307.238 180.601 301.954 177.869 297.948C177.107 296.827 176.413 295.612 175.764 294.45C175.115 293.287 174.444 292.114 173.67 290.993C172.02 288.554 169.903 287.308 167.423 287.236C164.441 287.163 161.346 288.346 158.99 289.363C156.402 290.504 153.956 291.896 151.695 293.515C147.123 296.907 142.857 300.628 138.938 304.643C134.876 308.639 130.87 313.061 129.254 318.23Z" fill="#263238"/>
<path d="M200.288 301.112C200.664 301.278 200.891 300.77 200.607 300.562C196.796 297.918 193.509 294.699 190.888 291.043C188.742 287.859 187.26 284.34 186.518 280.663C186.125 278.781 185.923 276.87 185.915 274.954C185.915 273.553 185.517 270.014 187.77 270.003C190.023 269.993 191.264 272.463 192.572 273.647C194.067 275.031 195.831 276.15 197.773 276.947C199.699 277.77 201.843 278.074 203.952 277.822C206.062 277.57 208.048 276.773 209.676 275.525C209.702 275.506 209.72 275.478 209.725 275.448C209.73 275.418 209.723 275.387 209.704 275.361C209.686 275.335 209.658 275.317 209.626 275.309C209.593 275.301 209.559 275.304 209.529 275.318C204.521 277.861 197.955 275.878 194.086 272.474C192.515 271.103 191.241 269.121 189.01 268.571C188.559 268.41 188.076 268.339 187.592 268.362C187.109 268.384 186.636 268.501 186.205 268.703C185.775 268.905 185.396 269.189 185.095 269.535C184.794 269.88 184.577 270.281 184.458 270.709C184.005 272.621 183.875 274.585 184.071 276.532C184.175 278.506 184.503 280.464 185.05 282.376C187.292 289.974 192.459 297.5 200.288 301.112Z" fill="#263238"/>
<path d="M126.045 310.848C125.135 312.281 124.456 313.826 124.031 315.436C123.986 315.627 124.015 315.826 124.112 316C124.21 316.174 124.37 316.312 124.565 316.391C124.65 316.417 124.738 316.435 124.827 316.443C124.968 316.449 125.107 316.42 125.231 316.36C125.355 316.3 125.46 316.21 125.533 316.101C126.204 315.156 126.841 314.191 127.479 313.236C128.836 311.089 130.357 309.032 132.031 307.08C134.524 304.331 137.232 301.75 140.133 299.358C145.995 294.89 152.131 290.732 158.512 286.902C167.616 281.38 173.864 278.463 175.297 279.065C176.276 279.48 176.322 280.964 176.367 282.179C176.367 282.525 176.386 282.872 176.424 283.217C176.657 284.917 176.992 286.605 177.426 288.272C178.189 291.466 179.507 294.529 181.329 297.344C183.004 299.905 185.277 302.099 187.986 303.769C189.466 304.651 193.301 306.634 196.828 306.022C196.92 305.989 197 305.932 197.057 305.859C197.115 305.786 197.148 305.699 197.153 305.609C197.158 305.52 197.134 305.43 197.085 305.352C197.035 305.275 196.962 305.211 196.874 305.17C196.294 304.963 195.736 304.776 195.156 304.589C193.935 304.211 192.745 303.757 191.594 303.229C189.931 302.411 188.399 301.387 187.042 300.188C184.282 297.654 182.206 294.569 180.976 291.178C179.83 287.873 179.067 284.467 178.7 281.016C178.69 280.281 178.498 279.557 178.137 278.899C177.776 278.241 177.257 277.666 176.618 277.217C175.275 276.418 172.965 276.968 171.827 277.414C165.294 279.968 144.31 292.195 135.945 299.275C133.344 301.53 130.999 304.02 128.947 306.707C127.896 308.037 126.927 309.42 126.045 310.848Z" fill="#263238"/>
<path d="M109.43 301.081C113.811 302.814 119.001 301.081 122.995 299.275C126.989 297.469 130.278 295.029 134.022 293.047C134.989 292.548 135.957 292.081 136.958 291.656C137.459 291.448 137.971 291.251 138.483 291.074C138.745 290.981 139.052 290.805 139.325 290.888C139.598 290.971 139.655 290.888 139.439 291.085C139.223 291.282 139.303 291.261 139.223 291.344C137.926 292.818 135.889 293.877 134.329 295.102C131.141 297.56 128.242 300.315 125.681 303.323C123.268 306.177 120.753 309.457 119.991 313.059C119.991 313.236 120.218 313.298 120.321 313.173C121.857 311.264 123.143 309.188 124.668 307.267C126.165 305.395 127.82 303.632 129.618 301.994C131.223 300.52 132.896 299.098 134.591 297.718C136.287 296.337 138.073 295.154 139.598 293.69C140.657 292.652 142.546 290.576 140.475 289.538C138.802 288.708 136.321 290.13 134.842 290.805C130.654 292.714 126.876 295.299 122.802 297.354C120.705 298.433 118.479 299.286 116.167 299.897C113.962 300.412 111.704 300.711 109.43 300.79C109.248 300.801 109.248 301.018 109.43 301.081Z" fill="#263238"/>
<path d="M161.687 321.322C161.685 321.284 161.685 321.246 161.687 321.208C161.701 321.172 161.723 321.139 161.753 321.113C161.783 321.086 161.819 321.066 161.858 321.054C161.898 321.042 161.94 321.038 161.981 321.043C162.023 321.048 162.062 321.062 162.097 321.083L162.188 321.135C162.586 321.27 162.848 321.799 162.996 322.111C163.144 322.422 163.371 322.889 163.565 323.263C163.94 324.01 164.27 324.778 164.703 325.515C164.726 325.547 164.735 325.586 164.729 325.624C164.723 325.662 164.702 325.697 164.669 325.721C164.637 325.746 164.595 325.759 164.553 325.757C164.511 325.755 164.471 325.74 164.441 325.713C163.634 325.212 162.946 324.57 162.415 323.823C162.177 323.46 161.968 323.082 161.789 322.692C161.678 322.447 161.605 322.188 161.573 321.924C161.539 321.717 161.579 321.506 161.687 321.322Z" fill="#263238"/>
<path d="M72.5474 209.343H69.1334V172.951H109.032V176.065H72.5474V209.343Z" fill="#3147F5"/>
<path d="M244.545 332.937H204.646V329.823H241.131V296.545H244.545V332.937Z" fill="#3147F5"/>
<path d="M109.032 332.937H69.1334V296.545H72.5474V329.823H109.032V332.937Z" fill="#3147F5"/>
<path d="M244.545 209.343H241.131V176.065H204.646V172.951H244.545V209.343Z" fill="#3147F5"/>
<path d="M253.33 340.962H250.633V340.184H252.477V338.502H253.33V340.962Z" fill="#3147F5"/>
<path d="M246.058 340.962H241.506V340.184H246.058V340.962ZM236.954 340.962H232.402V340.184H236.954V340.962ZM227.85 340.962H223.298V340.184H227.85V340.962ZM218.746 340.962H214.194V340.184H218.746V340.962ZM209.642 340.962H205.09V340.184H209.642V340.962ZM200.538 340.962H195.986V340.184H200.538V340.962ZM191.434 340.962H186.882V340.184H191.434V340.962ZM182.33 340.962H177.778V340.184H182.33V340.962ZM173.226 340.962H168.674V340.184H173.226V340.962ZM164.122 340.962H159.57V340.184H164.122V340.962ZM155.018 340.962H150.466V340.184H155.018V340.962ZM145.914 340.962H141.362V340.184H145.914V340.962ZM136.81 340.962H132.258V340.184H136.81V340.962ZM127.706 340.962H123.154V340.184H127.706V340.962ZM118.602 340.962H114.05V340.184H118.602V340.962ZM109.498 340.962H104.946V340.184H109.498V340.962ZM100.394 340.962H95.8423V340.184H100.394V340.962ZM91.2903 340.962H86.7383V340.184H91.2903V340.962ZM82.1863 340.962H77.6343V340.184H82.1863V340.962ZM73.0823 340.962H68.5303V340.184H73.0823V340.962Z" fill="#3147F5"/>
<path d="M63.0452 340.962H60.3481V338.502H61.2016V340.184H63.0452V340.962Z" fill="#3147F5"/>
<path d="M61.2016 334.318H60.314V330.166H61.1675L61.2016 334.318ZM61.2016 326.014H60.314V321.862H61.1675L61.2016 326.014ZM61.2016 317.71H60.314V313.558H61.1675L61.2016 317.71ZM61.2016 309.406H60.314V305.254H61.1675L61.2016 309.406ZM61.2016 301.102H60.314V296.95H61.1675L61.2016 301.102ZM61.2016 292.798H60.314V288.646H61.1675L61.2016 292.798ZM61.2016 284.494H60.314V280.342H61.1675L61.2016 284.494ZM61.2016 276.19H60.314V272.038H61.1675L61.2016 276.19ZM61.2016 267.886H60.314V263.734H61.1675L61.2016 267.886ZM61.2016 259.582H60.314V255.43H61.1675L61.2016 259.582ZM61.2016 251.278H60.314V247.126H61.1675L61.2016 251.278ZM61.2016 242.974H60.314V238.822H61.1675L61.2016 242.974ZM61.2016 234.67H60.314V230.518H61.1675L61.2016 234.67ZM61.2016 226.366H60.314V222.214H61.1675L61.2016 226.366ZM61.2016 218.062H60.314V213.91H61.1675L61.2016 218.062ZM61.2016 209.706H60.314V205.554H61.1675L61.2016 209.706ZM61.2016 201.402H60.314V197.25H61.1675L61.2016 201.402ZM61.2016 193.098H60.314V188.946H61.1675L61.2016 193.098ZM61.2016 184.794H60.314V180.642H61.1675L61.2016 184.794ZM61.2016 176.49H60.314V172.338H61.1675L61.2016 176.49Z" fill="#3147F5"/>
<path d="M61.2014 167.398H60.3479V164.938H63.045V165.716H61.2014V167.398Z" fill="#3147F5"/>
<path d="M246.058 165.716H241.506V164.938H246.058V165.716ZM236.954 165.716H232.402V164.938H236.954V165.716ZM227.85 165.716H223.298V164.938H227.85V165.716ZM218.746 165.716H214.194V164.938H218.746V165.716ZM209.642 165.716H205.09V164.938H209.642V165.716ZM200.538 165.716H195.986V164.938H200.538V165.716ZM191.434 165.716H186.882V164.938H191.434V165.716ZM182.33 165.716H177.778V164.938H182.33V165.716ZM173.226 165.716H168.674V164.938H173.226V165.716ZM164.122 165.716H159.57V164.938H164.122V165.716ZM155.018 165.716H150.466V164.938H155.018V165.716ZM145.914 165.716H141.362V164.938H145.914V165.716ZM136.81 165.716H132.258V164.938H136.81V165.716ZM127.706 165.716H123.154V164.938H127.706V165.716ZM118.602 165.716H114.05V164.938H118.602V165.716ZM109.498 165.716H104.946V164.938H109.498V165.716ZM100.394 165.716H95.8423V164.938H100.394V165.716ZM91.2903 165.716H86.7383V164.938H91.2903V165.716ZM82.1863 165.716H77.6343V164.938H82.1863V165.716ZM73.0823 165.716H68.5303V164.938H73.0823V165.716Z" fill="#3147F5"/>
<path d="M253.33 167.398H252.477V165.716H250.633V164.938H253.33V167.398Z" fill="#3147F5"/>
<path d="M253.33 334.318H252.477V330.166H253.33V334.318ZM253.33 326.014H252.477V321.862H253.33V326.014ZM253.33 317.71H252.477V313.558H253.33V317.71ZM253.33 309.406H252.477V305.254H253.33V309.406ZM253.33 301.102H252.477V296.95H253.33V301.102ZM253.33 292.798H252.477V288.646H253.33V292.798ZM253.33 284.494H252.477V280.342H253.33V284.494ZM253.33 276.19H252.477V272.038H253.33V276.19ZM253.33 267.886H252.477V263.734H253.33V267.886ZM253.33 259.582H252.477V255.43H253.33V259.582ZM253.33 251.278H252.477V247.126H253.33V251.278ZM253.33 242.974H252.477V238.822H253.33V242.974ZM253.33 234.67H252.477V230.518H253.33V234.67ZM253.33 226.366H252.477V222.214H253.33V226.366ZM253.33 218.062H252.477V213.91H253.33V218.062ZM253.33 209.706H252.477V205.554H253.33V209.706ZM253.33 201.402H252.477V197.25H253.33V201.402ZM253.33 193.098H252.477V188.946H253.33V193.098ZM253.33 184.794H252.477V180.642H253.33V184.794ZM253.33 176.49H252.477V172.338H253.33V176.49Z" fill="#3147F5"/>
<path d="M308.819 460.871H413.902C414.767 457.757 415.598 454.747 416.44 451.758C417.396 448.298 418.333 444.945 419.251 441.7C419.444 440.973 419.66 440.246 419.865 439.53C420.559 437.029 421.231 434.589 421.902 432.264C422.3 430.811 422.699 429.389 423.04 427.988C423.382 426.586 423.837 425.143 424.178 423.773C424.281 423.41 424.383 423.036 424.485 422.735C424.588 422.434 424.702 421.936 424.804 421.552L425.202 420.13C425.35 419.632 425.487 419.144 425.612 418.656C425.885 417.732 426.136 416.829 426.375 415.936C426.75 414.628 427.103 413.341 427.456 412.085C427.604 411.546 427.763 410.995 427.911 410.466C428.161 409.584 428.4 408.733 428.628 407.902C428.787 407.342 428.935 406.792 429.083 406.262C429.709 404.062 430.278 401.996 430.813 400.034C430.961 399.526 431.086 398.996 431.234 398.539C431.461 397.699 431.689 396.899 431.905 396.121C432.053 395.633 432.178 395.166 432.303 394.699C432.77 393.048 433.191 391.585 433.555 390.225C433.658 389.872 433.749 389.53 433.851 389.187L434.5 386.841C434.579 386.571 434.648 386.301 434.727 386.052C434.807 385.803 434.875 385.523 434.932 385.295C434.989 385.066 435.035 384.952 435.069 384.807C435.103 384.661 435.205 384.34 435.262 384.153C435.279 384.054 435.306 383.957 435.342 383.862L435.581 382.99H333.434C333.434 382.99 330.02 393.588 324.671 410.663C323.533 414.141 322.395 417.929 321.132 421.874C317.502 433.157 313.326 446.443 308.819 460.871Z" fill="#37474F"/>
<path d="M396.695 460.872H399.313C403.205 446.188 406.975 431.479 410.625 416.747C411.505 413.162 412.373 409.574 413.231 405.983L413.47 404.945C413.476 404.909 413.468 404.872 413.446 404.842C413.424 404.811 413.391 404.789 413.352 404.78C413.314 404.771 413.273 404.775 413.238 404.792C413.203 404.809 413.176 404.838 413.162 404.872L413.06 405.204C411.876 409.052 410.7 412.91 409.532 416.778C405.128 431.414 400.849 446.112 396.695 460.872Z" fill="#263238"/>
<path d="M336.7 382.896L341.252 403.511L344.916 420.389L351.221 449.194L351.87 452.152L352.951 457.072L353.759 460.798H413.913C414.767 457.684 415.609 454.664 416.44 451.685C417.396 448.225 418.333 444.872 419.251 441.627C419.444 440.9 419.66 440.173 419.865 439.457C420.559 436.956 421.231 434.516 421.902 432.191C422.3 430.738 422.699 429.316 423.04 427.915C423.382 426.513 423.837 425.07 424.178 423.7C424.281 423.337 424.383 422.963 424.485 422.662C424.588 422.361 424.702 421.863 424.804 421.479L425.202 420.057C425.35 419.559 425.487 419.071 425.612 418.583C425.885 417.659 426.136 416.756 426.374 415.863C426.75 414.555 427.103 413.268 427.456 412.012C427.615 411.462 427.763 410.922 427.911 410.393C428.161 409.511 428.4 408.66 428.628 407.829C428.787 407.269 428.935 406.719 429.083 406.189C429.709 403.989 430.278 401.923 430.813 399.961C430.961 399.453 431.086 398.923 431.234 398.466C431.461 397.626 431.689 396.826 431.905 396.048C432.053 395.56 432.178 395.093 432.303 394.626C432.77 392.975 433.191 391.512 433.555 390.152C433.658 389.799 433.749 389.457 433.851 389.114L434.5 386.768C434.579 386.498 434.648 386.228 434.727 385.979C434.807 385.73 434.875 385.45 434.932 385.222C434.989 384.993 435.035 384.879 435.069 384.734C435.103 384.588 435.205 384.267 435.262 384.08C435.279 383.981 435.306 383.884 435.342 383.789L435.581 382.917L336.7 382.896Z" fill="#263238"/>
<path d="M336.689 382.866C336.689 383.385 337.121 388.948 338.1 397.398C338.384 399.878 338.714 402.588 339.101 405.515C339.704 410.124 340.444 415.199 341.377 420.566C342.948 429.908 344.996 440.142 347.659 450.128C348.604 453.719 349.651 457.28 350.754 460.768H482.762C481.203 442.416 479.781 425.818 478.654 412.739C477.061 394.325 476.06 382.793 476.06 382.793H356.296L336.689 382.866Z" fill="#37474F"/>
<path d="M336.973 393.93C337.121 398.238 337.315 402.546 337.622 406.833C337.94 411.483 338.407 416.123 339.078 420.763C339.091 420.933 339.113 421.103 339.147 421.271C339.776 425.617 340.49 429.952 341.286 434.277C342.049 438.305 342.606 442.654 344.564 446.391C345.305 447.831 346.354 449.123 347.648 450.19C348.84 451.179 350.296 451.866 351.87 452.183C352.127 452.242 352.39 452.28 352.655 452.297C352.723 452.297 352.803 452.297 352.882 452.297C352.833 452.32 352.792 452.356 352.766 452.401C352.739 452.445 352.728 452.496 352.734 452.546C352.791 453.989 352.734 455.463 352.928 456.895C352.928 456.958 352.928 457.02 352.928 457.082C353.087 458.328 353.338 459.563 353.588 460.809H355.864C355.864 460.809 355.864 460.809 355.864 460.736C355.466 459.376 355.136 458.006 354.726 456.584C354.316 455.162 353.816 453.823 353.463 452.432C353.445 452.375 353.405 452.327 353.349 452.297C354.788 452.363 356.215 452.024 357.437 451.326C358.658 450.628 359.614 449.605 360.177 448.394C360.749 446.549 360.788 444.6 360.291 442.737L359.062 435.336C358.288 430.81 357.298 426.326 356.41 421.842C356.285 421.157 356.148 420.472 356.012 419.766C354.248 410.601 352.393 401.425 350.174 392.342C350.094 391.969 349.992 391.595 349.901 391.211C349.81 390.827 349.4 391.034 349.423 391.273C349.491 391.885 349.559 392.498 349.639 393.11C350.026 396.598 350.481 400.065 351.005 403.49C351.642 407.559 352.086 411.649 352.712 415.718L353.36 419.87C354.385 426.565 355.454 433.26 356.706 439.924C357.298 443.038 359.415 448.571 354.521 449.536C353.402 449.762 352.231 449.627 351.21 449.152C349.053 447.982 347.435 446.138 346.658 443.962C345.269 440.412 344.78 436.509 344.063 432.814C343.251 428.738 342.538 424.652 341.923 420.555C341.127 415.448 340.308 410.341 339.42 405.245C338.987 402.639 338.532 400.055 338.077 397.439C337.872 396.245 337.656 395.041 337.44 393.837C337.406 393.598 336.973 393.671 336.973 393.93Z" fill="#263238"/>
<path d="M453.8 425.943C448.303 425.893 442.833 425.224 437.515 423.95C435.057 423.368 432.633 422.652 430.232 421.936C427.847 421.33 425.613 420.308 423.655 418.926C419.956 416.009 418.226 411.421 416.622 407.352C414.866 402.76 413.44 398.069 412.354 393.308C412.297 393.069 411.922 393.142 411.91 393.37C411.806 398.761 412.573 404.137 414.186 409.324C415.518 413.725 417.305 418.666 421.208 421.78C425.305 425.019 430.881 426.16 436.127 426.752C442.03 427.38 447.998 427.307 453.88 426.534C453.923 426.529 453.964 426.517 454.001 426.498C454.038 426.478 454.071 426.453 454.098 426.422C454.124 426.391 454.144 426.356 454.155 426.318C454.166 426.28 454.17 426.241 454.164 426.202C454.159 426.163 454.146 426.126 454.124 426.092C454.103 426.057 454.075 426.028 454.041 426.003C454.007 425.979 453.969 425.962 453.927 425.951C453.886 425.941 453.843 425.938 453.8 425.943Z" fill="#263238"/>
<path d="M462.95 393.401C463.246 400.148 463.557 406.895 463.883 413.642C464.642 429.358 465.472 445.073 466.375 460.788H468.856C467.718 445.031 466.523 429.292 465.271 413.57C464.725 406.83 464.164 400.103 463.587 393.391C463.586 393.314 463.551 393.241 463.49 393.187C463.429 393.133 463.347 393.104 463.263 393.106C463.178 393.107 463.098 393.139 463.039 393.194C462.98 393.25 462.948 393.324 462.95 393.401Z" fill="#263238"/>
<path d="M351.346 244.096C299.339 286.851 251.122 333.676 247.344 357.57C242.121 390.662 264.414 399.848 274.429 399.931C301.65 400.18 351.118 299.557 368.325 261.14C385.031 223.834 362.772 234.702 351.346 244.096Z" fill="#D3766A"/>
<path d="M272.847 312.52L330.68 341.19C330.68 341.19 366.63 280.612 374.914 252.534C383.199 224.457 370.829 225.245 343.676 247.106C316.523 268.966 272.847 312.52 272.847 312.52Z" fill="#C7C7C7"/>
<path d="M272.847 312.52L330.68 341.19C330.68 341.19 366.63 280.612 374.914 252.534C383.199 224.457 370.829 225.245 343.676 247.106C316.523 268.966 272.847 312.52 272.847 312.52Z" fill="#3147F5"/>
<path opacity="0.1" d="M374.914 252.525C366.63 280.613 330.669 341.201 330.669 341.201L278.013 315.085L374.994 231.941C378.226 234.204 378.362 240.879 374.914 252.525Z" fill="black"/>
<path d="M284.75 304.435C307.044 318.199 328.654 327.136 332.99 329.409C333.195 329.523 333.366 329.212 333.15 329.108C328.768 327.084 305.041 313.611 284.921 304.103C284.694 303.989 284.5 304.3 284.75 304.435Z" fill="#263238"/>
<path d="M317.639 420.297L486.984 420.743C486.984 420.743 472.19 304.487 410.033 235.865C395.649 219.974 372.479 228.599 362.703 237.049C337.895 258.463 317.161 419.737 317.639 420.297Z" fill="#3147F5"/>
<path d="M375.893 229.543C379.955 232.252 383.859 235.242 387.762 238.013L399.142 246.058C402.556 248.497 405.97 251.248 409.851 253.168C413.344 254.912 417.407 255.69 421.151 254.133C422.066 253.746 422.926 253.258 423.712 252.68L424.098 253.23C422.192 254.677 419.835 255.541 417.361 255.701C413.617 255.898 410.124 254.341 407.119 252.472C403.319 250.127 399.779 247.417 396.149 244.853C389.105 239.881 382.152 234.691 374.914 229.937C375.199 229.802 375.54 229.668 375.893 229.543ZM443.433 322.018C449.425 321.985 455.407 322.468 461.3 323.461C461.163 323.098 461.015 322.724 460.856 322.361C455.678 321.496 450.427 321.048 445.163 321.022C429.834 320.762 409.327 321.634 400.064 307.933C396.411 302.535 395.227 295.363 399.245 289.83C402.784 284.951 409.396 282.844 415.598 282.896C418.832 282.914 422.033 283.492 425.032 284.598C428.573 286.071 431.84 288.04 434.716 290.432C440.224 294.709 445.356 299.722 452.253 302.099L451.706 300.895C449.653 300.09 447.706 299.077 445.903 297.875C439.496 293.65 434.318 287.796 427.194 284.495C421.739 281.986 415.492 281.306 409.543 282.574C403.853 283.83 398.789 287.204 396.684 292.342C394.34 298.072 396.172 304.632 399.916 309.521C409.543 322.05 428.491 321.842 443.433 322.018ZM417.441 268.603C421.922 266.644 426.555 264.989 431.302 263.652C431.097 263.351 430.892 263.029 430.676 262.728C419.751 265.52 409.657 271.821 398.391 273.585C384.72 275.562 370.727 272.931 359.028 266.184C355.822 264.356 352.832 262.231 350.106 259.842C349.969 260.174 349.844 260.507 349.719 260.88C352.324 263.114 355.151 265.123 358.163 266.88C369.461 273.482 382.908 276.333 396.24 274.955C403.717 274.032 410.59 271.426 417.441 268.603ZM427.683 378.89C436.033 381.643 444.567 383.91 453.231 385.679C462.836 387.755 474.717 389.499 482.478 395.426C482.375 394.917 482.262 394.388 482.148 393.9C474.398 388.513 463.28 386.79 454.028 384.817C445.338 383.033 436.775 380.766 428.389 378.029C421.185 375.61 414.061 372.361 408.792 367.119C406.521 364.901 404.766 362.286 403.636 359.431C402.505 356.576 402.021 353.542 402.215 350.511C402.659 344.387 406.482 338.813 413.094 336.903C420.184 334.827 428.093 337.267 434.01 340.952C440.77 345.176 445.629 351.518 450.83 357.165C455.758 362.552 461.22 367.545 468.424 370.265C471.126 371.31 474.005 371.924 476.936 372.081C476.856 371.78 476.788 371.458 476.697 371.147C470.95 370.815 465.317 368.241 460.856 365.085C454.29 360.456 449.578 354.01 444.173 348.342C439.222 343.152 433.555 338.543 426.249 336.384C419.922 334.516 412.65 334.703 407.302 338.678C402.636 342.166 400.781 347.813 401.099 353.158C401.487 359.004 404.217 364.516 408.77 368.645C413.982 373.451 420.787 376.545 427.672 378.87L427.683 378.89ZM407.097 405.328C405.89 410.342 406.459 415.47 406.129 420.535H407.176C407.575 414.307 406.494 407.799 409.327 401.934C410.004 400.434 411.028 399.086 412.331 397.982C413.633 396.878 415.183 396.045 416.872 395.54C420.655 394.651 424.665 395.061 428.138 396.692C435.49 399.972 439.416 407.072 442.989 413.383C444.378 415.802 445.8 418.303 447.439 420.649H448.668C444.617 415.044 442.033 408.65 437.663 403.211C433.441 398.021 427.091 393.723 419.637 394.18C412.73 394.606 408.474 399.505 407.085 405.328H407.097ZM340.706 420.39H342.049C343.564 417.955 344.647 415.317 345.258 412.574C346.897 405.681 346.396 398.55 345.872 391.575C344.621 375.413 341.559 358.909 345.44 342.851C346.924 336.274 349.733 330.006 353.725 324.364C357.912 318.655 363.967 313.289 371.284 311.109C373.209 310.457 375.258 310.166 377.31 310.253C379.361 310.341 381.372 310.805 383.221 311.618C386.339 313.218 388.805 315.693 390.254 318.676C393.953 325.859 391.665 333.987 388.138 340.817C381.23 354.144 370.021 365.376 364.456 379.347C361.995 385.587 360.966 392.221 361.432 398.838C361.897 405.455 363.849 411.914 367.164 417.815C367.665 418.698 368.189 419.57 368.746 420.431H369.987C367.25 416.33 365.209 411.875 363.932 407.217C362.067 400.589 361.826 393.668 363.227 386.945C364.775 379.679 368.314 373.005 372.331 366.694C376.348 360.383 381.139 354.238 385.224 347.792C389.31 341.346 393.27 334.111 393.19 326.42C393.111 320.482 390.084 314.192 384.325 311.088C377.497 307.393 369.315 309.905 363.341 313.787C351.585 321.437 345.622 334.277 343.437 346.941C340.592 363.466 344.154 380.157 345.007 396.702C345.36 403.304 345.337 410.124 342.8 416.424C342.263 417.812 341.561 419.142 340.706 420.39ZM357.685 280.882C354.03 278.058 349.441 276.435 344.655 276.274C344.575 276.544 344.495 276.834 344.404 277.104C345.551 277.155 346.692 277.283 347.818 277.488C354.806 278.755 361.884 283.716 361.964 290.723C362.066 298.352 354.965 304.019 348.091 307.175C344.063 309.023 339.841 310.455 335.71 312.043C335.642 312.375 335.562 312.697 335.494 313.081C338.111 312.043 340.774 311.151 343.46 310.154C350.572 307.497 357.742 303.926 361.281 297.387C362.845 294.671 363.342 291.548 362.687 288.539C362.033 285.53 360.267 282.817 357.685 280.851V280.882Z" fill="white"/>
<path d="M421.925 241.054C471.246 275.588 522.672 334.235 523.48 368.053C524.242 401.477 503.656 398.155 500.197 397.117C463.553 386.737 419.399 293.992 403.034 256.24C386.783 218.799 409.68 232.511 421.925 241.054Z" fill="#D3766A"/>
<path d="M501.164 308.421L443.9 338.035C443.9 338.035 406.755 278.049 397.925 250.106C389.094 222.163 401.486 222.775 429.117 244.168C456.748 265.562 501.164 308.421 501.164 308.421Z" fill="#3147F5"/>
<path d="M489.101 300.533C467.069 314.649 445.641 323.95 441.305 326.285C441.1 326.4 440.93 326.088 441.134 325.984C445.47 323.908 468.936 310.03 488.862 300.2C489.147 300.086 489.34 300.398 489.101 300.533Z" fill="#263238"/>
<path d="M447.575 335.989C446.41 336.399 445.271 336.867 444.161 337.39C438.665 327.415 439.666 329.699 434.056 319.744C431.317 314.9 428.571 310.032 425.817 305.14C422.972 300.074 420.423 294.76 417.282 289.881C417.265 289.851 417.236 289.828 417.201 289.817C417.166 289.806 417.127 289.809 417.094 289.824C417.061 289.839 417.036 289.866 417.024 289.898C417.012 289.93 417.015 289.965 417.031 289.995C418.852 294.791 421.322 299.441 423.655 304.071C423.143 303.354 422.653 302.617 422.084 301.922C420.821 300.375 419.581 298.808 418.465 297.189C418.283 296.94 417.828 297.137 417.999 297.396C419.137 298.953 420.024 300.562 420.969 302.202C421.914 303.842 422.949 305.389 424.007 306.967C425.066 308.544 426.17 309.915 427.308 311.357L427.717 311.897C429.219 314.793 430.676 317.7 432.269 320.564C437.777 330.602 443.444 338.501 443.649 338.449C445.097 337.819 446.486 337.083 447.803 336.249C447.894 336.166 447.735 335.979 447.575 335.989Z" fill="#263238"/>
<path d="M276.944 398.758C293.923 396.495 303.539 367.733 322.384 321.946C325.684 313.912 281.86 267.898 275.908 275.299C268.409 284.641 248.596 336.323 246.57 350.377C242.667 378.071 257.188 401.405 276.944 398.758Z" fill="#D3766A"/>
<path d="M303.061 368.272C304.586 364.379 306.202 360.518 307.829 356.657L312.757 345.104C314.464 341.273 316.102 337.423 317.752 333.582C318.594 331.658 319.406 329.731 320.188 327.8C320.996 325.87 321.781 323.929 322.384 321.936C321.44 325.989 320.166 329.972 318.572 333.852C317.081 337.765 315.431 341.626 313.815 345.488C312.199 349.349 310.401 353.159 308.626 356.958C306.85 360.757 304.984 364.545 303.061 368.272Z" fill="#263238"/>
<path d="M260.181 308.483C262.559 292.768 267.419 270.845 273.575 266.247C280.039 261.43 303.516 245.31 310.287 243.172C317.058 241.034 347.283 230.54 352.837 233.467C357.286 235.813 352.018 246.473 337.645 251.59C325.001 256.074 318.492 260.268 314.885 261.69C311.277 263.112 302.367 274.032 304.756 278.848C306.179 281.682 315.237 285.014 320.87 282.689C326.504 280.364 327.892 270.233 334.322 265.406C340.751 260.579 352.109 261.192 352.769 263.984C353.429 266.776 349.673 268.084 343.869 277.592C340.137 283.696 339.886 298.352 331.42 308.877C327.164 314.161 319.778 328.215 319.778 328.215L260.181 308.483Z" fill="#D3766A"/>
<path d="M340.33 261.067C342.408 260.793 344.358 259.987 345.952 258.742C346.594 258.179 347.041 257.457 347.238 256.666C347.312 256.232 347.312 255.791 347.238 255.358C347.222 254.894 347.029 254.45 346.692 254.102C346.578 254.029 346.749 253.905 346.805 254.008C346.96 254.227 347.131 254.435 347.318 254.631C347.45 254.817 347.561 255.016 347.648 255.223C347.818 255.634 347.899 256.071 347.887 256.51C347.841 257.471 347.44 258.389 346.749 259.115C345.918 259.891 344.903 260.482 343.782 260.842C342.661 261.202 341.465 261.321 340.285 261.191C340.262 261.223 340.262 261.088 340.33 261.067Z" fill="#263238"/>
<path d="M273.575 266.246C279.049 258.409 293.058 244.251 306.941 239.393C316.318 236.103 348.615 250.427 347.682 256.053C346.749 261.679 341.229 261.71 333.058 260.828C330.088 260.506 314.35 255.358 311.664 258.368C307.818 262.707 302.924 277.498 302.924 277.498L273.575 266.246Z" fill="#D3766A"/>
<path d="M346.874 253.852C342.879 247.832 334.117 244.625 325.388 242.092C325.252 242.092 325.172 242.237 325.309 242.279C327.528 242.922 341.753 248.88 346.783 253.956C346.84 254.008 346.919 253.915 346.874 253.852Z" fill="#263238"/>
<path d="M273.575 266.247C279.049 258.41 293.058 244.252 306.941 239.394C316.318 236.104 341.878 254.435 340.933 260.071C339.989 265.707 332.08 266.154 323.317 263.382C320.484 262.479 310.993 256.397 308.307 259.407C304.461 263.735 295.072 274.489 295.072 274.489L273.575 266.247Z" fill="#D3766A"/>
<path d="M300.432 267.804C301.32 266.569 301.57 266.133 302.515 264.908C303.459 263.683 304.335 262.479 305.337 261.327C306.115 260.253 307.093 259.312 308.227 258.545C309.4 257.936 310.757 257.688 312.097 257.839C315.135 258.099 317.878 259.853 320.461 261.203C323.34 262.708 329.303 265.147 333.878 264.701C335.135 264.634 336.363 264.33 337.485 263.808C338.335 263.453 339.074 262.911 339.636 262.23C341.616 259.116 339.135 255.67 336.609 253.189C331.886 248.57 325.536 245.228 319.38 242.477C317.866 241.802 316.341 241.169 314.828 240.526C313.114 239.691 311.225 239.199 309.286 239.083C306.111 239.083 300.91 242.01 299.305 242.903C299.18 242.965 299.089 242.788 299.203 242.716C301.16 241.605 306.031 237.993 311.107 238.221C312.977 238.479 314.783 239.034 316.444 239.861C318.23 240.557 319.994 241.315 321.735 242.103C325.133 243.627 328.398 245.386 331.499 247.366C334.413 249.266 337.519 251.518 339.465 254.248C340.373 255.457 340.905 256.867 341.005 258.328C341.105 259.79 340.77 261.25 340.034 262.552C338.635 264.628 335.642 265.189 334.276 265.355C332.935 265.515 331.577 265.515 330.236 265.355C327.251 264.767 324.315 263.987 321.451 263.019C318.674 261.981 316.171 260.3 313.314 259.511C312.64 259.3 311.926 259.214 311.214 259.259C310.503 259.303 309.809 259.477 309.172 259.77C308.005 260.482 306.961 261.35 306.077 262.344C304.166 264.058 302.437 265.931 300.91 267.939C300.534 268.521 300.113 268.344 300.432 267.804Z" fill="#263238"/>
<path d="M269.524 273.098C271.527 269.361 274.907 253.978 278.161 249.224C281.416 244.47 296.256 228.184 303.197 228.889C311.926 229.772 302.845 244.107 298.281 250.013C293.718 255.919 294.503 265.956 294.503 265.956L269.524 273.098Z" fill="#D3766A"/>
<path d="M304.643 240.265C303.015 242.134 301.581 244.21 300.17 246.213C298.718 248.075 297.417 250.032 296.278 252.068C295.323 254.151 294.75 256.364 294.583 258.617C294.469 259.728 294.435 260.828 294.423 261.939C294.412 263.05 294.537 264.378 294.514 265.582C294.509 265.598 294.507 265.614 294.51 265.631C294.513 265.647 294.52 265.662 294.53 265.676C294.541 265.689 294.555 265.7 294.571 265.707C294.587 265.715 294.604 265.718 294.622 265.718C294.64 265.718 294.658 265.715 294.674 265.707C294.69 265.7 294.704 265.689 294.715 265.676C294.725 265.662 294.732 265.647 294.735 265.631C294.738 265.614 294.736 265.598 294.731 265.582C294.886 263.369 295.201 261.167 295.675 258.991C296.099 256.727 296.829 254.52 297.849 252.42C299.886 248.268 302.867 244.532 304.938 240.39C304.984 240.234 304.756 240.131 304.643 240.265Z" fill="#263238"/>
<path d="M294.605 267.68C294.733 269.543 295.158 271.379 295.869 273.129C296.515 274.907 297.299 276.642 298.213 278.319C299.096 279.994 300.08 281.622 301.16 283.198C302.207 284.786 303.436 286.218 304.722 287.734C307.338 290.692 309.424 294.01 310.902 297.564C312.287 301.118 312.98 304.867 312.95 308.639C312.571 304.922 311.613 301.273 310.105 297.802C308.487 294.392 306.37 291.197 303.812 288.305C302.511 286.834 301.31 285.291 300.216 283.686C299.146 282.06 298.196 280.371 297.371 278.631C295.8 275.174 294.344 271.479 294.605 267.68Z" fill="#263238"/>
<path d="M356.865 245.716C357.111 248.153 357.491 250.578 358.003 252.982C358.407 255.17 359.028 257.321 359.858 259.407C361.486 263.154 364.592 266.673 369.383 267.638C371.612 268.028 373.903 268.005 376.122 267.572C378.341 267.139 380.442 266.304 382.3 265.116C386.271 262.728 389.367 259.344 392.2 256.054C393.968 254.02 395.626 251.923 397.173 249.764C397.947 248.663 398.744 247.584 399.449 246.453C400.155 245.321 400.826 244.179 401.623 243.1C401.691 243.006 401.896 243.1 401.839 243.172C400.292 245.726 395.648 253.822 394.101 255.826C391.267 259.479 388.183 263.206 384.075 265.905C380.139 268.636 375.193 269.865 370.282 269.33C367.929 268.994 365.709 268.115 363.832 266.776C361.956 265.437 360.486 263.683 359.562 261.68C358.475 259.288 357.781 256.763 357.503 254.186C357.116 251.362 356.911 248.518 356.774 245.684C356.797 245.684 356.865 245.684 356.865 245.716Z" fill="#263238"/>
<path d="M373.264 260.59C383.711 260.331 396.593 242.57 400.03 229.876C400.257 229.004 387.944 199.452 386.169 193.359C385.782 192.113 346.942 212.79 346.942 212.79C346.942 212.79 354.783 224.551 357.799 235.18C358.038 236.072 363.159 260.839 373.264 260.59Z" fill="#D3766A"/>
<path d="M346.942 212.791C346.942 212.791 354.783 224.551 357.799 235.191C357.799 235.398 358.185 236.945 358.789 239.187C378.214 232.679 387.648 218.427 391.973 208.846C389.321 202.141 386.874 195.84 386.169 193.38C385.782 192.114 346.942 212.791 346.942 212.791Z" fill="#263238"/>
<path d="M324.637 143.919C322.145 144.303 313.781 162.427 314.998 170.357C316.216 178.288 321.895 193.65 324.489 193.577C327.084 193.505 326.606 143.618 324.637 143.919Z" fill="#263238"/>
<path d="M384.405 150.946C392.986 163.329 396.866 204.31 388.957 215.645C377.452 232.076 352.769 239.519 335.983 225.724C319.698 212.333 315.67 158.845 325.081 147.998C338.919 132.023 371.728 132.657 384.405 150.946Z" fill="#D3766A"/>
<path d="M352.12 177.114C353.444 177.284 354.778 177.391 356.114 177.436C357.651 177.54 358.868 177.779 360.268 177.063C360.639 176.818 360.911 176.469 361.043 176.07C361.174 175.67 361.158 175.242 360.996 174.852C360.2 173.222 358.356 172.661 356.513 172.464C354.665 172.2 352.775 172.57 351.21 173.502C350.859 173.734 350.591 174.055 350.439 174.425C350.287 174.795 350.258 175.198 350.355 175.583C350.452 175.968 350.671 176.319 350.985 176.591C351.299 176.863 351.693 177.045 352.12 177.114Z" fill="#263238"/>
<path d="M353.918 186.061C353.918 185.947 354.168 186.165 354.18 186.279C354.396 189.051 355.158 192.186 357.992 192.85C358.083 192.85 358.094 193.006 357.992 193.006C354.555 192.891 353.588 188.708 353.918 186.061Z" fill="#263238"/>
<path d="M356.251 182.926C361.087 182.127 362.464 191.002 357.992 191.728C353.52 192.455 352.211 183.59 356.251 182.926Z" fill="#263238"/>
<path d="M336.484 187.877C336.484 187.773 336.268 188.043 336.29 188.147C336.814 190.887 336.905 194.094 334.322 195.361C334.242 195.361 334.322 195.537 334.322 195.517C337.633 194.697 337.451 190.43 336.484 187.877Z" fill="#263238"/>
<path d="M333.343 185.397C328.45 185.698 329.451 194.604 333.98 194.334C338.51 194.065 337.451 185.159 333.343 185.397Z" fill="#263238"/>
<path d="M328.882 180.675C330.148 180.262 331.39 179.791 332.603 179.263C334.026 178.702 335.221 178.391 336.097 177.187C336.301 176.812 336.365 176.387 336.279 175.977C336.192 175.566 335.961 175.193 335.619 174.914C334.083 173.803 332.148 174.094 330.407 174.696C328.63 175.256 327.145 176.399 326.242 177.903C326.064 178.255 326.001 178.647 326.061 179.03C326.121 179.414 326.302 179.774 326.58 180.067C326.859 180.359 327.225 180.572 327.633 180.68C328.041 180.788 328.475 180.786 328.882 180.675Z" fill="#263238"/>
<path d="M360.132 208.525C359.517 209.261 358.994 210.237 357.856 210.466C356.732 210.594 355.591 210.502 354.51 210.196C354.499 210.189 354.486 210.184 354.473 210.182C354.46 210.179 354.446 210.179 354.433 210.182C354.42 210.184 354.407 210.189 354.396 210.196C354.385 210.203 354.375 210.211 354.368 210.222C354.36 210.232 354.355 210.243 354.352 210.255C354.35 210.267 354.35 210.28 354.352 210.292C354.355 210.304 354.36 210.315 354.368 210.326C354.375 210.336 354.385 210.345 354.396 210.351C354.906 210.844 355.554 211.201 356.27 211.384C356.985 211.567 357.742 211.569 358.459 211.389C359.049 211.164 359.553 210.785 359.907 210.299C360.261 209.813 360.45 209.243 360.45 208.659C360.462 208.452 360.223 208.421 360.132 208.525Z" fill="#263238"/>
<path d="M355.693 200.707C355.098 201.894 354.239 202.956 353.172 203.826C352.104 204.696 350.851 205.355 349.491 205.762C348.309 206.13 347.075 206.343 345.827 206.395C345.588 206.415 345.348 206.415 345.11 206.395C344.886 206.405 344.662 206.405 344.438 206.395C344.272 206.387 344.114 206.331 343.986 206.233C343.859 206.136 343.77 206.003 343.733 205.855C343.721 205.762 343.721 205.668 343.733 205.575V205.336C343.335 203.26 343.061 199.98 343.061 199.98C342.276 200.478 338.225 202.803 338.123 201.693C337.303 192.465 336.381 182.209 337.69 172.878C337.703 172.819 337.738 172.766 337.789 172.728C337.84 172.691 337.903 172.67 337.969 172.67C338.035 172.67 338.098 172.691 338.149 172.728C338.2 172.766 338.235 172.819 338.248 172.878C339.386 181.722 338.896 190.69 339.932 199.575C341.366 198.725 342.926 198.064 344.564 197.613C344.905 197.613 344.973 203.841 345.235 204.827C345.227 204.858 345.227 204.89 345.235 204.921C349.195 204.921 351.972 203.416 355.375 200.54C355.568 200.333 355.83 200.468 355.693 200.707Z" fill="#263238"/>
<path d="M389.674 186.123C381.845 187.732 376.769 180.165 372.399 169.256C369.839 162.872 369.827 149.534 369.827 149.534C369.827 149.534 350.845 160.661 339.226 161.138C327.607 161.616 316.466 153.8 315.784 145.568C315.203 138.458 326.891 127.704 343.938 124.943C355.83 123.023 377.315 129.303 387.956 139.942C387.956 139.942 403.967 144.665 403.25 155.305C402.533 165.944 398.562 184.296 389.674 186.123Z" fill="#263238"/>
<path d="M388.991 185.365C378.852 188.655 371.227 174.985 369.873 167.563C368.462 159.83 370.578 151.578 370.943 143.824H370.874C368.689 153.446 366.573 165.539 371.42 174.725C374.47 180.518 380.809 189.932 389.196 185.874C389.481 185.728 389.31 185.261 388.991 185.365Z" fill="#263238"/>
<path d="M405.128 151.859C402.727 145.631 393.816 140.327 386.92 139.652C386.852 139.652 386.829 139.746 386.92 139.756C395.318 141.438 405.834 148.735 404.548 157.236C403.512 164.025 401.327 173.066 397.196 178.858C397.094 179.003 397.333 179.138 397.447 179.003C400.792 175.027 401.805 170.242 403.137 165.509C404.24 161.326 406.744 156.167 405.128 151.859Z" fill="#263238"/>
<path d="M389.617 140.69C378.374 129.48 355.921 117.937 339.078 123.854C339.078 123.854 339.078 123.947 339.078 123.927C357.173 119.1 375.95 131.4 389.048 141.282C389.458 141.573 389.936 141.002 389.617 140.69Z" fill="#263238"/>
<path d="M384.644 187.172C384.644 187.172 390.732 172.193 397.947 173.844C405.162 175.494 403.114 195.642 396.434 199.866C395.619 200.468 394.679 200.914 393.67 201.176C392.662 201.439 391.606 201.512 390.565 201.393C389.524 201.274 388.521 200.964 387.615 200.482C386.709 200.001 385.919 199.357 385.293 198.59L384.644 187.172Z" fill="#D3766A"/>
<path d="M397.242 179.574C397.367 179.574 397.424 179.678 397.333 179.751C392.701 182.865 391.222 187.941 390.619 192.944C391.654 190.868 393.486 189.363 396.536 190.421C396.695 190.473 396.627 190.702 396.468 190.702C395.48 190.656 394.5 190.889 393.663 191.37C392.825 191.852 392.172 192.557 391.791 193.39C391.174 194.789 390.72 196.243 390.436 197.729C390.311 198.217 389.412 198.186 389.446 197.656C389.441 197.618 389.441 197.58 389.446 197.542C387.591 191.563 390.334 181.899 397.242 179.574Z" fill="#263238"/>
<path d="M363.83 253.635L387.728 318.624C388.661 320.513 387.728 322.163 385.634 322.309L348.126 324.893C346.981 324.899 345.858 324.61 344.885 324.059C343.913 323.508 343.131 322.718 342.629 321.779L318.731 256.79C317.798 254.891 318.731 253.24 320.825 253.095L358.311 250.469C359.465 250.466 360.596 250.762 361.573 251.323C362.55 251.883 363.333 252.685 363.83 253.635Z" fill="#37474F"/>
<path d="M359.369 253.906L383.267 318.895C384.2 320.784 383.267 322.445 381.173 322.59L343.676 325.216C342.526 325.215 341.399 324.917 340.427 324.357C339.454 323.797 338.675 322.997 338.18 322.05L314.281 257.061C313.337 255.172 314.281 253.521 316.375 253.376L353.918 250.75C355.06 250.756 356.177 251.055 357.141 251.613C358.105 252.171 358.877 252.966 359.369 253.906Z" fill="#455A64"/>
<path d="M349.366 257.652C349.428 258.226 349.675 258.771 350.076 259.217C350.477 259.663 351.014 259.991 351.619 260.159C352.225 260.327 352.871 260.327 353.476 260.159C354.082 259.992 354.619 259.665 355.02 259.219C355.422 258.773 355.669 258.228 355.731 257.654C355.793 257.08 355.667 256.501 355.369 255.993C355.07 255.484 354.613 255.067 354.055 254.795C353.497 254.523 352.863 254.409 352.234 254.465C351.39 254.541 350.615 254.92 350.077 255.517C349.539 256.115 349.284 256.883 349.366 257.652Z" fill="#263238"/>
<path d="M507.935 397.554C491.616 399.723 471.018 388.316 417.646 353.605C410.249 348.768 433.396 292.124 441.544 296.868C451.843 302.857 490.387 328.163 492.947 330.343C514.604 348.768 519.03 395.997 507.935 397.554Z" fill="#D3766A"/>
<path d="M460.697 313.755C460.697 313.755 445.379 294.614 433.919 286.819C418.568 276.439 400.61 273.159 392.951 272.214C377.019 270.242 337.189 275.505 336.791 286.259C336.473 295.995 376.985 288.729 376.985 288.729C376.985 288.729 334.344 289.912 336.325 301.694C338.305 313.475 384.826 302.617 384.826 302.617C384.826 302.617 341.036 304.693 345.19 316.589C348.33 325.547 391.062 317.866 391.062 317.866C391.062 317.866 353.44 319.942 356.228 329.284C359.324 339.601 399.245 334.775 399.245 334.775C410.818 357.403 426.409 363.911 438.13 367.326C440.964 368.146 460.697 313.755 460.697 313.755Z" fill="#D3766A"/>
<path d="M391.757 287.463C386.738 287.463 381.662 287.38 376.667 287.754C371.671 288.127 366.675 288.677 361.736 289.477C349.616 291.449 342.39 294.418 342.845 294.272C353.952 291.003 371.819 289.383 376.826 288.999C381.833 288.615 386.783 288.013 391.779 287.629C391.904 287.619 391.87 287.463 391.757 287.463Z" fill="#263238"/>
<path d="M393.589 303.906C387.182 304.124 380.82 304.124 374.425 304.602C368.029 305.079 362.066 306.045 355.75 306.916C355.261 306.979 355.466 307.197 355.955 307.145C362.294 306.501 368.223 306.356 374.573 305.785C380.923 305.214 387.261 304.404 393.611 304.041C393.748 304.041 393.748 303.906 393.589 303.906Z" fill="#263238"/>
<path d="M397.947 317.763C388.138 317.638 378.317 319.164 368.723 320.877C368.245 320.96 368.541 321.22 369.031 321.157C378.726 319.953 386.317 318.946 397.947 318.043C398.118 318.054 398.152 317.763 397.947 317.763Z" fill="#263238"/>
<path d="M478.245 320.357C482.478 322.901 486.552 325.651 490.501 328.568C492.482 330.012 494.381 331.547 496.191 333.166C498.065 334.776 499.713 336.593 501.096 338.574C503.723 342.561 505.93 346.766 507.685 351.134C509.506 355.465 510.796 359.966 511.531 364.555C510.986 362.304 510.302 360.083 509.483 357.902C508.697 355.712 507.833 353.553 506.865 351.425C505.015 347.157 502.761 343.045 500.128 339.135C498.83 337.194 497.261 335.415 495.462 333.841C493.699 332.211 491.798 330.727 489.909 329.17C488.02 327.613 486.063 326.181 484.105 324.717C482.148 323.253 480.236 321.779 478.245 320.357Z" fill="#263238"/>
<path d="M316.671 116.911C316.671 116.911 311.994 151.061 304.301 158.753C295.072 167.971 288.369 166.621 284.648 171.375C280.915 166.611 274.224 167.971 264.983 158.743C257.302 151.061 252.636 116.911 252.636 116.911C272.892 107.943 284.659 97.8848 284.659 97.8848C285.012 98.2065 296.722 108.078 316.671 116.911Z" fill="#3147F5"/>
<path opacity="0.2" d="M284.648 97.8951V171.375C280.915 166.611 274.224 167.971 264.983 158.743C257.302 151.061 252.636 116.911 252.636 116.911C272.892 107.943 284.659 97.8848 284.659 97.8848L284.648 97.8951Z" fill="black"/>
<path opacity="0.1" d="M316.671 116.911C316.671 116.911 311.994 151.061 304.301 158.752C295.072 167.97 288.369 166.621 284.648 171.375V97.8945C285.012 98.2059 296.722 108.077 316.671 116.911Z" fill="black"/>
<path d="M311.698 119.662C311.698 119.662 307.749 148.518 301.251 155.006C293.456 162.812 287.789 161.659 284.648 165.677C281.496 161.659 275.84 162.812 268.033 155.006C261.535 148.518 257.598 119.662 257.598 119.662C274.668 112.085 284.648 103.594 284.648 103.594C284.648 103.594 294.583 112.105 311.698 119.662Z" fill="#3147F5"/>
<path opacity="0.1" d="M284.648 103.603V165.675C281.507 161.658 275.84 162.8 268.045 155.005C261.547 148.507 257.609 119.65 257.609 119.65C274.679 112.073 284.648 103.582 284.648 103.582V103.603Z" fill="black"/>
<path d="M296.768 129.139H272.528V149.193H296.768V129.139Z" fill="white"/>
<path d="M294.344 135.335H291.874V126.377C291.874 124.629 291.113 122.952 289.758 121.716C288.403 120.48 286.565 119.786 284.648 119.786C282.731 119.786 280.893 120.48 279.538 121.716C278.183 122.952 277.422 124.629 277.422 126.377V135.335H274.952V126.377C274.861 125.168 275.044 123.954 275.489 122.811C275.934 121.669 276.631 120.622 277.538 119.736C278.446 118.85 279.543 118.143 280.762 117.66C281.981 117.177 283.296 116.928 284.625 116.928C285.954 116.928 287.269 117.177 288.489 117.66C289.708 118.143 290.805 118.85 291.712 119.736C292.619 120.622 293.317 121.669 293.762 122.811C294.207 123.954 294.389 125.168 294.298 126.377L294.344 135.335Z" fill="white"/>
<path d="M285.41 139.508L286.196 142.892H282.873L283.658 139.508C283.351 139.334 283.115 139.074 282.984 138.767C282.854 138.459 282.837 138.122 282.936 137.805C283.035 137.488 283.245 137.209 283.533 137.011C283.822 136.812 284.173 136.705 284.534 136.705C284.895 136.705 285.247 136.812 285.535 137.011C285.823 137.209 286.033 137.488 286.132 137.805C286.231 138.122 286.214 138.459 286.084 138.767C285.954 139.074 285.717 139.334 285.41 139.508Z" fill="#37474F"/>
<path d="M285.069 251.985H280.221V251.196H284.648V251.466H285.069V251.985ZM275.669 251.985H271.117V251.196H275.669V251.985ZM266.565 251.985H262.013V251.196H266.565V251.985ZM257.461 251.985H252.909V251.196H257.461V251.985ZM285.069 247.324H284.216V243.172H285.069V247.324ZM285.069 239.02H284.216V234.868H285.069V239.02ZM285.069 230.716H284.216V226.564H285.069V230.716ZM285.069 222.412H284.216V218.26H285.069V222.412ZM285.069 214.108H284.216V209.956H285.069V214.108ZM285.069 205.804H284.216V201.652H285.069V205.804ZM285.069 197.5H284.216V193.348H285.069V197.5ZM285.069 189.196H284.216V185.044H285.069V189.196ZM285.069 180.892H284.216V176.74H285.069V180.892Z" fill="#3147F5"/>
<path d="M286.571 175.889C286.571 175.542 286.458 175.203 286.247 174.914C286.036 174.626 285.735 174.401 285.384 174.268C285.033 174.136 284.646 174.101 284.273 174.168C283.9 174.236 283.557 174.403 283.288 174.649C283.019 174.894 282.836 175.206 282.762 175.547C282.687 175.887 282.726 176.24 282.871 176.56C283.017 176.881 283.263 177.155 283.579 177.348C283.896 177.54 284.268 177.643 284.648 177.643C285.158 177.643 285.647 177.458 286.008 177.129C286.369 176.8 286.571 176.354 286.571 175.889Z" fill="#3147F5"/>
<path d="M118.978 129.574H60.5872V61.2012H103.945L118.978 74.2384V129.574Z" fill="#EBEBEB"/>
<path d="M103.945 61.2012L118.978 74.2384H103.945V61.2012Z" fill="#DBDBDB"/>
<path d="M66.2885 74.4258H98.7556V72.6716H66.2885V74.4258Z" fill="#DBDBDB"/>
<path d="M66.2885 78.8574H98.7556V77.1032H66.2885V78.8574Z" fill="#DBDBDB"/>
<path d="M66.2885 83.3008H98.7556V81.5466H66.2885V83.3008Z" fill="#DBDBDB"/>
<path d="M66.2885 87.7324H113.857V85.9782H66.2885V87.7324Z" fill="#DBDBDB"/>
<path d="M66.2885 92.1641H113.857V90.4098H66.2885V92.1641Z" fill="#DBDBDB"/>
<path d="M66.2885 96.5977H113.857V94.8434H66.2885V96.5977Z" fill="#DBDBDB"/>
<path d="M66.2885 101.029H113.857V99.2751H66.2885V101.029Z" fill="#DBDBDB"/>
<path d="M66.2885 105.451H113.857V103.697H66.2885V105.451Z" fill="#DBDBDB"/>
<path d="M66.2885 109.883H113.857V108.129H66.2885V109.883Z" fill="#DBDBDB"/>
<path d="M66.2885 114.316H113.857V112.562H66.2885V114.316Z" fill="#DBDBDB"/>
<path d="M66.2885 118.748H113.857V116.994H66.2885V118.748Z" fill="#DBDBDB"/>
<path d="M66.2885 123.18H113.857V121.425H66.2885V123.18Z" fill="#DBDBDB"/>
<path d="M122.923 135.797C128.144 133.812 130.612 128.342 128.436 123.58C126.259 118.818 120.262 116.567 115.041 118.552C109.82 120.537 107.352 126.007 109.529 130.769C111.705 135.531 117.702 137.783 122.923 135.797Z" fill="#263238"/>
<path d="M124.053 124.82H113.902V133.228H124.053V124.82Z" fill="white"/>
<path d="M123.041 127.404H122.005V123.657C122.005 122.925 121.686 122.222 121.118 121.704C120.551 121.187 119.781 120.896 118.978 120.896C118.175 120.896 117.405 121.187 116.837 121.704C116.27 122.222 115.951 122.925 115.951 123.657V127.404H114.938V123.657C114.938 122.674 115.366 121.731 116.128 121.037C116.89 120.342 117.923 119.951 119.001 119.951C120.078 119.951 121.111 120.342 121.873 121.037C122.635 121.731 123.063 122.674 123.063 123.657L123.041 127.404Z" fill="white"/>
<path d="M119.41 129.118L119.831 130.966H118.033L118.455 129.118C118.289 129.023 118.162 128.882 118.093 128.716C118.023 128.55 118.015 128.368 118.069 128.197C118.122 128.026 118.236 127.875 118.392 127.768C118.548 127.661 118.737 127.604 118.932 127.604C119.128 127.604 119.317 127.661 119.473 127.768C119.629 127.875 119.742 128.026 119.796 128.197C119.85 128.368 119.842 128.55 119.772 128.716C119.703 128.882 119.576 129.023 119.41 129.118Z" fill="#263238"/>
<path d="M158.99 165.323H158.182V161.171H159.036L158.99 165.323ZM158.99 157.019H158.182V152.867H159.036L158.99 157.019ZM158.99 148.715H158.182V144.563H159.036L158.99 148.715ZM158.99 140.411H158.182V136.259H159.036L158.99 140.411ZM158.99 132.107H158.182V127.955H159.036L158.99 132.107ZM158.99 123.803H158.182V119.651H159.036L158.99 123.803ZM158.99 115.499H158.182V111.347H159.036L158.99 115.499ZM158.99 107.195H158.182V103.043H159.036L158.99 107.195ZM154.768 102.763H150.216V101.984H154.768V102.763ZM145.664 102.763H141.112V101.984H145.664V102.763ZM136.56 102.763H132.008V101.984H136.56V102.763ZM127.456 102.763H125.487V101.984H127.456V102.763Z" fill="#3147F5"/>
<path d="M125.533 100.688C125.148 100.686 124.771 100.788 124.45 100.983C124.13 101.178 123.88 101.455 123.733 101.78C123.587 102.104 123.549 102.461 123.627 102.806C123.704 103.15 123.892 103.465 124.166 103.711C124.441 103.957 124.79 104.123 125.169 104.187C125.547 104.251 125.938 104.211 126.291 104.071C126.645 103.932 126.944 103.699 127.152 103.403C127.359 103.107 127.465 102.762 127.456 102.411C127.444 101.952 127.237 101.515 126.878 101.193C126.519 100.872 126.036 100.69 125.533 100.688Z" fill="#3147F5"/>
<path d="M191.707 396.215H189.033V395.478H191.707V396.215ZM184.481 396.215H179.929V395.478H184.481V396.215ZM175.377 396.215H170.825V395.478H175.377V396.215ZM166.273 396.215H161.721V395.478H166.273V396.215ZM158.99 394.554H158.182V390.402H159.036L158.99 394.554ZM158.99 386.25H158.182V382.098H159.036L158.99 386.25ZM158.99 377.946H158.182V373.794H159.036L158.99 377.946ZM158.99 369.642H158.182V365.49H159.036L158.99 369.642ZM158.99 361.338H158.182V357.186H159.036L158.99 361.338ZM158.99 353.034H158.182V348.882H159.036L158.99 353.034ZM158.99 344.73H158.182V340.578H159.036L158.99 344.73Z" fill="#3147F5"/>
<path d="M191.605 397.587C192.667 397.587 193.528 396.801 193.528 395.832C193.528 394.864 192.667 394.078 191.605 394.078C190.543 394.078 189.682 394.864 189.682 395.832C189.682 396.801 190.543 397.587 191.605 397.587Z" fill="#3147F5"/>
<path d="M271.049 384.445H198.331V424.471H271.049V384.445Z" fill="#455A64"/>
<path d="M224.368 389.479H204.043V413.186H224.368V389.479Z" fill="white"/>
<path d="M214.206 403.358C216.864 403.358 219.02 401.392 219.02 398.967C219.02 396.542 216.864 394.576 214.206 394.576C211.547 394.576 209.392 396.542 209.392 398.967C209.392 401.392 211.547 403.358 214.206 403.358Z" fill="#455A64"/>
<path d="M224.368 413.187H204.043C204.043 413.187 204.601 408.765 205.591 407.447C206.581 406.129 209.199 404.645 214.206 404.645C219.213 404.645 221.83 406.129 222.82 407.447C223.811 408.765 224.368 413.187 224.368 413.187Z" fill="#455A64"/>
<path d="M263.083 389.479H229.626V390.631H263.083V389.479Z" fill="white"/>
<path d="M263.083 400.752H229.626V401.904H263.083V400.752Z" fill="white"/>
<path d="M263.083 404.074H229.626V405.226H263.083V404.074Z" fill="white"/>
<path d="M263.083 407.385H229.626V408.537H263.083V407.385Z" fill="white"/>
<path d="M263.083 410.707H229.626V411.859H263.083V410.707Z" fill="white"/>
<path d="M263.083 414.018H229.626V415.17H263.083V414.018Z" fill="white"/>
<path d="M256.722 392.801H229.626V393.953H256.722V392.801Z" fill="white"/>
<path d="M274.99 433.102C280.211 431.117 282.679 425.647 280.502 420.885C278.326 416.123 272.329 413.871 267.108 415.857C261.887 417.842 259.419 423.312 261.595 428.074C263.772 432.836 269.769 435.087 274.99 433.102Z" fill="#263238"/>
<path d="M276.124 422.113H265.973V430.521H276.124V422.113Z" fill="white"/>
<path d="M275.112 424.699H274.076V420.952C274.076 420.219 273.757 419.517 273.189 418.999C272.622 418.482 271.852 418.191 271.049 418.191C270.246 418.191 269.476 418.482 268.908 418.999C268.341 419.517 268.022 420.219 268.022 420.952V424.699H266.986V420.952C266.986 419.969 267.414 419.026 268.176 418.331C268.938 417.637 269.971 417.246 271.049 417.246C272.126 417.246 273.16 417.637 273.922 418.331C274.684 419.026 275.112 419.969 275.112 420.952V424.699Z" fill="white"/>
<path d="M271.481 426.411L271.902 428.259H270.093L270.525 426.411C270.393 426.335 270.285 426.229 270.211 426.103C270.137 425.978 270.1 425.837 270.105 425.694C270.109 425.551 270.154 425.412 270.235 425.29C270.316 425.169 270.431 425.068 270.568 424.999C270.705 424.93 270.859 424.895 271.015 424.897C271.172 424.898 271.325 424.937 271.459 425.01C271.594 425.082 271.706 425.185 271.784 425.309C271.861 425.433 271.902 425.573 271.902 425.716C271.903 425.855 271.864 425.991 271.79 426.113C271.717 426.235 271.61 426.337 271.481 426.411Z" fill="#263238"/>
<path d="M523.457 460.873L463.724 461.122L403.979 461.215L284.5 461.392L165.021 461.215L105.288 461.122L45.5427 460.873L105.288 460.613L165.021 460.53L284.5 460.354L403.979 460.53L463.724 460.623L523.457 460.873Z" fill="#263238"/>
</svg>
